{
.appVersion = "3151";
.formatVersion = 3;
DisplayStrings = (
"/f_f/f_f_ij/f_f_l/f_i/f_l ﬁ"
);
axes = (
{
name = Weight;
tag = wght;
}
);
classes = (
{
automatic = 1;
code = "A Aacute Abreve Acircumflex Adieresis Adotbelow Agrave Amacron Aogonek Aring Aringacute Atilde AE AEacute B C Cacute Ccaron Ccedilla Ccedillaacute Ccircumflex Cdotaccent D Eth Dcaron Dcroat Ddotbelow Dmacronbelow E Eacute Ebreve Ecaron Ecedillabreve Ecircumflex Edieresis Edotaccent Edotbelow Egrave Emacron Emacronacute Emacrongrave Eogonek Etilde Schwa F G Gbreve Gcaron Gcircumflex Gcommaaccent Gdotaccent Gmacron H Hbar Hbrevebelow Hcircumflex Hdotbelow I IJ Iacute Ibreve Icircumflex Idieresis Idieresisacute Idotaccent Idotbelow Igrave Imacron Iogonek Itilde J Jacute Jcircumflex K Kcommaaccent L Lacute Lcaron Lcommaaccent Ldot Ldotbelow Lmacronbelow Lslash M Mdotbelow N Nacute Ncaron Ncommaaccent Ndotaccent Ndotbelow Nhookleft Nmacronbelow Ntilde Eng O Oacute Obreve Ocircumflex Odieresis Odotbelow Ograve Ohungarumlaut Omacron Omacronacute Omacrongrave Oogonek Oslash Oslashacute Otilde Otildeacute Otildedieresis OE P Thorn Q R Racute Rcaron Rcommaaccent Rdotbelow Rmacronbelow S Sacute Sacutedotaccent Scaron Scarondotaccent Scedilla Scircumflex Scommaaccent Sdotaccent Sdotbelow Sdotbelowdotaccent Germandbls T Tbar Tcaron Tcedilla Tcommaaccent Tdotbelow Tmacronbelow U Uacute Ubreve Ucircumflex Udieresis Udotbelow Ugrave Uhungarumlaut Umacron Umacrondieresis Uogonek Uring Utilde Utildeacute V W Wacute Wcircumflex Wdieresis Wgrave X Y Yacute Ycircumflex Ydieresis Ydotaccent Ygrave Ymacron Ytilde Z Zacute Zcaron Zdotaccent Zdotbelow Delta Omega";
name = Uppercase;
}
);
customParameters = (
{
name = blueScale;
value = 0.037;
},
{
name = fsType;
value = (
);
},
{
name = "Use Typo Metrics";
value = 1;
},
{
name = "gasp Table";
value = {
9 = 10;
21 = 7;
65535 = 15;
};
},
{
name = panose;
value = (
2,
11,
3,
4,
4,
4,
2,
0,
2,
3
);
},
{
name = unicodeRanges;
value = (
0,
1
);
},
{
name = codePageRanges;

glyphs = (
{
glyphname = A;
kernLeft = A;
kernRight = A;
lastChange = "2023-09-13 03:40:42 +0000";
layers = (
{
anchors = (
{
name = bottom;
pos = (329,0);
},
{
name = ogonek;
pos = (591,0);
},
{
name = top;
pos = (329,700);
}
);
layerId = "F5467FAD-1970-4982-B3D3-939C01050498";
shapes = (
{
closed = 1;
nodes = (
(67,0,l),
(172,261,l),
(130,219,l),
(528,219,l),
(486,261,l),
(591,0,l),
(638,0,l),
(354,700,l),
(304,700,l),
(20,0,l)
);
},
{
closed = 1;
nodes = (
(339,674,l),
(319,674,l),
(509,204,l),
(517,249,l),
(141,249,l),
(149,204,l)
);
}
);
width = 678;
},
{
anchors = (
{
name = bottom;
pos = (406,0);
},
{
name = ogonek;
pos = (611,0);
},
{
name = top;
pos = (407,700);
}
);
layerId = "6DD95C5A-998B-41AB-BDFB-84A73C209871";
shapes = (
{
closed = 1;
nodes = (
(202,0,l),
(292,219,l),
(230,177,l),
(583,177,l),
(521,219,l),
(611,0,l),
(773,0,l),
(489,700,l),
(324,700,l),
(40,0,l)
);
},
{
closed = 1;
nodes = (
(424,540,l),
(389,540,l),
(510,246,l),
(538,288,l),
(275,288,l),
(303,246,l)
);
}
);
width = 813;
},
{
anchors = (
{
name = bottom;
pos = (317,0);
},
{
name = ogonek;
pos = (588,0);
},
{
name = top;
pos = (317,700);
}
);
layerId = "1FDC7037-1F88-4969-8535-0F79C1EF19DB";
shapes = (
{
closed = 1;
nodes = (
(45,0,l),
(153,268,l),
(114,226,l),
(519,226,l),
(480,268,l),
(588,0,l),
(616,0,l),
(332,700,l),
(301,700,l),
(17,0,l)
);
},
{
closed = 1;
nodes = (
(325,695,l),
(308,695,l),
(509,197,l),
(514,243,l),
(120,243,l),
(124,197,l)
);
}
);
width = 656.4;
},
{
anchors = (
{
name = bottom;
pos = (425,0);
},
{
name = ogonek;
pos = (616,0);
},
{
name = top;
pos = (426,700);
}
);
layerId = "3ED9E848-BE83-4CAC-8EFF-D71BD2B4F667";
shapes = (
{
closed = 1;
nodes = (
(235,0,l),
(321,209,l),
(255,167,l),
(597,167,l),
(530,209,l),
(616,0,l),
(806,0,l),
(522,700,l),
(329,700,l),
(45,0,l)
);
},
{
closed = 1;
nodes = (
(445,507,l),
(406,507,l),
(510,256,l),
(543,298,l),
(308,298,l),
(341,256,l)
);
}
);
width = 846.1875;
}
);
note = A;
unicode = 65;
},
{
glyphname = AE;
kernLeft = A;
kernRight = E;
lastChange = "2023-09-13 03:40:42 +0000";
layers = (
{
anchors = (
{
name = top;
pos = (706,700);
}
);
layerId = "F5467FAD-1970-4982-B3D3-939C01050498";
shapes = (
{
closed = 1;
nodes = (
(117,0,l),
(262.58,258,l),
(496,258,l),
(496,0,l),
(1023,0,l),
(1023,30,l),
(538,30,l),
(538,338,l),
(1001,338,l),
(1001,370,l),
(538,370,l),
(538,669,l),
(1012,669,l),
(1012,700,l),
(462,700,l),
(64,0,l)
);
},
{
closed = 1;
nodes = (
(496,671.64,l),
(496,285,l),
(277.82,285,l)
);
}
);
width = 1070;
},
{
anchors = (
{
name = top;
pos = (674,700);
}
);
layerId = "6DD95C5A-998B-41AB-BDFB-84A73C209871";
shapes = (
{
closed = 1;
nodes = (
(181,0,l),
(280,175,l),
(487,175,l),
(487,0,l),
(1066,0,l),
(1066,124,l),
(641,124,l),
(641,296,l),
(1046,296,l),
(1046,420,l),
(641,420,l),
(641,576,l),
(1056,576,l),
(1056,700,l),
(406,700,l),
(8,0,l)
);
},
{
closed = 1;
nodes = (
(487,540.77,l),
(487,286,l),
(343,286,l)
);
}
);
width = 1070;
},
{
anchors = (
{
name = top;
pos = (711,700);
}
);
layerId = "1FDC7037-1F88-4969-8535-0F79C1EF19DB";
shapes = (
{
closed = 1;
nodes = (
(107,0,l),
(260,271,l),
(497,271,l),
(497,0,l),
(1016,0,l),
(1016,15,l),
(522,15,l),
(522,345,l),
(994,345,l),
(994,362,l),
(522,362,l),
(522,684,l),
(1005,684,l),
(1005,700,l),
(471,700,l),
(73,0,l)
);
},
{
closed = 1;
nodes = (
(497,693,l),
(497,285,l),
(267,285,l)
);
}
);
width = 1070;
},
{
anchors = (
{
name = top;
pos = (666,700);
}
);
layerId = "3ED9E848-BE83-4CAC-8EFF-D71BD2B4F667";
shapes = (
{
closed = 1;
nodes = (
(197,0,l),
(284,155,l),
(485,155,l),
(485,0,l),
(1077,0,l),
(1077,147,l),
(666,147,l),
(666,286,l),
(1057,286,l),
(1057,432,l),
(666,432,l),
(666,553,l),
(1067,553,l),
(1067,700,l),
(392,700,l),
(-6,0,l)
);
},
{
closed = 1;
nodes = (
(485,509,l),
(485,286,l),
(359,286,l)
);
}
);
width = 1070;
}
);
note = AE;
unicode = 198;
},
{
glyphname = B;
kernLeft = B;
kernRight = B;
lastChange = "2023-09-13 03:40:42 +0000";
layers = (
{
layerId = "F5467FAD-1970-4982-B3D3-939C01050498";
shapes = (
{
closed = 1;
nodes = (
(292.99,-0.01,ls),
(446.99,-0.01,o),
(551.99,65.99,o),
(551.99,207.99,cs),
(551.99,341.98,o),
(464.32,408.09,o),
(310.04,411.82,c),
(377.31,428.76,o),
(423.99,469.91,o),
(423.99,552.99,cs),
(423.99,664.99,o),
(338.99,699.99,o),
(229.99,699.99,cs),
(55.99,699.99,l),
(55.99,-0.01,l)
);
},
{
closed = 1;
nodes = (
(98.99,390.99,l),
(287.99,390.99,ls),
(411.99,390.99,o),
(507.99,334.99,o),
(507.99,207.99,cs),
(507.99,84.99,o),
(415.99,30.99,o),
(282.99,30.99,cs),
(98.99,30.99,l)
);
},
{
closed = 1;
nodes = (
(98.99,668.99,l),
(229.99,668.99,ls),
(325.99,668.99,o),
(381.99,617.99,o),
(381.99,541.99,cs),
(381.99,466.99,o),
(327.99,411.99,o),
(225.99,411.99,cs),
(98.99,411.99,l)
);
}
);
width = 599;
},
{
layerId = "6DD95C5A-998B-41AB-BDFB-84A73C209871";
shapes = (
{
closed = 1;
nodes = (
(314.99,0,ls),
(474.99,0,o),
(599.99,77,o),
(599.99,225,cs),
(599.99,339.38,o),
(533.02,393.99,o),
(444.84,418.73,c),
(472.41,447.79,o),
(487.99,485.07,o),
(487.99,528,cs),
(487.99,657,o),
(372.99,700,o),
(259.99,700,cs),
(49.99,700,l),
(49.99,0,l)
);
},
{
closed = 1;
nodes = (
(202.99,351.76,l),
(294.58,352,ls),
(394.57,352,o),
(446,315.59,o),
(446,225,cs),
(446,144,o),
(387.26,115,o),
(297.26,115,cs),
(202.99,115,l)
);
},
{
closed = 1;
nodes = (
(202.99,585,l),
(259.99,585,ls),
(310.99,585,o),
(344.99,564,o),
(344.99,508,cs),
(344.99,462,o),
(310.99,438,o),
(256.99,438,cs),
(202.99,438,l)
);
}
);
width = 630;
},
{
layerId = "1FDC7037-1F88-4969-8535-0F79C1EF19DB";
shapes = (
{
closed = 1;
nodes = (
(289,0,ls),
(443,0,o),
(544,64,o),
(544,205,cs),
(544,342,o),
(453,410,o),
(288,411,c),
(362,426,o),
(414,467,o),
(414,557,cs),
(414,666,o),
(334,700,o),
(225,700,cs),
(57,700,l),
(57,0,l)
);
},
{
closed = 1;
nodes = (
(82,397,l),
(287,397,ls),
(415,397,o),
(518,338,o),
(518,205,cs),
(518,76,o),
(421,18,o),
(281,18,cs),
(82,18,l)
);
},
{
closed = 1;
nodes = (
(82,682,l),
(225,682,ls),
(328,682,o),
(388,627,o),
(388,547,cs),
(388,468,o),
(331,408,o),
(221,408,cs),
(82,408,l)
);
}
);
width = 594.04;
},
{
layerId = "3ED9E848-BE83-4CAC-8EFF-D71BD2B4F667";
shapes = (
{
closed = 1;
nodes = (
(320,0,ls),
(482,0,o),
(612,80,o),
(612,229,cs),
(612,339,o),
(550,391,o),
(478,420,c),
(496,452,o),
(504,489,o),
(504,522,cs),
(504,655,o),
(381,700,o),
(267,700,cs),
(49,700,l),
(49,0,l)
);
},
{
closed = 1;
nodes = (
(229,342,l),
(296,342,ls),
(390,342,o),
(431,311,o),
(431,229,cs),
(431,158,o),
(380,136,o),
(301,136,cs),
(229,136,l)
);
},
{
closed = 1;
nodes = (
(229,564,l),
(267,564,ls),
(307,564,o),
(336,551,o),
(336,500,cs),
(336,461,o),
(307,444,o),
(265,444,cs),
(229,444,l)
);
}
);
width = 637.62083;
}
);
note = B;
unicode = 66;
},
{
glyphname = C;
kernLeft = C;
kernRight = C;
lastChange = "2023-09-13 03:40:42 +0000";
layers = (
{
anchors = (
{
name = bottom;
pos = (383,0);
},
{
name = top;
pos = (383,700);
}
);
layerId = "F5467FAD-1970-4982-B3D3-939C01050498";
shapes = (
{
closed = 1;
nodes = (
(497,-5,o),
(587,36,o),
(648,107,c),
(606,127,l),
(552,64,o),
(468,26,o),
(383,26,cs),
(210,26,o),
(88,164,o),
(88,348,cs),
(88,533,o),
(211,674,o),
(383,674,cs),
(470,674,o),
(556,634,o),
(610,567,c),
(651,588,l),
(590,662,o),
(498,705,o),
(383,705,cs),
(172,705,o),
(34,546,o),
(34,348,cs),
(34,152,o),
(173,-5,o),
(383,-5,cs)
);
}
);
width = 693;
},
{
anchors = (
{
name = bottom;
pos = (414,0);
},
{
name = top;
pos = (414,700);
}
);
layerId = "6DD95C5A-998B-41AB-BDFB-84A73C209871";
shapes = (
{
closed = 1;
nodes = (
(554,-5,o),
(669,61,o),
(723,151,c),
(587,217,l),
(545,142,o),
(487,110,o),
(414,110,cs),
(299,110,o),
(214,206,o),
(214,348,cs),
(214,492,o),
(300,590,o),
(414,590,cs),
(489,590,o),
(548,556,o),
(590,477,c),
(725,545,l),
(670,637,o),
(555,705,o),
(414,705,cs),
(194,705,o),
(50,538,o),
(50,348,cs),
(50,160,o),
(196,-5,o),
(414,-5,cs)
);
}
);
width = 745;
},
{
anchors = (
{
name = bottom;
pos = (378,0);
},
{
name = top;
pos = (378,700);
}
);
layerId = "1FDC7037-1F88-4969-8535-0F79C1EF19DB";
shapes = (
{
closed = 1;
nodes = (
(488,-5,o),
(574,32,o),
(636,100,c),
(609,113,l),
(553,52,o),
(465,13,o),
(378,13,cs),
(196,13,o),
(68,157,o),
(68,348,cs),
(68,540,o),
(197,687,o),
(378,687,cs),
(467,687,o),
(557,646,o),
(613,581,c),
(639,595,l),
(577,666,o),
(489,705,o),
(378,705,cs),
(168,705,o),
(31,547,o),
(31,348,cs),
(31,151,o),
(169,-5,o),
(378,-5,cs)
);
}
);
width = 684.68;
},
{
anchors = (
{
name = bottom;
pos = (422,0);
},
{
name = top;
pos = (422,700);
}
);
layerId = "3ED9E848-BE83-4CAC-8EFF-D71BD2B4F667";
shapes = (
{
closed = 1;
nodes = (
(568,-5,o),
(689,67,o),
(741,162,c),
(582,239,l),
(543,161,o),
(492,131,o),
(422,131,cs),
(321,131,o),
(245,216,o),
(245,348,cs),
(245,482,o),
(322,569,o),
(422,569,cs),
(494,569,o),
(546,537,o),
(585,455,c),
(743,534,l),
(690,631,o),
(569,705,o),
(422,705,cs),
(199,705,o),
(54,536,o),
(54,348,cs),
(54,162,o),
(202,-5,o),
(422,-5,cs)
);
}
);
width = 757.78333;
}
);
note = C;
unicode = 67;
},
{
glyphname = D;
kernLeft = B;
kernRight = D;
lastChange = "2023-09-13 03:40:42 +0000";
layers = (
{
anchors = (
{
name = bottom;
pos = (313,0);
},
{
name = top;
pos = (313,700);
}
);
layerId = "F5467FAD-1970-4982-B3D3-939C01050498";
shapes = (
{
closed = 1;
nodes = (
(235,0,ls),
(444,0,o),
(601,104,o),
(601,351,cs),
(601,602,o),
(423,700,o),
(217,700,cs),
(56,700,l),
(56,0,l)
);
},
{
closed = 1;
nodes = (
(98,658.06,l),
(217,659,ls),
(401,660,o),
(553,585,o),
(553,351,cs),
(553,125,o),
(425,41,o),
(235,41,cs),
(98,41,l)
);
}
);
width = 636;
},
{
anchors = (
{
name = bottom;
pos = (343,0);
},
{
name = top;
pos = (343,700);
}
);
layerId = "6DD95C5A-998B-41AB-BDFB-84A73C209871";
shapes = (
{
closed = 1;
nodes = (
(275,0,ls),
(496,0,o),
(655,109,o),
(655,351,cs),
(655,599,o),
(474,700,o),
(260,700,cs),
(50,700,l),
(50,0,l)
);
},
{
closed = 1;
nodes = (
(203.93,585,l),
(260,585,ls),
(401.49,585,o),
(496,528,o),
(496,351,cs),
(496,176,o),
(423,115,o),
(275,115,cs),
(203.65,115,l)
);
}
);
width = 690;
},
{
anchors = (
{
name = bottom;
pos = (308,0);
},
{
name = top;
pos = (308,700);
}
);
layerId = "1FDC7037-1F88-4969-8535-0F79C1EF19DB";
shapes = (
{
closed = 1;
nodes = (
(229,0,ls),
(436,0,o),
(592,103,o),
(592,351,cs),
(592,602,o),
(415,700,o),
(210,700,cs),
(57,700,l),
(57,0,l)
);
},
{
closed = 1;
nodes = (
(81,670,l),
(210,671,ls),
(401,672,o),
(562,594,o),
(562,351,cs),
(562,117,o),
(425,29,o),
(229,29,cs),
(81,29,l)
);
}
);
width = 627.36;
},
{
anchors = (
{
name = bottom;
pos = (350,0);
},
{
name = top;
pos = (350,700);
}
);
layerId = "3ED9E848-BE83-4CAC-8EFF-D71BD2B4F667";
shapes = (
{
closed = 1;
nodes = (
(285,0,ls),
(509,0,o),
(668,110,o),
(668,351,cs),
(668,598,o),
(487,700,o),
(271,700,cs),
(49,700,l),
(49,0,l)
);
},
{
closed = 1;
nodes = (
(230,567,l),
(271,567,ls),
(402,567,o),
(482,514,o),
(482,351,cs),
(482,189,o),
(423,133,o),
(285,133,cs),
(230,133,l)
);
}
);
width = 703.275;
}
);
note = D;
unicode = 68;
},
{
glyphname = Eth;
kernLeft = Eth;
kernRight = D;
lastChange = "2023-09-13 03:40:42 +0000";
layers = (
{
layerId = "F5467FAD-1970-4982-B3D3-939C01050498";
shapes = (
{
closed = 1;
nodes = (
(345,0,ls),
(554,0,o),
(711,104,o),
(711,351,cs),
(711,602,o),
(533,700,o),
(327,700,cs),
(166,700,l),
(166,325,l),
(48,325,l),
(48,291,l),
(166,291,l),
(166,0,l)
);
},
{
closed = 1;
nodes = (
(208,291,l),
(437,291,l),
(437,325,l),
(208,325,l),
(208,658.06,l),
(327,659,ls),
(511,659,o),
(663,585,o),
(663,351,cs),
(663,125,o),
(535,41,o),
(345,41,cs),
(208,41,l)
);
}
);
width = 777;
},
{
layerId = "6DD95C5A-998B-41AB-BDFB-84A73C209871";
shapes = (
{
closed = 1;
nodes = (
(411,0,ls),
(632,0,o),
(791,109,o),
(791,351,cs),
(791,599,o),
(610,700,o),
(396,700,cs),
(186,700,l),
(186,366,l),
(59,366,l),
(59,250,l),
(186,250,l),
(186,0,l)
);
},
{
closed = 1;
nodes = (
(339.73,250,l),
(518,250,l),
(518,366,l),
(339.8,366,l),
(339.93,585,l),
(396,585,ls),
(537.49,585,o),
(632,528,o),
(632,351,cs),
(632,176,o),
(559,115,o),
(411,115,cs),
(339.65,115,l)
);
}
);
width = 806;
},
{
layerId = "1FDC7037-1F88-4969-8535-0F79C1EF19DB";
shapes = (
{
closed = 1;
nodes = (
(334,0,ls),
(542,0,o),
(698,103,o),
(698,351,cs),
(698,602,o),
(521,700,o),
(316,700,cs),
(163,700,l),
(163,318,l),
(46,318,l),
(46,298,l),
(163,298,l),
(163,0,l)
);
},
{
closed = 1;
nodes = (
(187,298,l),
(424,298,l),
(424,318,l),
(187,318,l),
(187,670,l),
(316,671,ls),
(507,671,o),
(668,594,o),
(668,351,cs),
(668,117,o),
(531,29,o),
(334,29,cs),
(187,29,l)
);
}
);
width = 772.36;
},
{
layerId = "3ED9E848-BE83-4CAC-8EFF-D71BD2B4F667";
shapes = (
{
closed = 1;
nodes = (
(427,0,ls),
(651,0,o),
(811,110,o),
(811,351,cs),
(811,598,o),
(629,700,o),
(413,700,cs),
(191,700,l),
(191,376,l),
(62,376,l),
(62,240,l),
(191,240,l),
(191,0,l)
);
},
{
closed = 1;
nodes = (
(372,240,l),
(538,240,l),
(538,376,l),
(372,376,l),
(372,567,l),
(413,567,ls),
(544,567,o),
(624,514,o),
(624,351,cs),
(624,189,o),
(565,133,o),
(427,133,cs),
(372,133,l)
);
}
);
width = 813.12917;
}
);
note = Eth;
unicode = 208;
},
{
glyphname = E;
kernLeft = B;
kernRight = E;
lastChange = "2023-09-13 03:40:42 +0000";
layers = (
{
anchors = (
{
name = bottom;
pos = (333,0);
},
{
name = ogonek;
pos = (572,0);
},
{
name = top;
pos = (333,700);
}
);
layerId = "F5467FAD-1970-4982-B3D3-939C01050498";
shapes = (
{
closed = 1;
nodes = (
(586,0,l),
(586,30,l),
(101,30,l),
(101,338,l),
(564,338,l),
(564,370,l),
(101,370,l),
(101,669,l),
(575,669,l),
(575,700,l),
(59,700,l),
(59,0,l)
);
}
);
width = 633;
},
{
anchors = (
{
name = bottom;
pos = (353,0);
},
{
name = ogonek;
pos = (512,0);
},
{
name = top;
pos = (353,700);
}
);
layerId = "6DD95C5A-998B-41AB-BDFB-84A73C209871";
shapes = (
{
closed = 1;
nodes = (
(629,0,l),
(629,124,l),
(204,124,l),
(204,296,l),
(609,296,l),
(609,420,l),
(204,420,l),
(204,576,l),
(619,576,l),
(619,700,l),
(50,700,l),
(50,0,l)
);
}
);
width = 669;
},
{
anchors = (
{
name = bottom;
pos = (330,0);
},
{
name = ogonek;
pos = (582,0);
},
{
name = top;
pos = (330,700);
}
);
layerId = "1FDC7037-1F88-4969-8535-0F79C1EF19DB";
shapes = (
{
closed = 1;
nodes = (
(579,0,l),
(579,15,l),
(85,15,l),
(85,345,l),
(557,345,l),
(557,362,l),
(85,362,l),
(85,684,l),
(568,684,l),
(568,700,l),
(60,700,l),
(60,0,l)
);
}
);
width = 627.24;
},
{
anchors = (
{
name = bottom;
pos = (358,0);
},
{
name = ogonek;
pos = (497,0);
},
{
name = top;
pos = (358,700);
}
);
layerId = "3ED9E848-BE83-4CAC-8EFF-D71BD2B4F667";
shapes = (
{
closed = 1;
nodes = (
(640,0,l),
(640,147,l),
(229,147,l),
(229,286,l),
(620,286,l),
(620,432,l),
(229,432,l),
(229,553,l),
(630,553,l),
(630,700,l),
(48,700,l),
(48,0,l)
);
}
);
width = 677.85;
}
);
note = E;
unicode = 69;
},
{
glyphname = Schwa;
kernLeft = C;
kernRight = O;
lastChange = "2023-09-13 03:41:10 +0000";
layers = (
{
layerId = "F5467FAD-1970-4982-B3D3-939C01050498";
shapes = (
{
closed = 1;
nodes = (
(666,347,l),
(33,347,l),
(31,328,o),
(30,309,o),
(30,291,cs),
(30,112,o),
(149,-5,o),
(344,-5,cs),
(536,-5,o),
(698,120,o),
(698,341,cs),
(698,588,o),
(528,704,o),
(335,704,cs),
(196,704,o),
(80,659,o),
(32,580,c),
(64,560,l),
(116,630,o),
(180,673,o),
(335,673,cs),
(505,673,o),
(660,571,o),
(657,334,cs),
(655,147,o),
(537,26,o),
(344,26,cs),
(171,26,o),
(61,140,o),
(77,308,c),
(666,308,l)
);
}
);
width = 728;
},
{
layerId = "6DD95C5A-998B-41AB-BDFB-84A73C209871";
shapes = (
{
closed = 1;
nodes = (
(631,403,l),
(70,397,l),
(62,360,o),
(58,326,o),
(58,293,cs),
(58,110,o),
(190,-5,o),
(402,-5,cs),
(612,-5,o),
(759,128,o),
(759,342,cs),
(759,582,o),
(607,705,o),
(389,705,cs),
(236,705,o),
(98,641,o),
(50,515,c),
(168,447,l),
(199,529,o),
(261,589,o),
(369,589,cs),
(533,589,o),
(605,503,o),
(605,343,cs),
(605,173,o),
(496,110,o),
(397,110,cs),
(286,110,o),
(219,151,o),
(231,261,c),
(622,261,l)
);
}
);
width = 809;
},
{
layerId = "1FDC7037-1F88-4969-8535-0F79C1EF19DB";
shapes = (
{
closed = 1;
nodes = (
(673,338,l),
(28,339,l),
(27,323,o),
(27,306,o),
(27,291,cs),
(27,112,o),
(143,-5,o),
(336,-5,cs),
(525,-5,o),
(689,119,o),
(689,341,cs),
(689,589,o),
(516,704,o),
(327,704,cs),
(191,704,o),
(78,662,o),
(30,590,c),
(48,578,l),
(104,646,o),
(168,686,o),
(331,686,cs),
(502,686,o),
(670,582,o),
(666,333,cs),
(664,143,o),
(545,13,o),
(337,13,cs),
(154,13,o),
(37,138,o),
(53,316,c),
(674,316,l)
);
}
);
width = 716;
},
{
layerId = "3ED9E848-BE83-4CAC-8EFF-D71BD2B4F667";
shapes = (
{
closed = 1;
nodes = (
(623,417,l),
(80,409,l),
(71,368,o),
(66,330,o),
(66,293,cs),
(66,110,o),
(201,-5,o),
(417,-5,cs),
(632,-5,o),
(775,130,o),
(775,342,cs),
(775,581,o),
(627,705,o),
(403,705,cs),
(247,705,o),
(103,637,o),
(55,499,c),
(195,419,l),
(220,504,o),
(282,568,o),
(378,568,cs),
(541,568,o),
(592,486,o),
(593,345,cs),
(594,179,o),
(487,131,o),
(411,131,cs),
(315,131,o),
(259,154,o),
(270,249,c),
(612,249,l)
);
}
);
width = 830;
}
);
metricLeft = O;
metricRight = O;
unicode = 399;
},
{
glyphname = F;
kernLeft = B;
kernRight = F;
lastChange = "2023-09-13 03:40:42 +0000";
layers = (
{
layerId = "F5467FAD-1970-4982-B3D3-939C01050498";
shapes = (
{
closed = 1;
nodes = (
(101,0,l),
(101,338,l),
(564,338,l),
(564,370,l),
(101,370,l),
(101,669,l),
(575,669,l),
(575,700,l),
(59,700,l),
(59,0,l)
);
}
);
width = 610;
},
{
layerId = "6DD95C5A-998B-41AB-BDFB-84A73C209871";
shapes = (
{
closed = 1;
nodes = (
(214,0,l),
(214,296,l),
(619,296,l),
(619,420,l),
(214,420,l),
(214,576,l),
(629,576,l),
(629,700,l),
(60,700,l),
(60,0,l)
);
}
);
width = 669;
},
{
layerId = "1FDC7037-1F88-4969-8535-0F79C1EF19DB";
shapes = (
{
closed = 1;
nodes = (
(83,0,l),
(83,345,l),
(555,345,l),
(555,362,l),
(83,362,l),
(83,684,l),
(566,684,l),
(566,700,l),
(59,700,l),
(59,0,l)
);
}
);
width = 600.56;
},
{
layerId = "3ED9E848-BE83-4CAC-8EFF-D71BD2B4F667";
shapes = (
{
closed = 1;
nodes = (
(242,0,l),
(242,286,l),
(633,286,l),
(633,432,l),
(242,432,l),
(242,553,l),
(642,553,l),
(642,700,l),
(60,700,l),
(60,0,l)
);
}
);
width = 683.50417;
}
);
note = F;
unicode = 70;
},
{
glyphname = G;
kernLeft = C;
kernRight = G;
lastChange = "2023-09-13 03:40:42 +0000";
layers = (
{
anchors = (
{
name = bottom;
pos = (384,0);
},
{
name = top;
pos = (384,700);
}
);
layerId = "F5467FAD-1970-4982-B3D3-939C01050498";
shapes = (
{
closed = 1;
nodes = (
(549.52,-5.03,o),
(641.14,97.66,o),
(661,247.9,c),
(661,0,l),
(692,0,l),
(692,370,l),
(407,370,l),
(407,339,l),
(650,339,l),
(650,296,ls),
(650,190,o),
(578,26,o),
(383,26,cs),
(212,26,o),
(86,166,o),
(86,348,cs),
(86,534,o),
(213,674,o),
(384,674,cs),
(472,674,o),
(554,634,o),
(608,567,c),
(649,588,l),
(588,662,o),
(499,705,o),
(384,705,cs),
(173,705,o),
(32,546,o),
(32,348,cs),
(32,148.51,o),
(175.12,-5.03,o),
(383.33,-5.03,cs)
);
}
);
width = 737;
},
{
anchors = (
{
name = bottom;
pos = (415,0);
},
{
name = top;
pos = (416,700);
}
);
layerId = "6DD95C5A-998B-41AB-BDFB-84A73C209871";
shapes = (
{
closed = 1;
nodes = (
(532,-5,o),
(602,76,o),
(602,163,c),
(602,0,l),
(746,0,l),
(746,411,l),
(380,411,l),
(380,296,l),
(593,296,l),
(593,293,ls),
(593,198,o),
(546,110,o),
(416,110,cs),
(287,110,o),
(213,205,o),
(213,348,cs),
(213,492,o),
(302,590,o),
(416,590,cs),
(491,590,o),
(547,556,o),
(589,477,c),
(724,545,l),
(669,637,o),
(558,705,o),
(416,705,cs),
(197,705,o),
(50,538,o),
(50,348,cs),
(50,160,o),
(177,-5,o),
(411,-5,cs)
);
}
);
width = 806;
},
{
anchors = (
{
name = bottom;
pos = (379,0);
},
{
name = top;
pos = (379,700);
}
);
layerId = "1FDC7037-1F88-4969-8535-0F79C1EF19DB";
shapes = (
{
closed = 1;
nodes = (
(552,-5,o),
(647,101,o),
(670,261,c),
(670,0,l),
(683,0,l),
(683,363,l),
(411,363,l),
(411,346,l),
(659,346,l),
(659,296,ls),
(659,189,o),
(583,13,o),
(378,13,cs),
(200,13,o),
(66,160,o),
(66,348,cs),
(66,541,o),
(199,687,o),
(379,687,cs),
(469,687,o),
(555,646,o),
(611,581,c),
(637,595,l),
(575,666,o),
(490,705,o),
(379,705,cs),
(169,705,o),
(29,547,o),
(29,348,cs),
(29,147,o),
(175,-5,o),
(379,-5,cs)
);
}
);
width = 725.96;
},
{
anchors = (
{
name = bottom;
pos = (423,0);
},
{
name = top;
pos = (424,700);
}
);
layerId = "3ED9E848-BE83-4CAC-8EFF-D71BD2B4F667";
shapes = (
{
closed = 1;
nodes = (
(528,-5,o),
(592,71,o),
(588,142,c),
(588,0,l),
(759,0,l),
(759,421,l),
(373,421,l),
(373,285,l),
(579,285,l),
(579,292,ls),
(579,200,o),
(538,131,o),
(424,131,cs),
(305,131,o),
(244,215,o),
(244,348,cs),
(244,482,o),
(324,569,o),
(424,569,cs),
(496,569,o),
(545,537,o),
(584,455,c),
(742,534,l),
(689,631,o),
(572,705,o),
(424,705,cs),
(203,705,o),
(54,536,o),
(54,348,cs),
(54,163,o),
(177,-5,o),
(418,-5,cs)
);
}
);
width = 822.9625;
}
);
note = G;
unicode = 71;
},
{
glyphname = H;
kernLeft = B;
kernRight = H;
lastChange = "2023-09-13 03:40:42 +0000";
layers = (
{
anchors = (
{
name = bottom;
pos = (351,0);
},
{
name = top;
pos = (351,700);
}
);
layerId = "F5467FAD-1970-4982-B3D3-939C01050498";
shapes = (
{
closed = 1;
nodes = (
(98,0,l),
(98,348,l),
(603,348,l),
(603,0,l),
(645,0,l),
(645,700,l),
(603,700,l),
(603,390,l),
(98,390,l),
(98,700,l),
(56,700,l),
(56,0,l)
);
}
);
width = 701;
},
{
anchors = (
{
name = bottom;
pos = (367,0);
},
{
name = top;
pos = (367,700);
}
);
layerId = "6DD95C5A-998B-41AB-BDFB-84A73C209871";
shapes = (
{
closed = 1;
nodes = (
(204,0,l),
(204,304,l),
(529,304,l),
(529,0,l),
(683,0,l),
(683,700,l),
(529,700,l),
(529,429,l),
(204,429,l),
(204,700,l),
(50,700,l),
(50,0,l)
);
}
);
width = 733;
},
{
anchors = (
{
name = bottom;
pos = (348,0);
},
{
name = top;
pos = (348,700);
}
);
layerId = "1FDC7037-1F88-4969-8535-0F79C1EF19DB";
shapes = (
{
closed = 1;
nodes = (
(81,0,l),
(81,355,l),
(615,355,l),
(615,0,l),
(639,0,l),
(639,700,l),
(615,700,l),
(615,384,l),
(81,384,l),
(81,700,l),
(57,700,l),
(57,0,l)
);
}
);
width = 695.88;
},
{
anchors = (
{
name = bottom;
pos = (371,0);
},
{
name = top;
pos = (371,700);
}
);
layerId = "3ED9E848-BE83-4CAC-8EFF-D71BD2B4F667";
shapes = (
{
closed = 1;
nodes = (
(230,0,l),
(230,293,l),
(511,293,l),
(511,0,l),
(692,0,l),
(692,700,l),
(511,700,l),
(511,439,l),
(230,439,l),
(230,700,l),
(49,700,l),
(49,0,l)
);
}
);
width = 740.86667;
}
);
note = H;
unicode = 72;
},
{
glyphname = Hbar;
lastChange = "2023-09-13 03:40:42 +0000";
layers = (
{
layerId = "F5467FAD-1970-4982-B3D3-939C01050498";
shapes = (
{
closed = 1;
nodes = (
(759,547,l),
(20,547,l),
(20,505,l),
(759,505,l)
);
},
{
pos = (39,0);
ref = H;
}
);
width = 779;
},
{
layerId = "6DD95C5A-998B-41AB-BDFB-84A73C209871";
shapes = (
{
closed = 1;
nodes = (
(803,609,l),
(20,609,l),
(20,484,l),
(803,484,l)
);
},
{
pos = (45,0);
ref = H;
}
);
width = 823;
},
{
layerId = "1FDC7037-1F88-4969-8535-0F79C1EF19DB";
shapes = (
{
closed = 1;
nodes = (
(752,537,l),
(20,537,l),
(20,508,l),
(752,508,l)
);
},
{
alignment = -1;
pos = (38,0);
ref = H;
}
);
width = 771.96;
},
{
layerId = "3ED9E848-BE83-4CAC-8EFF-D71BD2B4F667";
shapes = (
{
closed = 1;
nodes = (
(814,624,l),
(20,624,l),
(20,479,l),
(814,479,l)
);
},
{
alignment = -1;
pos = (46,0);
ref = H;
}
);
width = 833.81667;
}
);
unicode = 294;
},
{
glyphname = I;
kernLeft = I;
kernRight = I;
lastChange = "2023-09-13 03:40:42 +0000";
layers = (
{
anchors = (
{
name = bottom;
pos = (103,0);
},
{
name = ogonek;
pos = (83,0);
},
{
name = top;
pos = (103,700);
}
);
layerId = "F5467FAD-1970-4982-B3D3-939C01050498";
shapes = (
{
closed = 1;
nodes = (
(125,0,l),
(125,700,l),
(83,700,l),
(83,0,l)
);
}
);
width = 208;
},
{
anchors = (
{
name = bottom;
pos = (147,0);
},
{
name = ogonek;
pos = (70,0);
},
{
name = top;
pos = (147,700);
}
);
layerId = "6DD95C5A-998B-41AB-BDFB-84A73C209871";
shapes = (
{
closed = 1;
nodes = (
(224,0,l),
(224,700,l),
(70,700,l),
(70,0,l)
);
}
);
width = 294;
},
{
anchors = (
{
name = bottom;
pos = (96,0);
},
{
name = ogonek;
pos = (85,0);
},
{
name = top;
pos = (96,700);
}
);
layerId = "1FDC7037-1F88-4969-8535-0F79C1EF19DB";
shapes = (
{
closed = 1;
nodes = (
(109,0,l),
(109,700,l),
(85,700,l),
(85,0,l)
);
}
);
width = 194.24;
},
{
anchors = (
{
name = bottom;
pos = (158,0);
},
{
name = ogonek;
pos = (67,0);
},
{
name = top;
pos = (158,700);
}
);
layerId = "3ED9E848-BE83-4CAC-8EFF-D71BD2B4F667";
shapes = (
{
closed = 1;
nodes = (
(248,0,l),
(248,700,l),
(67,700,l),
(67,0,l)
);
}
);
width = 315.14167;
}
);
note = I;
unicode = 73;
},
{
glyphname = Iacute;
kernLeft = I;
kernRight = I;
lastChange = "2023-09-13 03:40:42 +0000";
layers = (
{
layerId = "F5467FAD-1970-4982-B3D3-939C01050498";
shapes = (
{
closed = 1;
nodes = (
(125,0,l),
(125,700,l),
(83,700,l),
(83,0,l)
);
},
{
closed = 1;
nodes = (
(187,894,l),
(164,933,l),
(44,820,l),
(61,815,l)
);
}
);
width = 208;
},
{
layerId = "6DD95C5A-998B-41AB-BDFB-84A73C209871";
shapes = (
{
closed = 1;
nodes = (
(224,0,l),
(224,700,l),
(70,700,l),
(70,0,l)
);
},
{
closed = 1;
nodes = (
(290,848,l),
(213,976,l),
(0,777,l),
(118,741,l)
);
}
);
width = 294;
},
{
layerId = "1FDC7037-1F88-4969-8535-0F79C1EF19DB";
shapes = (
{
closed = 1;
nodes = (
(109,0,l),
(109,700,l),
(85,700,l),
(85,0,l)
);
},
{
closed = 1;
nodes = (
(171,901,l),
(156,926,l),
(51,827,l),
(52,827,l)
);
}
);
width = 194.24;
},
{
layerId = "3ED9E848-BE83-4CAC-8EFF-D71BD2B4F667";
shapes = (
{
closed = 1;
nodes = (
(248,0,l),
(248,700,l),
(67,700,l),
(67,0,l)
);
},
{
closed = 1;
nodes = (
(315,837,l),
(225,987,l),
(-11,766,l),
(132,723,l)
);
}
);
width = 315.14167;
}
);
note = Iacute;
unicode = 205;
},
{
glyphname = J;
kernLeft = J;
kernRight = J;
lastChange = "2023-09-13 03:40:42 +0000";
layers = (
{
anchors = (
{
name = top;
pos = (465,700);
}
);
layerId = "F5467FAD-1970-4982-B3D3-939C01050498";
shapes = (
{
closed = 1;
nodes = (
(376,-12,o),
(488,59,o),
(488,195,c),
(487,700,l),
(444,700,l),
(444,195,ls),
(444,75,o),
(348,15,o),
(250,15,cs),
(157,15,o),
(110,56,o),
(85,99,c),
(50,76,l),
(84,24,o),
(146,-12,o),
(250,-12,cs)
);
}
);
width = 551;
},
{
anchors = (
{
name = top;
pos = (450,700);
}
);
layerId = "6DD95C5A-998B-41AB-BDFB-84A73C209871";
shapes = (
{
closed = 1;
nodes = (
(421,-12,o),
(537,82,o),
(537,257,cs),
(536,700,l),
(382,700,l),
(382,239,ls),
(382,141,o),
(329,100,o),
(268,100,cs),
(185,100,o),
(173,146,o),
(151,208,c),
(24,120,l),
(52,53,o),
(129,-12,o),
(268,-12,cs)
);
}
);
width = 617;
},
{
anchors = (
{
name = top;
pos = (467,700);
}
);
layerId = "1FDC7037-1F88-4969-8535-0F79C1EF19DB";
shapes = (
{
closed = 1;
nodes = (
(369,-12,o),
(480,55,o),
(480,185,c),
(479,700,l),
(454,700,l),
(454,188,ls),
(454,64,o),
(351,1,o),
(247,1,cs),
(153,1,o),
(100,42,o),
(74,82,c),
(54,69,l),
(89,19,o),
(149,-12,o),
(247,-12,cs)
);
}
);
width = 540.44;
},
{
anchors = (
{
name = top;
pos = (446,700);
}
);
layerId = "3ED9E848-BE83-4CAC-8EFF-D71BD2B4F667";
shapes = (
{
closed = 1;
nodes = (
(432,-12,o),
(549,88,o),
(549,272,c),
(548,700,l),
(367,700,l),
(367,250,ls),
(367,157,o),
(324,121,o),
(272,121,cs),
(192,121,o),
(188,168,o),
(167,235,c),
(18,131,l),
(44,60,o),
(125,-12,o),
(272,-12,cs)
);
}
);
width = 633.225;
}
);
note = J;
unicode = 74;
},
{
glyphname = K;
kernLeft = B;
kernRight = K;
lastChange = "2023-09-13 03:40:42 +0000";
layers = (
{
anchors = (
{
name = bottom;
pos = (279,0);
},
{
name = top;
pos = (279,700);
}
);
layerId = "F5467FAD-1970-4982-B3D3-939C01050498";
shapes = (
{
closed = 1;
nodes = (
(99,0,l),
(99,259.48,l),
(235.26,408.8,l),
(502,0,l),
(552,0,l),
(265,441.38,l),
(501,700,l),
(455,700,l),
(99,310.62,l),
(99,700,l),
(56,700,l),
(56,0,l)
);
}
);
width = 587;
},
{
anchors = (
{
name = bottom;
pos = (349,0);
},
{
name = top;
pos = (349,700);
}
);
layerId = "6DD95C5A-998B-41AB-BDFB-84A73C209871";
shapes = (
{
closed = 1;
nodes = (
(204,0,l),
(204,238,l),
(274,314,l),
(481,0,l),
(654,0,l),
(374,425,l),
(626,700,l),
(449,700,l),
(204,433,l),
(204,700,l),
(50,700,l),
(50,0,l)
);
}
);
width = 679;
},
{
anchors = (
{
name = bottom;
pos = (268,0);
},
{
name = top;
pos = (268,700);
}
);
layerId = "1FDC7037-1F88-4969-8535-0F79C1EF19DB";
shapes = (
{
closed = 1;
nodes = (
(82,0,l),
(82,263,l),
(229,424,l),
(505,0,l),
(536,0,l),
(248,444,l),
(481,700,l),
(456,700,l),
(82,291,l),
(82,700,l),
(57,700,l),
(57,0,l)
);
}
);
width = 572.28;
},
{
anchors = (
{
name = bottom;
pos = (366,0);
},
{
name = top;
pos = (366,700);
}
);
layerId = "3ED9E848-BE83-4CAC-8EFF-D71BD2B4F667";
shapes = (
{
closed = 1;
nodes = (
(230,0,l),
(230,233,l),
(284,291,l),
(476,0,l),
(679,0,l),
(401,421,l),
(657,700,l),
(448,700,l),
(230,463,l),
(230,700,l),
(49,700,l),
(49,0,l)
);
}
);
width = 701.61667;
}
);
note = K;
unicode = 75;
},
{
glyphname = L;
kernLeft = B;
kernRight = L;
lastChange = "2023-09-13 03:40:42 +0000";
layers = (
{
anchors = (
{
name = bottom;
pos = (298,0);
},
{
name = top;
pos = (298,700);
}
);
layerId = "F5467FAD-1970-4982-B3D3-939C01050498";
shapes = (
{
closed = 1;
nodes = (
(535,0,l),
(535,30,l),
(98,30,l),
(98,700,l),
(56,700,l),
(56,0,l)
);
}
);
width = 577;
},
{
anchors = (
{
name = bottom;
pos = (336,0);
},
{
name = top;
pos = (336,700);
}
);
layerId = "6DD95C5A-998B-41AB-BDFB-84A73C209871";
shapes = (
{
closed = 1;
nodes = (
(585,0,l),
(585,124,l),
(203,124,l),
(203,700,l),
(50,700,l),
(50,0,l)
);
}
);
width = 615;
},
{
anchors = (
{
name = bottom;
pos = (292,0);
},
{
name = top;
pos = (292,700);
}
);
layerId = "1FDC7037-1F88-4969-8535-0F79C1EF19DB";
shapes = (
{
closed = 1;
nodes = (
(527,0,l),
(527,15,l),
(81,15,l),
(81,700,l),
(57,700,l),
(57,0,l)
);
}
);
width = 570.92;
},
{
anchors = (
{
name = bottom;
pos = (345,0);
},
{
name = top;
pos = (345,700);
}
);
layerId = "3ED9E848-BE83-4CAC-8EFF-D71BD2B4F667";
shapes = (
{
closed = 1;
nodes = (
(597,0,l),
(597,147,l),
(229,147,l),
(229,700,l),
(49,700,l),
(49,0,l)
);
}
);
width = 624.34167;
}
);
note = L;
unicode = 76;
},
{
glyphname = Lslash;
lastChange = "2023-09-13 03:40:42 +0000";
layers = (
{
layerId = "F5467FAD-1970-4982-B3D3-939C01050498";
shapes = (
{
closed = 1;
nodes = (
(650,0,l),
(650,30,l),
(213,30,l),
(213,391.5,l),
(344,429,l),
(344,465,l),
(213,427.5,l),
(213,700,l),
(171,700,l),
(171,415.48,l),
(54,382,l),
(54,346,l),
(171,379.48,l),
(171,0,l)
);
}
);
width = 697;
},
{
layerId = "6DD95C5A-998B-41AB-BDFB-84A73C209871";
shapes = (
{
closed = 1;
nodes = (
(700,0,l),
(700,124,l),
(318,124,l),
(318,363.85,l),
(406,389,l),
(404,514,l),
(318,489.36,l),
(318,700,l),
(165,700,l),
(165,445.53,l),
(34,408,l),
(35,283,l),
(165,320.14,l),
(165,0,l)
);
}
);
width = 697;
},
{
layerId = "1FDC7037-1F88-4969-8535-0F79C1EF19DB";
shapes = (
{
closed = 1;
nodes = (
(642,0,l),
(642,15,l),
(196,15,l),
(196,396,l),
(334,435,l),
(334,457,l),
(196,418,l),
(196,700,l),
(172,700,l),
(172,411,l),
(57,378,l),
(57,356,l),
(172,389,l),
(172,0,l)
);
}
);
width = 697;
},
{
layerId = "3ED9E848-BE83-4CAC-8EFF-D71BD2B4F667";
shapes = (
{
closed = 1;
nodes = (
(712,0,l),
(712,147,l),
(344,147,l),
(344,357,l),
(421,379,l),
(419,526,l),
(344,505,l),
(344,700,l),
(164,700,l),
(164,453,l),
(29,414,l),
(30,268,l),
(164,306,l),
(164,0,l)
);
}
);
width = 697;
}
);
note = Lslash;
unicode = 321;
},
{
glyphname = M;
kernLeft = B;
kernRight = H;
lastChange = "2023-09-13 03:40:42 +0000";
layers = (
{
anchors = (
{
name = bottom;
pos = (397,0);
},
{
name = top;
pos = (397,700);
}
);
layerId = "F5467FAD-1970-4982-B3D3-939C01050498";
shapes = (
{
closed = 1;
nodes = (
(98,0,l),
(98,616.91,l),
(371,0,l),
(423,0,l),
(695,616.65,l),
(695,0,l),
(737,0,l),
(737,700,l),
(680,700,l),
(396.94,41.72,l),
(112,700,l),
(56,700,l),
(56,0,l)
);
}
);
width = 793;
},
{
anchors = (
{
name = bottom;
pos = (467,0);
},
{
name = top;
pos = (467,700);
}
);
layerId = "6DD95C5A-998B-41AB-BDFB-84A73C209871";
shapes = (
{
closed = 1;
nodes = (
(204,0,l),
(204,407,l),
(385,0,l),
(549,0,l),
(730,409,l),
(730,0,l),
(884,0,l),
(884,700,l),
(691,701,l),
(467,181,l),
(243,701,l),
(50,700,l),
(50,0,l)
);
}
);
width = 934;
},
{
anchors = (
{
name = bottom;
pos = (386,0);
},
{
name = top;
pos = (386,700);
}
);
layerId = "1FDC7037-1F88-4969-8535-0F79C1EF19DB";
shapes = (
{
closed = 1;
nodes = (
(81,0,l),
(81,650,l),
(369,0,l),
(403,0,l),
(689,650,l),
(689,0,l),
(713,0,l),
(713,700,l),
(678,700,l),
(386,19,l),
(91,700,l),
(57,700,l),
(57,0,l)
);
}
);
width = 770.44;
},
{
anchors = (
{
name = bottom;
pos = (484,0);
},
{
name = top;
pos = (484,700);
}
);
layerId = "3ED9E848-BE83-4CAC-8EFF-D71BD2B4F667";
shapes = (
{
closed = 1;
nodes = (
(230,0,l),
(230,355,l),
(388,0,l),
(580,0,l),
(739,358,l),
(739,0,l),
(920,0,l),
(920,700,l),
(694,701,l),
(484,215,l),
(275,701,l),
(49,700,l),
(49,0,l)
);
}
);
width = 968.6625;
}
);
note = M;
unicode = 77;
},
{
glyphname = N;
kernLeft = B;
kernRight = H;
lastChange = "2023-09-13 03:40:42 +0000";
layers = (
{
anchors = (
{
name = bottom;
pos = (300,0);
},
{
name = top;
pos = (300,700);
}
);
layerId = "F5467FAD-1970-4982-B3D3-939C01050498";
shapes = (
{
closed = 1;
nodes = (
(99,0,l),
(99,624.4,l),
(498,0,l),
(543,0,l),
(543,700,l),
(500,700,l),
(500,69.84,l),
(100,700,l),
(56,700,l),
(56,0,l)
);
}
);
width = 599;
},
{
anchors = (
{
name = bottom;
pos = (340,0);
},
{
name = top;
pos = (340,700);
}
);
layerId = "6DD95C5A-998B-41AB-BDFB-84A73C209871";
shapes = (
{
closed = 1;
nodes = (
(204,0,l),
(204,436,l),
(477,0,l),
(629,0,l),
(629,700,l),
(475,700,l),
(475,272,l),
(204,700,l),
(50,700,l),
(50,0,l)
);
}
);
width = 679;
},
{
anchors = (
{
name = bottom;
pos = (294,0);
},
{
name = top;
pos = (294,700);
}
);
layerId = "1FDC7037-1F88-4969-8535-0F79C1EF19DB";
shapes = (
{
closed = 1;
nodes = (
(82,0,l),
(82,655,l),
(501,0,l),
(529,0,l),
(529,700,l),
(504,700,l),
(504,37,l),
(83,700,l),
(57,700,l),
(57,0,l)
);
}
);
width = 586.2;
},
{
anchors = (
{
name = bottom;
pos = (350,0);
},
{
name = top;
pos = (350,700);
}
);
layerId = "3ED9E848-BE83-4CAC-8EFF-D71BD2B4F667";
shapes = (
{
closed = 1;
nodes = (
(230,0,l),
(230,390,l),
(472,0,l),
(650,0,l),
(650,700,l),
(469,700,l),
(469,322,l),
(230,700,l),
(49,700,l),
(49,0,l)
);
}
);
width = 698.66667;
}
);
note = N;
unicode = 78;
},
{
glyphname = Nhookleft;
lastChange = "2023-09-13 03:40:42 +0000";
layers = (
{
layerId = "F5467FAD-1970-4982-B3D3-939C01050498";
shapes = (
{
closed = 1;
nodes = (
(56,0,l),
(56,-125,ls),
(56,-159,o),
(41,-166,o),
(25,-166,cs),
(3,-166,o),
(-25,-157,o),
(-51,-135,c),
(-55,-169,l),
(-40,-185,o),
(-8,-203,o),
(25,-203,cs),
(84,-203,o),
(99,-159,o),
(99,-125,cs),
(99,0,l)
);
},
{
ref = N;
}
);
width = 600;
},
{
layerId = "6DD95C5A-998B-41AB-BDFB-84A73C209871";
shapes = (
{
closed = 1;
nodes = (
(50,0,l),
(50,-65,ls),
(50,-99,o),
(36,-106,o),
(20,-106,cs),
(-2,-106,o),
(-30,-97,o),
(-56,-75,c),
(-56,-169,l),
(-31,-185,o),
(4,-203,o),
(58,-203,cs),
(131,-203,o),
(204,-159,o),
(204,-65,cs),
(204,0,l)
);
},
{
ref = N;
}
);
width = 679;
},
{
layerId = "1FDC7037-1F88-4969-8535-0F79C1EF19DB";
shapes = (
{
closed = 1;
nodes = (
(57,0,l),
(57,-135,ls),
(57,-169,o),
(42,-176,o),
(26,-176,cs),
(4,-176,o),
(-24,-167,o),
(-50,-145,c),
(-55,-169,l),
(-41,-185,o),
(-10,-203,o),
(20,-203,cs),
(76,-203,o),
(82,-159,o),
(82,-135,cs),
(82,0,l)
);
},
{
alignment = -1;
ref = N;
}
);
width = 587.36;
},
{
layerId = "3ED9E848-BE83-4CAC-8EFF-D71BD2B4F667";
shapes = (
{
closed = 1;
nodes = (
(49,0,l),
(49,-50,ls),
(49,-84,o),
(35,-91,o),
(19,-91,cs),
(-3,-91,o),
(-31,-82,o),
(-57,-60,c),
(-56,-169,l),
(-29,-185,o),
(7,-203,o),
(66,-203,cs),
(143,-203,o),
(230,-159,o),
(230,-50,cs),
(230,0,l)
);
},
{
alignment = -1;
ref = N;
}
);
width = 698.42083;
}
);
unicode = 413;
},
{
glyphname = Eng;
lastChange = "2023-09-13 03:40:42 +0000";
layers = (
{
layerId = "F5467FAD-1970-4982-B3D3-939C01050498";
shapes = (
{
closed = 1;
nodes = (
(498,0,l),
(498,-125,ls),
(498,-152,o),
(487,-166,o),
(452,-166,cs),
(430,-166,o),
(409,-157,o),
(383,-135,c),
(379,-169,l),
(398,-185,o),
(426,-203,o),
(459,-203,cs),
(518,-203,o),
(543,-169,o),
(543,-125,cs),
(543,0,l)
);
},
{
ref = N;
}
);
width = 599;
},
{
layerId = "6DD95C5A-998B-41AB-BDFB-84A73C209871";
shapes = (
{
closed = 1;
nodes = (
(477,0,l),
(477,-65,ls),
(477,-99,o),
(461,-106,o),
(445,-106,cs),
(423,-106,o),
(395,-97,o),
(369,-75,c),
(369,-169,l),
(394,-185,o),
(429,-203,o),
(483,-203,cs),
(556,-203,o),
(629,-159,o),
(629,-65,cs),
(629,0,l)
);
},
{
ref = N;
}
);
width = 679;
},
{
layerId = "1FDC7037-1F88-4969-8535-0F79C1EF19DB";
shapes = (
{
closed = 1;
nodes = (
(501,0,l),
(501,-135,ls),
(501,-160,o),
(491,-176,o),
(453,-176,cs),
(431,-176,o),
(411,-167,o),
(385,-145,c),
(381,-169,l),
(399,-185,o),
(426,-203,o),
(455,-203,cs),
(512,-203,o),
(529,-171,o),
(529,-135,cs),
(529,0,l)
);
},
{
alignment = -1;
ref = N;
}
);
width = 586.2;
},
{
layerId = "3ED9E848-BE83-4CAC-8EFF-D71BD2B4F667";
shapes = (
{
closed = 1;
nodes = (
(472,0,l),
(472,-50,ls),
(472,-86,o),
(455,-91,o),
(443,-91,cs),
(421,-91,o),
(392,-82,o),
(366,-60,c),
(367,-169,l),
(393,-185,o),
(430,-203,o),
(489,-203,cs),
(565,-203,o),
(650,-156,o),
(650,-50,cs),
(650,0,l)
);
},
{
alignment = -1;
ref = N;
}
);
width = 698.66667;
}
);
unicode = 330;
},
{
glyphname = O;
kernLeft = C;
kernRight = O;
lastChange = "2023-09-13 03:40:42 +0000";
layers = (
{
anchors = (
{
name = bottom;
pos = (414,0);
},
{
name = ogonek;
pos = (380,0);
},
{
name = top;
pos = (414,700);
}
);
layerId = "F5467FAD-1970-4982-B3D3-939C01050498";
shapes = (
{
closed = 1;
nodes = (
(590,-5,o),
(728,151,o),
(728,348,cs),
(728,546,o),
(590,705,o),
(379,705,cs),
(168,705,o),
(30,546,o),
(30,348,cs),
(30,152,o),
(169,-5,o),
(379,-5,cs)
);
},
{
closed = 1;
nodes = (
(195,26,o),
(73,164,o),
(73,348,cs),
(73,533,o),
(196,674,o),
(379,674,cs),
(563,674,o),
(685,533,o),
(685,348,cs),
(685,164,o),
(563,26,o),
(379,26,cs)
);
}
);
width = 758;
},
{
anchors = (
{
name = bottom;
pos = (414,0);
},
{
name = ogonek;
pos = (380,0);
},
{
name = top;
pos = (414,700);
}
);
layerId = "6DD95C5A-998B-41AB-BDFB-84A73C209871";
shapes = (
{
closed = 1;
nodes = (
(634,-5,o),
(778,160,o),
(778,348,cs),
(778,538,o),
(634,705,o),
(414,705,cs),
(194,705,o),
(50,538,o),
(50,348,cs),
(50,160,o),
(195,-5,o),
(414,-5,cs)
);
},
{
closed = 1;
nodes = (
(289,110,o),
(204,206,o),
(204,348,cs),
(204,492,o),
(290,590,o),
(414,590,cs),
(539,590,o),
(624,492,o),
(624,348,cs),
(624,206,o),
(539,110,o),
(414,110,cs)
);
}
);
width = 828;
},
{
anchors = (
{
name = bottom;
pos = (414,0);
},
{
name = ogonek;
pos = (380,0);
},
{
name = top;
pos = (414,700);
}
);
layerId = "1FDC7037-1F88-4969-8535-0F79C1EF19DB";
shapes = (
{
closed = 1;
nodes = (
(583,-5,o),
(720,150,o),
(720,348,cs),
(720,547,o),
(583,705,o),
(373,705,cs),
(164,705,o),
(27,547,o),
(27,348,cs),
(27,151,o),
(165,-5,o),
(373,-5,cs)
);
},
{
closed = 1;
nodes = (
(180,13,o),
(52,157,o),
(52,348,cs),
(52,540,o),
(181,687,o),
(373,687,cs),
(567,687,o),
(695,540,o),
(695,348,cs),
(695,157,o),
(567,13,o),
(373,13,cs)
);
}
);
width = 746.8;
},
{
anchors = (
{
name = bottom;
pos = (414,0);
},
{
name = ogonek;
pos = (380,0);
},
{
name = top;
pos = (414,700);
}
);
layerId = "3ED9E848-BE83-4CAC-8EFF-D71BD2B4F667";
shapes = (
{
closed = 1;
nodes = (
(645,-5,o),
(790,162,o),
(790,348,cs),
(790,536,o),
(645,705,o),
(423,705,cs),
(200,705,o),
(55,536,o),
(55,348,cs),
(55,162,o),
(201,-5,o),
(423,-5,cs)
);
},
{
closed = 1;
nodes = (
(312,131,o),
(236,216,o),
(236,348,cs),
(236,482,o),
(313,569,o),
(423,569,cs),
(533,569,o),
(609,482,o),
(609,348,cs),
(609,216,o),
(533,131,o),
(423,131,cs)
);
}
);
width = 845.20833;
}
);
note = O;
unicode = 79;
},
{
glyphname = Oslash;
kernLeft = C;
kernRight = O;
lastChange = "2023-09-13 03:40:42 +0000";
layers = (
{
layerId = "F5467FAD-1970-4982-B3D3-939C01050498";
shapes = (
{
closed = 1;
nodes = (
(235,-74,l),
(270,-74,l),
(524,785,l),
(489,785,l)
);
},
{
ref = O;
}
);
width = 758;
},
{
layerId = "6DD95C5A-998B-41AB-BDFB-84A73C209871";
shapes = (
{
closed = 1;
nodes = (
(230,-64,l),
(350,-64,l),
(599,775,l),
(479,775,l)
);
},
{
ref = O;
}
);
width = 828;
},
{
layerId = "1FDC7037-1F88-4969-8535-0F79C1EF19DB";
shapes = (
{
closed = 1;
nodes = (
(236,-76,l),
(257,-76,l),
(512,787,l),
(491,787,l)
);
},
{
alignment = -1;
ref = O;
}
);
width = 746.8;
},
{
layerId = "3ED9E848-BE83-4CAC-8EFF-D71BD2B4F667";
shapes = (
{
closed = 1;
nodes = (
(229,-61,l),
(370,-61,l),
(617,773,l),
(477,773,l)
);
},
{
alignment = -1;
ref = O;
}
);
width = 845.20833;
}
);
note = Oslash;
unicode = 216;
},
{
glyphname = OE;
kernLeft = C;
kernRight = E;
lastChange = "2023-09-13 03:40:42 +0000";
layers = (
{
layerId = "F5467FAD-1970-4982-B3D3-939C01050498";
shapes = (
{
closed = 1;
nodes = (
(447.64,-5,o),
(524.76,24.06,o),
(583,73.49,c),
(583,0,l),
(1110,0,l),
(1110,30,l),
(625,30,l),
(625,338,l),
(1088,338,l),
(1088,370,l),
(625,370,l),
(625,669,l),
(1099,669,l),
(1099,700,l),
(583,700,l),
(583,625.54,l),
(524.76,675.13,o),
(447.64,705,o),
(355.99,705,cs),
(144.99,705,o),
(7.99,546,o),
(7.99,348,cs),
(7.99,152,o),
(145.99,-5,o),
(355.99,-5,cs)
);
},
{
closed = 1;
nodes = (
(172,26,o),
(50,164,o),
(50,348,cs),
(50,533,o),
(173,674,o),
(356,674,cs),
(469.1,674,o),
(542.91,642.63,o),
(583,562.02,c),
(583,139.67,l),
(542.91,59.63,o),
(469.1,26,o),
(356,26,cs)
);
}
);
width = 1157;
},
{
layerId = "6DD95C5A-998B-41AB-BDFB-84A73C209871";
shapes = (
{
closed = 1;
nodes = (
(455.42,-5,o),
(520.87,13.26,o),
(574,42.49,c),
(574,0,l),
(1153,0,l),
(1153,124,l),
(728,124,l),
(728,296,l),
(1133,296,l),
(1133,420,l),
(728,420,l),
(728,576,l),
(1143,576,l),
(1143,700,l),
(574,700,l),
(574,656.84,l),
(520.87,686.37,o),
(455.42,705,o),
(384,705,cs),
(164,705,o),
(20,538,o),
(20,348,cs),
(20,160,o),
(166,-5,o),
(384,-5,cs)
);
},
{
closed = 1;
nodes = (
(259,110,o),
(174,206,o),
(174,348,cs),
(174,492,o),
(260,590,o),
(384,590,cs),
(473.07,590,o),
(541.83,540.24,o),
(574,459.53,c),
(574,238.13,l),
(541.83,158.74,o),
(473.07,109.99,o),
(384,109.99,cs)
);
}
);
width = 1157;
},
{
layerId = "1FDC7037-1F88-4969-8535-0F79C1EF19DB";
shapes = (
{
closed = 1;
nodes = (
(446,-5,o),
(525,26,o),
(584,78,c),
(584,0,l),
(1103,0,l),
(1103,15,l),
(609,15,l),
(609,345,l),
(1081,345,l),
(1081,362,l),
(609,362,l),
(609,684,l),
(1092,684,l),
(1092,700,l),
(584,700,l),
(584,621,l),
(525,673,o),
(446,705,o),
(352,705,cs),
(142,705,o),
(6,547,o),
(6,348,cs),
(6,151,o),
(143,-5,o),
(352,-5,cs)
);
},
{
closed = 1;
nodes = (
(158,13,o),
(30,157,o),
(30,348,cs),
(30,540,o),
(159,687,o),
(352,687,cs),
(468,687,o),
(543,659,o),
(584,578,c),
(584,124,l),
(543,44,o),
(468,13,o),
(352,13,cs)
);
}
);
width = 1157;
},
{
layerId = "3ED9E848-BE83-4CAC-8EFF-D71BD2B4F667";
shapes = (
{
closed = 1;
nodes = (
(457,-5,o),
(520,11,o),
(572,35,c),
(572,0,l),
(1164,0,l),
(1164,147,l),
(753,147,l),
(753,286,l),
(1144,286,l),
(1144,432,l),
(753,432,l),
(753,553,l),
(1154,553,l),
(1154,700,l),
(572,700,l),
(572,664,l),
(520,689,o),
(457,705,o),
(391,705,cs),
(169,705,o),
(23,536,o),
(23,348,cs),
(23,162,o),
(171,-5,o),
(391,-5,cs)
);
},
{
closed = 1;
nodes = (
(280,131,o),
(205,216,o),
(205,348,cs),
(205,482,o),
(281,569,o),
(391,569,cs),
(474,569,o),
(542,515,o),
(572,434,c),
(572,262,l),
(542,183,o),
(474,131,o),
(391,131,cs)
);
}
);
width = 1157;
}
);
note = OE;
unicode = 338;
},
{
glyphname = P;
kernLeft = B;
kernRight = P;
lastChange = "2023-09-13 03:40:42 +0000";
layers = (
{
layerId = "F5467FAD-1970-4982-B3D3-939C01050498";
shapes = (
{
closed = 1;
nodes = (
(92,0,l),
(92,340,l),
(231,340,ls),
(341,340,o),
(439,383,o),
(439,520,cs),
(439,655,o),
(335,700,o),
(237,700,cs),
(50,700,l),
(50,0,l)
);
},
{
closed = 1;
nodes = (
(92,669,l),
(234,669,ls),
(327,669,o),
(397,621,o),
(397,520,cs),
(397,420,o),
(330,368,o),
(231,368,cs),
(92,368,l)
);
}
);
width = 479;
},
{
layerId = "6DD95C5A-998B-41AB-BDFB-84A73C209871";
shapes = (
{
closed = 1;
nodes = (
(204,0,l),
(204,297,l),
(297,297,ls),
(412,297,o),
(539,349,o),
(539,499,cs),
(539,647,o),
(407,700,o),
(303,700,cs),
(50,700,l),
(50,0,l)
);
},
{
closed = 1;
nodes = (
(204,585,l),
(300,585,ls),
(354,585,o),
(395,563,o),
(395,499,cs),
(395,434,o),
(354,409,o),
(297,409,cs),
(204,409,l)
);
}
);
width = 579;
},
{
layerId = "1FDC7037-1F88-4969-8535-0F79C1EF19DB";
shapes = (
{
closed = 1;
nodes = (
(74,0,l),
(74,347,l),
(220,347,ls),
(330,347,o),
(423,388,o),
(423,523,cs),
(423,656,o),
(323,700,o),
(226,700,cs),
(50,700,l),
(50,0,l)
);
},
{
closed = 1;
nodes = (
(74,682,l),
(223,682,ls),
(323,682,o),
(397,630,o),
(397,523,cs),
(397,418,o),
(326,361,o),
(220,361,cs),
(74,361,l)
);
}
);
width = 463;
},
{
layerId = "3ED9E848-BE83-4CAC-8EFF-D71BD2B4F667";
shapes = (
{
closed = 1;
nodes = (
(232,0,l),
(232,286,l),
(313,286,ls),
(429,286,o),
(564,341,o),
(564,494,cs),
(564,645,o),
(425,700,o),
(319,700,cs),
(50,700,l),
(50,0,l)
);
},
{
closed = 1;
nodes = (
(232,564,l),
(316,564,ls),
(361,564,o),
(395,549,o),
(395,494,cs),
(395,437,o),
(360,419,o),
(313,419,cs),
(232,419,l)
);
}
);
width = 603.58333;
}
);
note = P;
unicode = 80;
},
{
glyphname = Thorn;
lastChange = "2023-09-13 03:40:42 +0000";
layers = (
{
layerId = "F5467FAD-1970-4982-B3D3-939C01050498";
shapes = (
{
closed = 1;
nodes = (
(136,0,l),
(136,221,l),
(289,221,ls),
(398,221,o),
(498,268,o),
(498,405,cs),
(498,540,o),
(393,585,o),
(295,585,cs),
(136,585,l),
(136,700,l),
(93,700,l),
(93,0,l)
);
},
{
closed = 1;
nodes = (
(136,554,l),
(292,554,ls),
(385,554,o),
(455,507,o),
(455,405,cs),
(455,306,o),
(388,253,o),
(289,253,cs),
(136,253,l)
);
}
);
width = 531;
},
{
layerId = "6DD95C5A-998B-41AB-BDFB-84A73C209871";
shapes = (
{
closed = 1;
nodes = (
(186,0,l),
(186,193,l),
(288,193,ls),
(403,193,o),
(529,249,o),
(529,399,cs),
(529,546,o),
(397,600,o),
(294,600,cs),
(186,600,l),
(186,700,l),
(32,700,l),
(32,0,l)
);
},
{
closed = 1;
nodes = (
(186,485,l),
(291,485,ls),
(344,485,o),
(375,463,o),
(375,399,cs),
(375,334,o),
(344,309,o),
(288,309,cs),
(186,309,l)
);
}
);
width = 531;
},
{
layerId = "1FDC7037-1F88-4969-8535-0F79C1EF19DB";
shapes = (
{
closed = 1;
nodes = (
(128,0,l),
(128,225,l),
(289,225,ls),
(397,225,o),
(493,271,o),
(493,406,cs),
(493,539,o),
(392,583,o),
(295,583,cs),
(128,583,l),
(128,700,l),
(103,700,l),
(103,0,l)
);
},
{
closed = 1;
nodes = (
(128,565,l),
(292,565,ls),
(392,565,o),
(468,514,o),
(468,406,cs),
(468,302,o),
(395,244,o),
(289,244,cs),
(128,244,l)
);
}
);
width = 531;
},
{
layerId = "3ED9E848-BE83-4CAC-8EFF-D71BD2B4F667";
shapes = (
{
closed = 1;
nodes = (
(198,0,l),
(198,186,l),
(288,186,ls),
(404,186,o),
(537,244,o),
(537,398,cs),
(537,547,o),
(398,604,o),
(294,604,cs),
(198,604,l),
(198,700,l),
(17,700,l),
(17,0,l)
);
},
{
closed = 1;
nodes = (
(198,468,l),
(291,468,ls),
(334,468,o),
(355,452,o),
(355,398,cs),
(355,341,o),
(333,323,o),
(288,323,cs),
(198,323,l)
);
}
);
width = 531;
}
);
note = Thorn;
unicode = 222;
},
{
glyphname = Q;
kernLeft = C;
kernRight = Q;
lastChange = "2023-09-13 03:40:42 +0000";
layers = (
{
layerId = "F5467FAD-1970-4982-B3D3-939C01050498";
shapes = (
{
closed = 1;
nodes = (
(455.31,-5,o),
(529.89,24.05,o),
(586.79,72.92,c),
(665,0,l),
(714,0,l),
(610.32,95.31,l),
(670.91,159.1,o),
(706,248.3,o),
(706,348,cs),
(706,546,o),
(568,705,o),
(369,705,cs),
(169,705,o),
(31,546,o),
(31,348,cs),
(31,152,o),
(170,-5,o),
(369,-5,cs)
);
},
{
closed = 1;
nodes = (
(196,26,o),
(73,164,o),
(73,348,cs),
(73,533,o),
(197,674,o),
(369,674,cs),
(542,674,o),
(664,533,o),
(664,348,cs),
(664,257.24,o),
(634.08,177.67,o),
(583.1,120.33,c),
(429,262,l),
(384,262,l),
(560.4,97.52,l),
(510.11,52.41,o),
(444.24,26,o),
(369,26,cs)
);
}
);
width = 772;
},
{
layerId = "6DD95C5A-998B-41AB-BDFB-84A73C209871";
shapes = (
{
closed = 1;
nodes = (
(474,-5,o),
(536,13,o),
(588,44,c),
(636,0,l),
(829,0,l),
(686,132,l),
(732,192,o),
(758,268,o),
(758,348,cs),
(758,538,o),
(614,705,o),
(404,705,cs),
(194,705,o),
(50,538,o),
(50,348,cs),
(50,160,o),
(195,-5,o),
(404,-5,cs)
);
},
{
closed = 1;
nodes = (
(289,110,o),
(204,206,o),
(204,348,cs),
(204,492,o),
(290,590,o),
(404,590,cs),
(519,590,o),
(604,492,o),
(604,348,cs),
(604,303,o),
(595,263,o),
(580,229,c),
(484,317,l),
(296,317,l),
(494,132,l),
(467,118,o),
(437,110,o),
(404,110,cs)
);
}
);
width = 836;
},
{
layerId = "1FDC7037-1F88-4969-8535-0F79C1EF19DB";
shapes = (
{
closed = 1;
nodes = (
(452,-5,o),
(529,26,o),
(587,78,c),
(670,0,l),
(696,0,l),
(598,89,l),
(661,154,o),
(698,245,o),
(698,348,cs),
(698,547,o),
(561,705,o),
(363,705,cs),
(165,705,o),
(28,547,o),
(28,348,cs),
(28,151,o),
(166,-5,o),
(363,-5,cs)
);
},
{
closed = 1;
nodes = (
(181,13,o),
(52,157,o),
(52,348,cs),
(52,540,o),
(182,687,o),
(363,687,cs),
(546,687,o),
(674,540,o),
(674,348,cs),
(674,250,o),
(640,164,o),
(584,103,c),
(420,253,l),
(398,253,l),
(571,92,l),
(517,42,o),
(445,13,o),
(363,13,cs)
);
}
);
width = 761.76;
},
{
layerId = "3ED9E848-BE83-4CAC-8EFF-D71BD2B4F667";
shapes = (
{
closed = 1;
nodes = (
(479,-5,o),
(537,10,o),
(588,37,c),
(629,0,l),
(857,0,l),
(705,141,l),
(747,200,o),
(771,273,o),
(771,348,cs),
(771,536,o),
(625,705,o),
(413,705,cs),
(200,705,o),
(55,536,o),
(55,348,cs),
(55,162,o),
(201,-5,o),
(413,-5,cs)
);
},
{
closed = 1;
nodes = (
(312,131,o),
(236,216,o),
(236,348,cs),
(236,482,o),
(313,569,o),
(413,569,cs),
(513,569,o),
(589,482,o),
(589,348,cs),
(589,314,o),
(585,284,o),
(579,256,c),
(498,331,l),
(274,331,l),
(478,140,l),
(456,134,o),
(435,131,o),
(413,131,cs)
);
}
);
width = 851.73333;
}
);
note = Q;
unicode = 81;
},
{
glyphname = R;
kernLeft = B;
kernRight = R;
lastChange = "2023-09-13 03:40:42 +0000";
layers = (
{
anchors = (
{
name = bottom;
pos = (278,0);
},
{
name = top;
pos = (248,700);
}
);
layerId = "F5467FAD-1970-4982-B3D3-939C01050498";
shapes = (
{
closed = 1;
nodes = (
(99,0,l),
(99,389.07,l),
(233,390,ls),
(240,390,o),
(245.98,390.12,o),
(252.35,390.37,c),
(510,0,l),
(560,0,l),
(300.64,395.34,l),
(378.69,409.17,o),
(435,452.31,o),
(435,553,cs),
(435,665,o),
(350,700,o),
(241,700,cs),
(56,700,l),
(56,0,l)
);
},
{
closed = 1;
nodes = (
(98.99,669,l),
(240.99,669,l),
(336.99,669,o),
(392.99,620,o),
(392.99,542,cs),
(392.99,465,o),
(338.99,412,o),
(236.99,412,cs),
(98.99,412,l)
);
}
);
width = 570;
},
{
anchors = (
{
name = bottom;
pos = (361,0);
},
{
name = top;
pos = (308,700);
}
);
layerId = "6DD95C5A-998B-41AB-BDFB-84A73C209871";
shapes = (
{
closed = 1;
nodes = (
(204,0,l),
(204,316,l),
(290,316,ls),
(292.92,316,o),
(295.85,316.03,o),
(298.77,316.09,c),
(499,0,l),
(672,0,l),
(448.39,352.46,l),
(501.94,382.52,o),
(539,432.61,o),
(539,508,cs),
(539,647,o),
(413,700,o),
(290,700,cs),
(50,700,l),
(50,0,l)
);
},
{
closed = 1;
nodes = (
(204,585,l),
(290,585,ls),
(352,585,o),
(385,564,o),
(385,508,cs),
(385,452,o),
(352,431,o),
(290,431,cs),
(204,431,l)
);
}
);
width = 682;
},
{
anchors = (
{
name = bottom;
pos = (265,0);
},
{
name = top;
pos = (238,700);
}
);
layerId = "1FDC7037-1F88-4969-8535-0F79C1EF19DB";
shapes = (
{
closed = 1;
nodes = (
(82,0,l),
(82,401,l),
(224,402,ls),
(232,402,o),
(238,402,o),
(245,402,c),
(512,0,l),
(542,0,l),
(277,402,l),
(359,413,o),
(418,455,o),
(418,560,cs),
(418,668,o),
(340,700,o),
(233,700,cs),
(57,700,l),
(57,0,l)
);
},
{
closed = 1;
nodes = (
(82,682,l),
(233,682,l),
(335,682,o),
(394,629,o),
(394,547,cs),
(394,467,o),
(337,409,o),
(229,409,cs),
(82,409,l)
);
}
);
width = 552.08;
},
{
anchors = (
{
name = bottom;
pos = (381,0);
},
{
name = top;
pos = (323,700);
}
);
layerId = "3ED9E848-BE83-4CAC-8EFF-D71BD2B4F667";
shapes = (
{
closed = 1;
nodes = (
(230,0,l),
(230,298,l),
(304,298,ls),
(306,298,o),
(308,298,o),
(310,298,c),
(496,0,l),
(700,0,l),
(485,342,l),
(532,376,o),
(565,428,o),
(565,497,cs),
(565,643,o),
(428,700,o),
(302,700,cs),
(49,700,l),
(49,0,l)
);
},
{
closed = 1;
nodes = (
(230,564,l),
(302,564,l),
(356,564,o),
(383,550,o),
(383,500,cs),
(383,449,o),
(355,436,o),
(303,436,cs),
(230,436,l)
);
}
);
width = 709.53333;
}
);
note = R;
unicode = 82;
},
{
glyphname = S;
kernLeft = S;
kernRight = S;
lastChange = "2023-09-13 03:40:42 +0000";
layers = (
{
anchors = (
{
name = bottom;
pos = (305,0);
},
{
name = top;
pos = (306,700);
}
);
layerId = "F5467FAD-1970-4982-B3D3-939C01050498";
shapes = (
{
closed = 1;
nodes = (
(476,-7,o),
(549,73,o),
(549,180,cs),
(549,301,o),
(452,332,o),
(303,382,cs),
(159,430,o),
(131,472,o),
(131,544,cs),
(131,623,o),
(182,683,o),
(299,683,cs),
(378,683,o),
(437,651,o),
(457,593,c),
(499,604,l),
(471,673,o),
(393,708,o),
(299,708,cs),
(155,708,o),
(87,636,o),
(87,544,cs),
(87,451,o),
(154,400,o),
(292,355,cs),
(451,303,o),
(503,280,o),
(503,180,cs),
(503,85,o),
(441,20,o),
(304,20,cs),
(169,20,o),
(100,83,o),
(69,172,c),
(30,152,l),
(73,57,o),
(155,-7,o),
(304,-7,cs)
);
}
);
width = 579;
},
{
anchors = (
{
name = bottom;
pos = (321,0);
},
{
name = top;
pos = (322,700);
}
);
layerId = "6DD95C5A-998B-41AB-BDFB-84A73C209871";
shapes = (
{
closed = 1;
nodes = (
(495,-8,o),
(586,80,o),
(586,210,cs),
(586,342,o),
(424,391,o),
(338,423,cs),
(258,453,o),
(221,476,o),
(221,521,cs),
(221,568,o),
(262,599,o),
(316,599,cs),
(381,599,o),
(410,571,o),
(417,508,c),
(558,544,l),
(547,649,o),
(434,709,o),
(316,709,cs),
(178,709,o),
(71,641,o),
(71,521,cs),
(71,410,o),
(153,363,o),
(293,315,cs),
(378,286,o),
(437,265,o),
(437,200,cs),
(437,144,o),
(393,111,o),
(321,111,cs),
(222,111,o),
(172,161,o),
(137,258,c),
(12,195,l),
(48,84,o),
(144,-8,o),
(321,-8,cs)
);
}
);
width = 612;
},
{
anchors = (
{
name = bottom;
pos = (302,0);
},
{
name = top;
pos = (303,700);
}
);
layerId = "1FDC7037-1F88-4969-8535-0F79C1EF19DB";
shapes = (
{
closed = 1;
nodes = (
(473,-7,o),
(543,72,o),
(543,175,cs),
(543,294,o),
(456,323,o),
(297,375,cs),
(143,426,o),
(117,471,o),
(117,548,cs),
(117,632,o),
(169,696,o),
(296,696,cs),
(378,696,o),
(441,664,o),
(463,607,c),
(490,614,l),
(459,677,o),
(386,708,o),
(296,708,cs),
(151,708,o),
(90,635,o),
(90,548,cs),
(90,458,o),
(154,406,o),
(292,361,cs),
(463,306,o),
(514,282,o),
(514,177,cs),
(514,76,o),
(449,5,o),
(301,5,cs),
(161,5,o),
(88,71,o),
(58,158,c),
(33,145,l),
(77,53,o),
(157,-7,o),
(301,-7,cs)
);
}
);
width = 573.72;
},
{
anchors = (
{
name = bottom;
pos = (325,0);
},
{
name = top;
pos = (326,700);
}
);
layerId = "3ED9E848-BE83-4CAC-8EFF-D71BD2B4F667";
shapes = (
{
closed = 1;
nodes = (
(500,-8,o),
(595,82,o),
(595,217,cs),
(595,352,o),
(417,405,o),
(347,433,cs),
(282,459,o),
(243,477,o),
(243,515,cs),
(243,554,o),
(282,578,o),
(320,578,cs),
(382,578,o),
(403,551,o),
(407,487,c),
(572,529,l),
(566,643,o),
(444,709,o),
(320,709,cs),
(184,709,o),
(67,642,o),
(67,515,cs),
(67,400,o),
(153,354,o),
(293,305,cs),
(360,282,o),
(421,261,o),
(421,205,cs),
(421,158,o),
(381,133,o),
(325,133,cs),
(235,133,o),
(190,180,o),
(154,279,c),
(8,206,l),
(42,91,o),
(141,-8,o),
(325,-8,cs)
);
}
);
width = 620.1125;
}
);
note = S;
unicode = 83;
},
{
glyphname = Germandbls;
lastChange = "2023-09-13 03:40:42 +0000";
layers = (
{
layerId = "F5467FAD-1970-4982-B3D3-939C01050498";
shapes = (
{
closed = 1;
nodes = (
(494,-10,o),
(603,68,o),
(603,202,cs),
(603,355,o),
(503,422,o),
(380,422,cs),
(373,422,o),
(366,421,o),
(358,421,c),
(589,671,l),
(589,700,l),
(50,700,l),
(50,0,l),
(94,0,l),
(94,671,l),
(544,671,l),
(307,411,l),
(334,384,l),
(350,388,o),
(365,389,o),
(383,389,cs),
(485,389,o),
(562,319,o),
(562,202,cs),
(562,82,o),
(472,13,o),
(372,13,cs),
(272,13,o),
(198,59,o),
(184,163,c),
(142,163,l),
(159,45,o),
(250,-10,o),
(372,-10,cs)
);
}
);
width = 653;
},
{
layerId = "6DD95C5A-998B-41AB-BDFB-84A73C209871";
shapes = (
{
closed = 1;
nodes = (
(632,-10,o),
(760,80,o),
(760,220,cs),
(760,327,o),
(693,399,o),
(604,424,cs),
(596,427,o),
(588,428,o),
(580,430,c),
(748,602,l),
(748,700,l),
(50,700,l),
(50,0,l),
(202,0,l),
(202,592,l),
(552,592,l),
(377,404,l),
(442,326,l),
(479,337,o),
(488,340,o),
(509,340,cs),
(565,340,o),
(607,301,o),
(607,220,cs),
(607,137,o),
(557,98,o),
(499,98,cs),
(428,98,o),
(387,130,o),
(390,229,c),
(237,229,l),
(232,71,o),
(351,-10,o),
(499,-10,cs)
);
}
);
width = 810;
},
{
layerId = "1FDC7037-1F88-4969-8535-0F79C1EF19DB";
shapes = (
{
closed = 1;
nodes = (
(472,-10,o),
(578,66,o),
(578,199,cs),
(578,359,o),
(473,426,o),
(344,422,cs),
(337,421,o),
(330,420,o),
(322,420,c),
(564,682,l),
(564,700,l),
(50,700,l),
(50,0,l),
(77,0,l),
(77,684,l),
(543,684,l),
(296,412,l),
(317,393,l),
(329,396,o),
(345,397,o),
(363,397,cs),
(472,397,o),
(555,322,o),
(555,199,cs),
(555,73,o),
(458,-1,o),
(352,-1,cs),
(247,-1,o),
(168,48,o),
(151,152,c),
(127,152,l),
(147,41,o),
(234,-10,o),
(352,-10,cs)
);
}
);
width = 627.88;
},
{
layerId = "3ED9E848-BE83-4CAC-8EFF-D71BD2B4F667";
shapes = (
{
closed = 1;
nodes = (
(666,-10,o),
(799,83,o),
(799,224,cs),
(799,320,o),
(740,393,o),
(659,424,cs),
(651,428,o),
(643,430,o),
(635,432,c),
(787,585,l),
(787,700,l),
(50,700,l),
(50,0,l),
(229,0,l),
(229,573,l),
(554,573,l),
(394,402,l),
(469,312,l),
(511,324,o),
(518,328,o),
(540,328,cs),
(585,328,o),
(618,297,o),
(618,224,cs),
(618,151,o),
(578,119,o),
(530,119,cs),
(466,119,o),
(433,147,o),
(441,245,c),
(260,245,l),
(250,77,o),
(376,-10,o),
(530,-10,cs)
);
}
);
width = 848.59583;
}
);
unicode = 7838;
},
{
glyphname = T;
kernLeft = T;
kernRight = T;
lastChange = "2023-09-13 03:40:42 +0000";
layers = (
{
anchors = (
{
name = bottom;
pos = (333,0);
},
{
name = top;
pos = (334,700);
}
);
layerId = "F5467FAD-1970-4982-B3D3-939C01050498";
shapes = (
{
closed = 1;
nodes = (
(355,0,l),
(355,670,l),
(647,670,l),
(647,700,l),
(20,700,l),
(20,670,l),
(313,670,l),
(313,0,l)
);
}
);
width = 667;
},
{
anchors = (
{
name = bottom;
pos = (359,0);
},
{
name = top;
pos = (360,700);
}
);
layerId = "6DD95C5A-998B-41AB-BDFB-84A73C209871";
shapes = (
{
closed = 1;
nodes = (
(436,0,l),
(436,576,l),
(692,576,l),
(692,700,l),
(25,700,l),
(25,576,l),
(282,576,l),
(282,0,l)
);
}
);
width = 717;
},
{
anchors = (
{
name = bottom;
pos = (329,0);
},
{
name = top;
pos = (330,700);
}
);
layerId = "1FDC7037-1F88-4969-8535-0F79C1EF19DB";
shapes = (
{
closed = 1;
nodes = (
(342,0,l),
(342,685,l),
(640,685,l),
(640,700,l),
(19,700,l),
(19,685,l),
(318,685,l),
(318,0,l)
);
}
);
width = 659;
},
{
anchors = (
{
name = bottom;
pos = (365,0);
},
{
name = top;
pos = (366,700);
}
);
layerId = "3ED9E848-BE83-4CAC-8EFF-D71BD2B4F667";
shapes = (
{
closed = 1;
nodes = (
(456,0,l),
(456,553,l),
(703,553,l),
(703,700,l),
(26,700,l),
(26,553,l),
(274,553,l),
(274,0,l)
);
}
);
width = 729.29167;
}
);
note = T;
unicode = 84;
},
{
glyphname = Tbar;
lastChange = "2023-09-13 03:40:42 +0000";
layers = (
{
layerId = "F5467FAD-1970-4982-B3D3-939C01050498";
shapes = (
{
closed = 1;
nodes = (
(556,435,l),
(111,435,l),
(111,393,l),
(556,393,l)
);
},
{
ref = T;
}
);
width = 667;
},
{
layerId = "6DD95C5A-998B-41AB-BDFB-84A73C209871";
shapes = (
{
closed = 1;
nodes = (
(628,422,l),
(85,422,l),
(85,297,l),
(628,297,l)
);
},
{
pos = (-2,0);
ref = T;
}
);
width = 717;
},
{
layerId = "1FDC7037-1F88-4969-8535-0F79C1EF19DB";
shapes = (
{
closed = 1;
nodes = (
(544,437,l),
(115,437,l),
(115,408,l),
(544,408,l)
);
},
{
alignment = -1;
ref = T;
}
);
width = 659;
},
{
layerId = "3ED9E848-BE83-4CAC-8EFF-D71BD2B4F667";
shapes = (
{
closed = 1;
nodes = (
(646,419,l),
(79,419,l),
(79,273,l),
(646,273,l)
);
},
{
alignment = -1;
pos = (-2,0);
ref = T;
}
);
width = 729.29167;
}
);
unicode = 358;
},
{
glyphname = U;
kernLeft = U;
kernRight = U;
lastChange = "2023-09-13 03:40:42 +0000";
layers = (
{
anchors = (
{
name = bottom;
pos = (311,0);
},
{
name = ogonek;
pos = (341,0);
},
{
name = top;
pos = (311,700);
}
);
layerId = "F5467FAD-1970-4982-B3D3-939C01050498";
shapes = (
{
closed = 1;
nodes = (
(460,-12,o),
(562,58,o),
(562,212,c),
(561,700,l),
(519,700,l),
(519,212,ls),
(519,75,o),
(428,15,o),
(311,15,cs),
(194,15,o),
(103,75,o),
(103,212,cs),
(103,700,l),
(61,700,l),
(60,212,ls),
(60,58,o),
(162,-12,o),
(311,-12,cs)
);
}
);
width = 622;
},
{
anchors = (
{
name = bottom;
pos = (311,0);
},
{
name = ogonek;
pos = (341,0);
},
{
name = top;
pos = (311,700);
}
);
layerId = "6DD95C5A-998B-41AB-BDFB-84A73C209871";
shapes = (
{
closed = 1;
nodes = (
(469,-12,o),
(589,69,o),
(589,228,c),
(588,700,l),
(435,700,l),
(435,228,ls),
(435,133,o),
(386,100,o),
(311,100,cs),
(236,100,o),
(187,133,o),
(187,228,cs),
(187,700,l),
(34,700,l),
(33,228,ls),
(33,69,o),
(153,-12,o),
(311,-12,cs)
);
}
);
width = 622;
},
{
anchors = (
{
name = bottom;
pos = (311,0);
},
{
name = ogonek;
pos = (341,0);
},
{
name = top;
pos = (311,700);
}
);
layerId = "1FDC7037-1F88-4969-8535-0F79C1EF19DB";
shapes = (
{
closed = 1;
nodes = (
(459,-12,o),
(558,56,o),
(558,209,c),
(557,700,l),
(532,700,l),
(532,209,ls),
(532,66,o),
(435,1,o),
(311,1,cs),
(187,1,o),
(90,66,o),
(90,209,cs),
(90,700,l),
(65,700,l),
(64,209,ls),
(64,56,o),
(163,-12,o),
(311,-12,cs)
);
}
);
width = 622;
},
{
anchors = (
{
name = bottom;
pos = (311,0);
},
{
name = ogonek;
pos = (341,0);
},
{
name = top;
pos = (311,700);
}
);
layerId = "3ED9E848-BE83-4CAC-8EFF-D71BD2B4F667";
shapes = (
{
closed = 1;
nodes = (
(471,-12,o),
(596,72,o),
(596,232,c),
(595,700,l),
(414,700,l),
(414,232,ls),
(414,147,o),
(376,121,o),
(311,121,cs),
(246,121,o),
(208,147,o),
(208,232,cs),
(208,700,l),
(27,700,l),
(26,232,ls),
(26,72,o),
(151,-12,o),
(311,-12,cs)
);
}
);
width = 622;
}
);
note = U;
unicode = 85;
},
{
glyphname = V;
kernLeft = V;
kernRight = V;
lastChange = "2023-09-13 03:40:42 +0000";
layers = (
{
layerId = "F5467FAD-1970-4982-B3D3-939C01050498";
shapes = (
{
closed = 1;
nodes = (
(321,0,l),
(561,700,l),
(523,700,l),
(291,25,l),
(309,25,l),
(78,700,l),
(40,700,l),
(279,0,l)
);
}
);
width = 601;
},
{
layerId = "6DD95C5A-998B-41AB-BDFB-84A73C209871";
shapes = (
{
closed = 1;
nodes = (
(395,0,l),
(635,700,l),
(482,700,l),
(300,168,l),
(329,168,l),
(147,700,l),
(-6,700,l),
(233,0,l)
);
}
);
width = 629;
},
{
layerId = "1FDC7037-1F88-4969-8535-0F79C1EF19DB";
shapes = (
{
closed = 1;
nodes = (
(309,0,l),
(549,700,l),
(530,700,l),
(290,2,l),
(306,2,l),
(67,700,l),
(47,700,l),
(286,0,l)
);
}
);
width = 596.52;
},
{
layerId = "3ED9E848-BE83-4CAC-8EFF-D71BD2B4F667";
shapes = (
{
closed = 1;
nodes = (
(413,0,l),
(653,700,l),
(472,700,l),
(302,203,l),
(334,203,l),
(164,700,l),
(-17,700,l),
(222,0,l)
);
}
);
width = 635.88333;
}
);
note = V;
unicode = 86;
},
{
glyphname = W;
kernLeft = W;
kernRight = W;
lastChange = "2023-09-13 03:40:42 +0000";
layers = (
{
anchors = (
{
name = bottom;
pos = (457,0);
},
{
name = top;
pos = (462,700);
}
);
layerId = "F5467FAD-1970-4982-B3D3-939C01050498";
shapes = (
{
closed = 1;
nodes = (
(281,0,l),
(481,700,l),
(443,700,l),
(257,47,l),
(263,47,l),
(78,700,l),
(40,700,l),
(239,0,l)
);
},
{
closed = 1;
nodes = (
(884,700,l),
(846,700,l),
(661,47,l),
(667,47,l),
(481,700,l),
(443,700,l),
(643,0,l),
(685,0,l)
);
}
);
width = 924;
},
{
anchors = (
{
name = bottom;
pos = (444,0);
},
{
name = top;
pos = (444,700);
}
);
layerId = "6DD95C5A-998B-41AB-BDFB-84A73C209871";
shapes = (
{
closed = 1;
nodes = (
(355,0,l),
(521,690,l),
(373,690,l),
(266,198,l),
(286,198,l),
(194,700,l),
(40,700,l),
(196,0,l)
);
},
{
closed = 1;
nodes = (
(854,700,l),
(700,700,l),
(608,198,l),
(628,198,l),
(521,690,l),
(373,690,l),
(539,0,l),
(698,0,l)
);
}
);
width = 894;
},
{
anchors = (
{
name = bottom;
pos = (459,0);
},
{
name = top;
pos = (465,700);
}
);
layerId = "1FDC7037-1F88-4969-8535-0F79C1EF19DB";
shapes = (
{
closed = 1;
nodes = (
(269,0,l),
(475,702,l),
(454,702,l),
(256,23,l),
(259,23,l),
(59,700,l),
(40,700,l),
(246,0,l)
);
},
{
closed = 1;
nodes = (
(889,700,l),
(869,700,l),
(669,23,l),
(673,23,l),
(475,702,l),
(454,702,l),
(660,0,l),
(683,0,l)
);
}
);
width = 928.8;
},
{
anchors = (
{
name = bottom;
pos = (441,0);
},
{
name = top;
pos = (440,700);
}
);
layerId = "3ED9E848-BE83-4CAC-8EFF-D71BD2B4F667";
shapes = (
{
closed = 1;
nodes = (
(373,0,l),
(531,688,l),
(356,688,l),
(268,235,l),
(292,235,l),
(223,700,l),
(40,700,l),
(185,0,l)
);
},
{
closed = 1;
nodes = (
(847,700,l),
(664,700,l),
(595,235,l),
(618,235,l),
(531,688,l),
(356,688,l),
(513,0,l),
(701,0,l)
);
}
);
width = 886.625;
}
);
note = W;
unicode = 87;
},
{
glyphname = X;
kernLeft = X;
kernRight = X;
lastChange = "2023-09-13 03:40:42 +0000";
layers = (
{
layerId = "F5467FAD-1970-4982-B3D3-939C01050498";
shapes = (
{
closed = 1;
nodes = (
(352,361,l),
(619,700,l),
(570,700,l),
(330,396,l)
);
},
{
closed = 1;
nodes = (
(314,386,l),
(10,0,l),
(59,0,l),
(336,350,l)
);
},
{
closed = 1;
nodes = (
(105,700,l),
(56,700,l),
(593,0,l),
(642,0,l)
);
}
);
width = 652;
},
{
layerId = "6DD95C5A-998B-41AB-BDFB-84A73C209871";
shapes = (
{
closed = 1;
nodes = (
(488,356,l),
(761,700,l),
(579,700,l),
(399,472,l)
);
},
{
closed = 1;
nodes = (
(316,388,l),
(10,0,l),
(192,0,l),
(404,270,l)
);
},
{
closed = 1;
nodes = (
(236,700,l),
(54,700,l),
(592,0,l),
(773,0,l)
);
}
);
width = 783;
},
{
layerId = "1FDC7037-1F88-4969-8535-0F79C1EF19DB";
shapes = (
{
closed = 1;
nodes = (
(330,362,l),
(596,700,l),
(569,700,l),
(319,384,l)
);
},
{
closed = 1;
nodes = (
(314,386,l),
(10,0,l),
(38,0,l),
(325,363,l)
);
},
{
closed = 1;
nodes = (
(84,700,l),
(56,700,l),
(593,0,l),
(621,0,l)
);
}
);
width = 631.04;
},
{
layerId = "3ED9E848-BE83-4CAC-8EFF-D71BD2B4F667";
shapes = (
{
closed = 1;
nodes = (
(521,355,l),
(796,700,l),
(581,700,l),
(416,491,l)
);
},
{
closed = 1;
nodes = (
(316,388,l),
(10,0,l),
(225,0,l),
(421,250,l)
);
},
{
closed = 1;
nodes = (
(268,700,l),
(54,700,l),
(592,0,l),
(805,0,l)
);
}
);
width = 815.20417;
}
);
note = X;
unicode = 88;
},
{
glyphname = Y;
kernLeft = Y;
kernRight = Y;
lastChange = "2023-09-13 03:40:42 +0000";
layers = (
{
anchors = (
{
name = bottom;
pos = (287,0);
},
{
name = top;
pos = (287,700);
}
);
layerId = "F5467FAD-1970-4982-B3D3-939C01050498";
shapes = (
{
closed = 1;
nodes = (
(307,0,l),
(307,309.73,l),
(563,700,l),
(517,700,l),
(286,337,l),
(56,700,l),
(10,700,l),
(265,309.82,l),
(265,0,l)
);
}
);
width = 573;
},
{
anchors = (
{
name = bottom;
pos = (352,0);
},
{
name = top;
pos = (352,700);
}
);
layerId = "6DD95C5A-998B-41AB-BDFB-84A73C209871";
shapes = (
{
closed = 1;
nodes = (
(428,0,l),
(428,307,l),
(683,700,l),
(525,700,l),
(351,421,l),
(178,700,l),
(20,700,l),
(274,307,l),
(274,0,l)
);
}
);
width = 703;
},
{
anchors = (
{
name = bottom;
pos = (277,0);
},
{
name = top;
pos = (277,700);
}
);
layerId = "1FDC7037-1F88-4969-8535-0F79C1EF19DB";
shapes = (
{
closed = 1;
nodes = (
(288,0,l),
(288,310,l),
(544,700,l),
(516,700,l),
(276,324,l),
(36,700,l),
(8,700,l),
(264,310,l),
(264,0,l)
);
}
);
width = 552.2;
},
{
anchors = (
{
name = bottom;
pos = (368,0);
},
{
name = top;
pos = (368,700);
}
);
layerId = "3ED9E848-BE83-4CAC-8EFF-D71BD2B4F667";
shapes = (
{
closed = 1;
nodes = (
(458,0,l),
(458,306,l),
(712,700,l),
(527,700,l),
(367,442,l),
(208,700,l),
(23,700,l),
(276,306,l),
(276,0,l)
);
}
);
width = 734.95833;
}
);
note = Y;
unicode = 89;
},
{
glyphname = Z;
kernLeft = Z;
kernRight = Z;
lastChange = "2023-09-13 03:40:42 +0000";
layers = (
{
anchors = (
{
name = bottom;
pos = (284,0);
},
{
name = top;
pos = (284,700);
}
);
layerId = "F5467FAD-1970-4982-B3D3-939C01050498";
shapes = (
{
closed = 1;
nodes = (
(532,0,l),
(532,30,l),
(55,30,l),
(557,670,l),
(557,700,l),
(46,700,l),
(46,670,l),
(512,670,l),
(10,30,l),
(10,0,l)
);
}
);
width = 567;
},
{
anchors = (
{
name = bottom;
pos = (295,0);
},
{
name = top;
pos = (295,700);
}
);
layerId = "6DD95C5A-998B-41AB-BDFB-84A73C209871";
shapes = (
{
closed = 1;
nodes = (
(575,0,l),
(575,125,l),
(202,125,l),
(579,576,l),
(579,700,l),
(32,700,l),
(32,576,l),
(386,576,l),
(10,125,l),
(10,0,l)
);
}
);
width = 589;
},
{
anchors = (
{
name = bottom;
pos = (282,0);
},
{
name = top;
pos = (282,700);
}
);
layerId = "1FDC7037-1F88-4969-8535-0F79C1EF19DB";
shapes = (
{
closed = 1;
nodes = (
(525,0,l),
(525,15,l),
(31,15,l),
(553,685,l),
(553,700,l),
(48,700,l),
(48,685,l),
(532,685,l),
(10,15,l),
(10,0,l)
);
}
);
width = 563.48;
},
{
anchors = (
{
name = bottom;
pos = (298,0);
},
{
name = top;
pos = (298,700);
}
);
layerId = "3ED9E848-BE83-4CAC-8EFF-D71BD2B4F667";
shapes = (
{
closed = 1;
nodes = (
(586,0,l),
(586,148,l),
(238,148,l),
(584,553,l),
(584,700,l),
(29,700,l),
(29,553,l),
(355,553,l),
(10,148,l),
(10,0,l)
);
}
);
width = 594.40833;
}
);
note = Z;
unicode = 90;
},
{
glyphname = a;
kernLeft = a;
kernRight = a;
lastChange = "2023-09-13 03:40:42 +0000";
layers = (
{
anchors = (
{
name = bottom;
pos = (260,0);
},
{
name = ogonek;
pos = (423,0);
},
{
name = top;
pos = (260,500);
}
);
layerId = "F5467FAD-1970-4982-B3D3-939C01050498";
shapes = (
{
closed = 1;
nodes = (
(322.77,-14,o),
(395.53,48.9,o),
(422.99,128.14,c),
(422.99,0,l),
(466.99,0,l),
(466.99,310,ls),
(466.99,399,o),
(448.99,511,o),
(265,511,cs),
(171,511,o),
(93,465,o),
(72,410,cs),
(70,404,o),
(68,399,o),
(67,393,c),
(131,392,l),
(132,396,o),
(133,400,o),
(135,404,cs),
(150,446,o),
(197,483,o),
(275,483,cs),
(371,483,o),
(418,432,o),
(418,367,cs),
(418,300,o),
(337,275,o),
(245,265,cs),
(76,246,o),
(30,198,o),
(30,123,cs),
(30,42,o),
(105,-14,o),
(224,-14,cs)
);
},
{
closed = 1;
nodes = (
(109,12,o),
(79.99,78,o),
(79.99,129,cs),
(79.99,194,o),
(127,223,o),
(242,238,cs),
(335,250,o),
(391,271,o),
(423,310,c),
(423,209,ls),
(423,117,o),
(351,12,o),
(224,12,cs)
);
}
);
width = 517;
},
{
anchors = (
{
name = bottom;
pos = (293,0);
},
{
name = ogonek;
pos = (365,0);
},
{
name = top;
pos = (293,500);
}
);
layerId = "6DD95C5A-998B-41AB-BDFB-84A73C209871";
shapes = (
{
closed = 1;
nodes = (
(292.57,-13.01,o),
(337.9,15.92,o),
(365.18,57.4,c),
(365,-0.01,l),
(518,-0.01,l),
(518,300.99,ls),
(518,378.99,o),
(499,508.99,o),
(292,508.99,cs),
(171.21,509,o),
(69.64,440.96,o),
(69.64,358.59,cs),
(69.64,348.9,o),
(71.05,339,o),
(74,329,c),
(221.75,329,l),
(221.4,330.05,o),
(220.99,333.07,o),
(220.99,337.35,cs),
(220.99,357.81,o),
(230,407,o),
(300.91,407.02,cs),
(339,407,o),
(365,391,o),
(365,357,cs),
(365,318,o),
(319.63,303.23,o),
(253,296.99,cs),
(89.12,281.65,o),
(30,224.56,o),
(30,142.99,cs),
(30,55.99,o),
(90,-13.01,o),
(220,-13.01,cs)
);
},
{
closed = 1;
nodes = (
(204,81,o),
(181,116,o),
(181,148,cs),
(181,188,o),
(219,207,o),
(266,213,cs),
(302,217,o),
(337,226,o),
(368,239,c),
(368,229,ls),
(368,120,o),
(311,81,o),
(253,81,cs)
);
}
);
width = 568;
},
{
anchors = (
{
name = bottom;
pos = (255,0);
},
{
name = ogonek;
pos = (432,0);
},
{
name = top;
pos = (255,500);
}
);
layerId = "1FDC7037-1F88-4969-8535-0F79C1EF19DB";
shapes = (
{
closed = 1;
nodes = (
(328,-14,o),
(405,54,o),
(432,139,c),
(432,0,l),
(459,0,l),
(459,311,ls),
(459,402,o),
(441,511,o),
(261,511,cs),
(171,511,o),
(97,469,o),
(72,418,cs),
(70,413,o),
(68,409,o),
(66,403,c),
(116,402,l),
(118,407,o),
(119,411,o),
(121,415,cs),
(139,460,o),
(192,495,o),
(271,495,cs),
(376,495,o),
(426,439,o),
(426,369,cs),
(426,297,o),
(340,270,o),
(244,260,cs),
(74,240,o),
(30,194,o),
(30,120,cs),
(30,40,o),
(107,-14,o),
(225,-14,cs)
);
},
{
closed = 1;
nodes = (
(94,1,o),
(64,72,o),
(64,126,cs),
(64,195,o),
(112,226,o),
(238,242,cs),
(340,255,o),
(400,278,o),
(432,321,c),
(432,206,ls),
(432,117,o),
(357,1,o),
(219,1,cs)
);
}
);
width = 508.84;
},
{
anchors = (
{
name = bottom;
pos = (301,0);
},
{
name = ogonek;
pos = (351,0);
},
{
name = top;
pos = (301,500);
}
);
layerId = "3ED9E848-BE83-4CAC-8EFF-D71BD2B4F667";
shapes = (
{
closed = 1;
nodes = (
(285,-13,o),
(324,8,o),
(351,40,c),
(351,0,l),
(531,0,l),
(531,299,ls),
(531,374,o),
(511,509,o),
(299,509,cs),
(171,509,o),
(64,435,o),
(69,346,cs),
(70,335,o),
(72,324,o),
(76,313,c),
(244,314,l),
(243,314,o),
(243,317,o),
(242,321,cs),
(238,336,o),
(238,388,o),
(307,388,cs),
(331,388,o),
(352,381,o),
(352,355,cs),
(352,322,o),
(315,310,o),
(255,305,cs),
(92,290,o),
(30,231,o),
(30,148,cs),
(30,59,o),
(86,-13,o),
(219,-13,cs)
);
},
{
closed = 1;
nodes = (
(227,98,o),
(206,125,o),
(206,153,cs),
(206,187,o),
(242,203,o),
(272,207,cs),
(294,209,o),
(324,215,o),
(354,222,c),
(354,234,ls),
(354,121,o),
(301,98,o),
(260,98,cs)
);
}
);
width = 580.5375;
}
);
note = a;
unicode = 97;
},
{
glyphname = ae;
kernLeft = a;
kernRight = ae;
lastChange = "2023-09-13 03:41:19 +0000";
layers = (
{
anchors = (
{
name = top;
pos = (451,500);
}
);
background = {
shapes = (
{
closed = 1;
nodes = (
(348.63,-14,o),
(417.54,63.35,o),
(439.79,152.58,c),
(477.93,39.56,o),
(580.36,-14,o),
(694,-14,cs),
(797,-14,o),
(871,19,o),
(919,78,c),
(878,97,l),
(844,48,o),
(796,4,o),
(694,4,cs),
(582.14,4,o),
(479.11,89.24,o),
(477.03,251,c),
(918,251,l),
(919.83,265.39,o),
(920.73,279.35,o),
(920.73,292.83,cs),
(920.73,426.37,o),
(832.33,513,o),
(687,513,cs),
(590.21,513,o),
(503.95,470.39,o),
(458.31,392,c),
(441.58,455.74,o),
(394.24,511,o),
(265,511,cs),
(162,511,o),
(78,456,o),
(67,393,c),
(131,392,l),
(143,437,o),
(180,493,o),
(265,493,cs),
(363.58,493,o),
(407.58,445.15,o),
(415.51,379.52,cs),
(415.98,375.64,o),
(416.21,371.89,o),
(416.21,368.27,cs),
(416.21,300.87,o),
(336.99,276.27,o),
(245,265,cs),
(86,246,o),
(30,198,o),
(30,123,cs),
(30,42,o),
(105,-14,o),
(224,-14,cs)
);
},
{
closed = 1;
nodes = (
(109,2,o),
(80,78,o),
(80,129,cs),
(80,194,o),
(127,233,o),
(242,248,cs),
(324.83,258.62,o),
(391.12,280.77,o),
(422.77,319.76,c),
(423,199,ls),
(423,107,o),
(351,2,o),
(224,2,cs)
);
},
{
closed = 1;
nodes = (
(483.68,399.64,o),
(562.36,498,o),
(687,498,cs),
(813.06,498,o),
(872.87,411.93,o),
(872.87,327.49,cs),
(872.87,308.78,o),
(869.93,290.14,o),
(864.12,272.54,c),
(477.4,272.54,l)
);
}
);
};
layerId = "F5467FAD-1970-4982-B3D3-939C01050498";
shapes = (
{
ref = a;
},
{
alignment = -1;
pos = (394,0);
ref = e;
}
);
width = 961;
},
{
anchors = (
{
name = top;
pos = (467,500);
}
);
background = {
shapes = (
{
closed = 1;
nodes = (
(321,-13,o),
(381,34,o),
(404,100,c),
(450,26,o),
(534,-12,o),
(638,-12,cs),
(750,-12,o),
(853,35,o),
(888,128,c),
(765,186,l),
(747,132,o),
(711,95,o),
(648,95,cs),
(572,95,o),
(533,130,o),
(518,187,c),
(518,215,l),
(873,215,l),
(879,242,o),
(882,267,o),
(882,291,cs),
(882,426,o),
(785,511,o),
(628,511,cs),
(562,511,o),
(504,493,o),
(459,460,c),
(426,489,o),
(373,509,o),
(292,509,cs),
(171,509,o),
(70,441,o),
(70,359,cs),
(70,349,o),
(71,339,o),
(74,329,c),
(222,329,l),
(221,330,o),
(221,333,o),
(221,337,cs),
(221,358,o),
(230,407,o),
(301,407,cs),
(344,407,o),
(363,388,o),
(363,354,cs),
(363,315,o),
(320,303,o),
(253,297,cs),
(89,282,o),
(30,225,o),
(30,143,cs),
(30,56,o),
(90,-13,o),
(220,-13,cs)
);
},
{
closed = 1;
nodes = (
(201,81,o),
(178,116,o),
(178,148,cs),
(178,188,o),
(216,207,o),
(263,213,cs),
(299,217,o),
(334,226,o),
(365,239,c),
(365,229,ls),
(365,121,o),
(308,81,o),
(250,81,cs)
);
},
{
closed = 1;
nodes = (
(518,309,o),
(518,310,o),
(518,312,c),
(536,376,o),
(586,406,o),
(632,406,cs),
(693,406,o),
(730,376,o),
(730,326,cs),
(730,320,o),
(729,314,o),
(728,308,c),
(518,308,l)
);
}
);
};
layerId = "6DD95C5A-998B-41AB-BDFB-84A73C209871";
shapes = (
{
ref = a;
},
{
alignment = -1;
pos = (346,0);
ref = e;
}
);
width = 939;
},
{
anchors = (
{
name = top;
pos = (448,500);
}
);
layerId = "1FDC7037-1F88-4969-8535-0F79C1EF19DB";
shapes = (
{
alignment = -1;
ref = a;
},
{
alignment = -1;
pos = (402,0);
ref = e;
}
);
width = 964.52;
},
{
anchors = (
{
name = top;
pos = (471,500);
}
);
layerId = "3ED9E848-BE83-4CAC-8EFF-D71BD2B4F667";
shapes = (
{
alignment = -1;
ref = a;
},
{
alignment = -1;
pos = (334,0);
ref = e;
}
);
width = 933;
}
);
metricLeft = a;
metricRight = e;
note = ae;
unicode = 230;
},
{
glyphname = b;
kernLeft = b;
kernRight = b;
lastChange = "2023-09-13 03:40:42 +0000";
layers = (
{
layerId = "F5467FAD-1970-4982-B3D3-939C01050498";
shapes = (
{
closed = 1;
nodes = (
(95,0,l),
(95,118,l),
(79,252,l),
(95,398,l),
(95,700,l),
(50,700,l),
(51,0,l)
);
},
{
closed = 1;
nodes = (
(456,-12,o),
(553,100,o),
(553,252,cs),
(553,403,o),
(456,513,o),
(304,513,cs),
(149,513,o),
(78,370,o),
(78,252,cs),
(78,135,o),
(144,-12,o),
(304,-12,cs)
);
},
{
closed = 1;
nodes = (
(183,18,o),
(83,107,o),
(83,252,cs),
(83,394,o),
(184,484,o),
(305,484,cs),
(428,484,o),
(508,379,o),
(508,252,cs),
(508,123,o),
(426,18,o),
(304,18,cs)
);
}
);
width = 583;
},
{
background = {
shapes = (
{
closed = 1;
nodes = (
(552,-12,o),
(649,100,o),
(649,252,cs),
(649,403,o),
(552,513,o),
(400,513,cs),
(278,513,o),
(208,425,o),
(183,332,c),
(191,398,l),
(191,700,l),
(146,700,l),
(147,0,l),
(191,0,l),
(191,118,l),
(184,170,l),
(209,76,o),
(279,-12,o),
(400,-12,cs)
);
},
{
closed = 1;
nodes = (
(279,18,o),
(178,107,o),
(178,252,cs),
(178,394,o),
(279,484,o),
(400,484,cs),
(523,484,o),
(604,379,o),
(604,252,cs),
(604,123,o),
(522,18,o),
(400,18,cs)
);
}
);
};
layerId = "6DD95C5A-998B-41AB-BDFB-84A73C209871";
shapes = (
{
closed = 1;
nodes = (
(188,-0.01,l),
(188,26,l),
(168,252,l),
(188,490,l),
(188,700,l),
(35,700,l),
(36,-0.01,l)
);
},
{
closed = 1;
nodes = (
(513,-9,o),
(618,111,o),
(618,252,cs),
(618,394,o),
(513,512,o),
(354,512,cs),
(201,512,o),
(161,425,o),
(161,252,cs),
(161,78,o),
(192,-9,o),
(354,-9,cs)
);
},
{
closed = 1;
nodes = (
(237,102,o),
(180,153,o),
(180,252,cs),
(180,350,o),
(237,402,o),
(326,402,cs),
(409,402,o),
(457,341,o),
(457,252,cs),
(457,162,o),
(409,102,o),
(326,102,cs)
);
}
);
width = 638;
},
{
associatedMasterId = "F5467FAD-1970-4982-B3D3-939C01050498";
layerId = "26A69B60-DC4A-41CE-A0B3-B5D760A97FC8";
name = "24 juil. 23 à 14:17";
shapes = (
{
closed = 1;
nodes = (
(95,398,l),
(95,700,l),
(50,700,l),
(51,0,l),
(95,0,l),
(95,118,l),
(78,244,l)
);
},
{
closed = 1;
nodes = (
(183,18,o),
(82,107,o),
(82,252,cs),
(82,394,o),
(183,484,o),
(304,484,cs),
(427,484,o),
(508,379,o),
(508,252,cs),
(508,123,o),
(426,18,o),
(304,18,cs)
);
},
{
closed = 1;
nodes = (
(84,185,l),
(106,85,o),
(177,-12,o),
(304,-12,cs),
(456,-12,o),
(553,100,o),
(553,252,cs),
(553,403,o),
(456,513,o),
(304,513,cs),
(176,513,o),
(106,416,o),
(84,317,c)
);
}
);
width = 583;
},
{
layerId = "1FDC7037-1F88-4969-8535-0F79C1EF19DB";
shapes = (
{
closed = 1;
nodes = (
(80,0,l),
(80,133,l),
(65,252,l),
(80,383,l),
(80,700,l),
(52,700,l),
(53,0,l)
);
},
{
closed = 1;
nodes = (
(447,-12,o),
(543,98,o),
(543,252,cs),
(543,404,o),
(447,513,o),
(296,513,cs),
(141,513,o),
(65,361,o),
(65,252,cs),
(65,144,o),
(136,-12,o),
(296,-12,cs)
);
},
{
closed = 1;
nodes = (
(174,5,o),
(67,100,o),
(67,252,cs),
(67,401,o),
(176,497,o),
(302,497,cs),
(431,497,o),
(516,385,o),
(516,252,cs),
(516,117,o),
(429,5,o),
(300,5,cs)
);
}
);
width = 574.2;
},
{
layerId = "3ED9E848-BE83-4CAC-8EFF-D71BD2B4F667";
shapes = (
{
closed = 1;
nodes = (
(211,0,l),
(211,3,l),
(190,252,l),
(211,513,l),
(211,700,l),
(31,700,l),
(32,0,l)
);
},
{
closed = 1;
nodes = (
(527,-8,o),
(634,114,o),
(634,252,cs),
(634,392,o),
(527,512,o),
(366,512,cs),
(214,512,o),
(181,439,o),
(181,252,cs),
(181,64,o),
(204,-8,o),
(366,-8,cs)
);
},
{
closed = 1;
nodes = (
(250,123,o),
(204,164,o),
(204,252,cs),
(204,339,o),
(250,382,o),
(331,382,cs),
(404,382,o),
(444,332,o),
(444,252,cs),
(444,172,o),
(405,123,o),
(331,123,cs)
);
}
);
width = 651.52083;
}
);
note = b;
unicode = 98;
},
{
glyphname = c;
kernLeft = a;
kernRight = c;
lastChange = "2023-09-13 03:40:42 +0000";
layers = (
{
anchors = (
{
name = bottom;
pos = (302,0);
},
{
name = top;
pos = (308,500);
}
);
layerId = "F5467FAD-1970-4982-B3D3-939C01050498";
shapes = (
{
closed = 1;
nodes = (
(413,-14,o),
(490,31,o),
(529,112,c),
(489,128,l),
(459,68,o),
(405,14,o),
(300,14,cs),
(187,14,o),
(83,91,o),
(83,244,cs),
(83,392,o),
(167,485,o),
(308,485,cs),
(392,485,o),
(448,450,o),
(486,387,c),
(524,408,l),
(487,471,o),
(414,513,o),
(308,513,cs),
(146,513,o),
(30,420,o),
(30,244,cs),
(30,72,o),
(155,-14,o),
(300,-14,cs)
);
}
);
width = 559;
},
{
anchors = (
{
name = bottom;
pos = (312,0);
},
{
name = top;
pos = (318,500);
}
);
layerId = "6DD95C5A-998B-41AB-BDFB-84A73C209871";
shapes = (
{
closed = 1;
nodes = (
(445,-12,o),
(535,39,o),
(581.11,149.62,c),
(447.13,202.82,l),
(428,136,o),
(395,94,o),
(312,94,cs),
(222,94,o),
(174,157.03,o),
(174,245,cs),
(174,350,o),
(238,406,o),
(318,406,cs),
(385,406,o),
(432,367,o),
(432,303,c),
(565,365,l),
(537,452,o),
(448,511,o),
(318,511,cs),
(154,511,o),
(30,413,o),
(30,245,cs),
(30,78,o),
(165,-12,o),
(312,-12,cs)
);
}
);
width = 599;
},
{
anchors = (
{
name = bottom;
pos = (300,0);
},
{
name = top;
pos = (306,500);
}
);
layerId = "1FDC7037-1F88-4969-8535-0F79C1EF19DB";
shapes = (
{
closed = 1;
nodes = (
(408,-14,o),
(483,30,o),
(521,106,c),
(496,116,l),
(464,57,o),
(407,1,o),
(298,1,cs),
(181,1,o),
(68,80,o),
(68,244,cs),
(68,399,o),
(156,498,o),
(306,498,cs),
(393,498,o),
(451,463,o),
(495,400,c),
(517,415,l),
(479,474,o),
(409,513,o),
(306,513,cs),
(145,513,o),
(30,421,o),
(30,244,cs),
(30,71,o),
(153,-14,o),
(298,-14,cs)
);
}
);
width = 552.6;
},
{
anchors = (
{
name = bottom;
pos = (315,0);
},
{
name = top;
pos = (321,500);
}
);
layerId = "3ED9E848-BE83-4CAC-8EFF-D71BD2B4F667";
shapes = (
{
closed = 1;
nodes = (
(453,-12,o),
(546,41,o),
(594,159,c),
(437,221,l),
(420,153,o),
(393,114,o),
(315,114,cs),
(231,114,o),
(196,173,o),
(196,245,cs),
(196,340,o),
(255,387,o),
(321,387,cs),
(383,387,o),
(428,347,o),
(419,282,c),
(575,354,l),
(549,447,o),
(456,511,o),
(321,511,cs),
(156,511,o),
(30,411,o),
(30,245,cs),
(30,79,o),
(168,-12,o),
(315,-12,cs)
);
}
);
width = 608.83333;
}
);
note = c;
unicode = 99;
},
{
glyphname = d;
kernLeft = a;
kernRight = d;
lastChange = "2023-09-13 03:40:42 +0000";
layers = (
{
anchors = (
{
name = bottom;
pos = (320,0);
},
{
name = top;
pos = (670,500);
}
);
layerId = "F5467FAD-1970-4982-B3D3-939C01050498";
shapes = (
{
closed = 1;
nodes = (
(533,700,l),
(488,700,l),
(488,398,l),
(504,252,l),
(488,118,l),
(488,0,l),
(532,0,l)
);
},
{
closed = 1;
nodes = (
(439,-12,o),
(505,135,o),
(505,252,cs),
(505,370,o),
(434,513,o),
(279,513,cs),
(127,513,o),
(30,403,o),
(30,252,cs),
(30,100,o),
(127,-12,o),
(279,-12,cs)
);
},
{
closed = 1;
nodes = (
(157,18,o),
(75,123,o),
(75,252,cs),
(75,379,o),
(155,484,o),
(278,484,cs),
(399,484,o),
(500,394,o),
(500,252,cs),
(500,107,o),
(400,18,o),
(279,18,cs)
);
}
);
width = 583;
},
{
anchors = (
{
name = bottom;
pos = (353,0);
},
{
name = top;
pos = (721,500);
}
);
layerId = "6DD95C5A-998B-41AB-BDFB-84A73C209871";
shapes = (
{
closed = 1;
nodes = (
(603,700,l),
(450,700,l),
(450,490,l),
(470,252,l),
(450,26,l),
(450,0,l),
(602,0,l)
);
},
{
closed = 1;
nodes = (
(446,-9,o),
(477,78,o),
(477,252,cs),
(477,425,o),
(437,512,o),
(284,512,cs),
(125,512,o),
(20,394,o),
(20,252,cs),
(20,111,o),
(125,-9,o),
(284,-9,cs)
);
},
{
closed = 1;
nodes = (
(232,102,o),
(183,162,o),
(183,252,cs),
(183,341,o),
(231,402,o),
(314,402,cs),
(407,402,o),
(460,345,o),
(460,252,cs),
(460,153,o),
(403,102,o),
(314,102,cs)
);
}
);
width = 638;
},
{
anchors = (
{
name = bottom;
pos = (353,0);
},
{
name = top;
pos = (721,500);
}
);
associatedMasterId = "6DD95C5A-998B-41AB-BDFB-84A73C209871";
layerId = "1D074922-2F39-4A43-B83C-D4901F087130";
name = "24 juil. 23 à 14:32";
shapes = (
{
closed = 1;
nodes = (
(362,-9,o),
(412,8,o),
(450,34,c),
(450,18,l),
(450,0,l),
(602,0,l),
(603,700,l),
(450,700,l),
(450,493,l),
(450,467,l),
(412,495,o),
(361,512,o),
(294,512,cs),
(135,512,o),
(30,394,o),
(30,252,cs),
(30,111,o),
(134,-9,o),
(295,-9,cs)
);
},
{
closed = 1;
nodes = (
(232,102,o),
(183,162,o),
(183,252,cs),
(183,341,o),
(231,402,o),
(314,402,cs),
(407,402,o),
(460,345,o),
(460,252,cs),
(460,153,o),
(403,102,o),
(314,102,cs)
);
}
);
width = 638;
},
{
anchors = (
{
name = bottom;
pos = (320,0);
},
{
name = top;
pos = (670,500);
}
);
associatedMasterId = "F5467FAD-1970-4982-B3D3-939C01050498";
layerId = "0FE110F9-B3B8-41FB-9267-A7A4874DD26C";
name = "24 juil. 23 à 14:32";
shapes = (
{
closed = 1;
nodes = (
(404,-12,o),
(474,81,o),
(497,179,c),
(491,118,l),
(491,0,l),
(535,0,l),
(536,700,l),
(491,700,l),
(491,398,l),
(497,324,l),
(474,421,o),
(404,513,o),
(279,513,cs),
(127,513,o),
(30,403,o),
(30,252,cs),
(30,100,o),
(127,-12,o),
(279,-12,cs)
);
},
{
closed = 1;
nodes = (
(157,18,o),
(75,123,o),
(75,252,cs),
(75,379,o),
(156,483,o),
(279,483,cs),
(400,483,o),
(501,394,o),
(501,252,cs),
(501,107,o),
(400,18,o),
(279,18,cs)
);
}
);
width = 586;
},
{
anchors = (
{
name = bottom;
pos = (315,0);
},
{
name = top;
pos = (662,500);
}
);
layerId = "1FDC7037-1F88-4969-8535-0F79C1EF19DB";
shapes = (
{
closed = 1;
nodes = (
(522,700,l),
(494,700,l),
(494,383,l),
(509,252,l),
(494,133,l),
(494,0,l),
(521,0,l)
);
},
{
closed = 1;
nodes = (
(438,-12,o),
(509,144,o),
(509,252,cs),
(509,361,o),
(434,513,o),
(278,513,cs),
(127,513,o),
(32,404,o),
(32,252,cs),
(32,98,o),
(127,-12,o),
(278,-12,cs)
);
},
{
closed = 1;
nodes = (
(145,5,o),
(58,117,o),
(58,252,cs),
(58,385,o),
(143,497,o),
(272,497,cs),
(398,497,o),
(506,402,o),
(506,252,cs),
(506,100,o),
(400,5,o),
(273,5,cs)
);
}
);
width = 574.2;
},
{
anchors = (
{
name = bottom;
pos = (361,0);
},
{
name = top;
pos = (734,500);
}
);
layerId = "3ED9E848-BE83-4CAC-8EFF-D71BD2B4F667";
shapes = (
{
closed = 1;
nodes = (
(620,700,l),
(441,700,l),
(441,513,l),
(462,252,l),
(441,3,l),
(441,0,l),
(619,0,l)
);
},
{
closed = 1;
nodes = (
(448,-8,o),
(470,64,o),
(470,252,cs),
(470,439,o),
(438,512,o),
(285,512,cs),
(125,512,o),
(18,392,o),
(18,252,cs),
(18,114,o),
(125,-8,o),
(285,-8,cs)
);
},
{
closed = 1;
nodes = (
(250,123,o),
(210,172,o),
(210,252,cs),
(210,332,o),
(250,382,o),
(323,382,cs),
(409,382,o),
(450,333,o),
(450,252,cs),
(450,164,o),
(404,123,o),
(323,123,cs)
);
}
);
width = 651.52083;
}
);
note = d;
unicode = 100;
},
{
glyphname = eth;
lastChange = "2023-09-13 03:40:42 +0000";
layers = (
{
layerId = "F5467FAD-1970-4982-B3D3-939C01050498";
shapes = (
{
closed = 1;
nodes = (
(466,-34,o),
(553,128,o),
(552.99,311.98,cs),
(553,509.95,o),
(446.01,663.6,o),
(268.24,745.05,c),
(326.99,795.99,l),
(307.99,814.99,l),
(240.87,756.79,l),
(191.3,776.66,o),
(136.78,791.24,o),
(77.99,799.99,c),
(77.99,763.99,l),
(125.46,755.24,o),
(168.75,743.23,o),
(208.02,728.3,c),
(149.99,677.99,l),
(168.99,658.99,l),
(235.84,716.95,l),
(407.06,642.09,o),
(494.37,507.56,o),
(511.74,346.79,c),
(470.17,422.43,o),
(390.75,490.99,o),
(286.99,490.99,cs),
(145,491,o),
(38,389,o),
(37.99,235.99,cs),
(38,100,o),
(123,-34,o),
(283.99,-34.01,cs)
);
},
{
closed = 1;
nodes = (
(169.99,-4.02,o),
(84.99,103.98,o),
(84.99,240.98,cs),
(85,364,o),
(165,462,o),
(289.99,461.98,cs),
(407.99,461.98,o),
(509.99,371.98,o),
(509.99,220.98,cs),
(510,93,o),
(419,-4,o),
(288.99,-4.02,cs)
);
}
);
width = 573;
},
{
layerId = "6DD95C5A-998B-41AB-BDFB-84A73C209871";
shapes = (
{
closed = 1;
nodes = (
(481,-4,o),
(566,161,o),
(565.99,326,cs),
(566,486.29,o),
(483.31,618.08,o),
(345.65,698.23,c),
(393.99,740,l),
(330.99,814,l),
(248.94,742.74,l),
(190.94,763.29,o),
(126.52,776.41,o),
(56.99,781,c),
(56.99,665,l),
(87.34,661.52,o),
(115.61,656.4,o),
(141.87,649.76,c),
(102.99,615.99,l),
(165.99,542.99,l),
(244.73,611.03,l),
(295.51,584.11,o),
(334.48,548.9,o),
(362.56,507.18,c),
(339.47,514.11,o),
(314.58,518,o),
(287.99,518,cs),
(145,518,o),
(25,414,o),
(24.99,263,cs),
(25,126,o),
(126,-4,o),
(285.99,-4,cs)
);
},
{
closed = 1;
nodes = (
(228.99,108,o),
(178.99,171,o),
(178.99,267,cs),
(178.99,350.65,o),
(226.15,406.88,o),
(290.67,406.88,cs),
(340.11,406.88,o),
(414.99,369.33,o),
(414.99,251,cs),
(415,195,o),
(387,115,o),
(290,108,cs)
);
}
);
width = 573;
},
{
layerId = "1FDC7037-1F88-4969-8535-0F79C1EF19DB";
shapes = (
{
closed = 1;
nodes = (
(464,-39,o),
(551,123,o),
(551,310,cs),
(551,514,o),
(440,671,o),
(256,753,c),
(316,805,l),
(304,815,l),
(240,759,l),
(191,779,o),
(138,794,o),
(81,803,c),
(81,780,l),
(132,770,o),
(177,757,o),
(219,741,c),
(158,688,l),
(169,678,l),
(234,734,l),
(425,651,o),
(520,501,o),
(536,321,c),
(491,408,o),
(403,487,o),
(287,487,cs),
(145,487,o),
(40,385,o),
(40,232,cs),
(40,96,o),
(123,-39,o),
(284,-39,cs)
);
},
{
closed = 1;
nodes = (
(161,-22,o),
(70,93,o),
(70,237,cs),
(70,366,o),
(155,471,o),
(290,471,cs),
(419,471,o),
(525,372,o),
(525,216,cs),
(525,77,o),
(424,-23,o),
(289,-22,cs)
);
}
);
width = 573;
},
{
layerId = "3ED9E848-BE83-4CAC-8EFF-D71BD2B4F667";
shapes = (
{
closed = 1;
nodes = (
(485,3,o),
(569,169,o),
(569,329,cs),
(569,480,o),
(492,607,o),
(365,687,c),
(410,726,l),
(337,814,l),
(251,739,l),
(191,760,o),
(124,773,o),
(52,776,c),
(52,641,l),
(78,639,o),
(103,635,o),
(126,630,c),
(91,601,l),
(165,514,l),
(247,585,l),
(268,570,o),
(295,559,o),
(326,547,c),
(307,537,o),
(296,525,o),
(288,525,cs),
(145,525,o),
(22,420,o),
(22,270,cs),
(22,132,o),
(127,3,o),
(286,3,cs)
);
},
{
closed = 1;
nodes = (
(243,136,o),
(202,188,o),
(202,273,cs),
(202,347,o),
(241,393,o),
(291,393,cs),
(323,393,o),
(392,369,o),
(392,258,cs),
(392,220,o),
(379,144,o),
(290,136,cs)
);
}
);
width = 573;
}
);
note = eth;
unicode = 240;
},
{
glyphname = dcroat;
lastChange = "2023-09-13 03:40:42 +0000";
layers = (
{
layerId = "F5467FAD-1970-4982-B3D3-939C01050498";
shapes = (
{
closed = 1;
nodes = (
(586,640,l),
(406,640,l),
(406,598,l),
(586,598,l)
);
},
{
ref = d;
}
);
width = 586;
},
{
layerId = "6DD95C5A-998B-41AB-BDFB-84A73C209871";
shapes = (
{
closed = 1;
nodes = (
(658,633,l),
(325,633,l),
(325,538,l),
(658,538,l)
);
},
{
ref = d;
}
);
width = 638;
},
{
layerId = "1FDC7037-1F88-4969-8535-0F79C1EF19DB";
shapes = (
{
closed = 1;
nodes = (
(574,641,l),
(419,641,l),
(419,608,l),
(574,608,l)
);
},
{
alignment = -1;
ref = d;
}
);
width = 577.68;
},
{
layerId = "3ED9E848-BE83-4CAC-8EFF-D71BD2B4F667";
shapes = (
{
closed = 1;
nodes = (
(676,631,l),
(305,631,l),
(305,523,l),
(676,523,l)
);
},
{
alignment = -1;
ref = d;
}
);
width = 650.78333;
}
);
unicode = 273;
},
{
glyphname = e;
kernLeft = a;
kernRight = ae;
lastChange = "2023-09-13 03:40:42 +0000";
layers = (
{
anchors = (
{
name = bottom;
pos = (302,0);
},
{
name = ogonek;
pos = (326,0);
},
{
name = top;
pos = (308,500);
}
);
layerId = "F5467FAD-1970-4982-B3D3-939C01050498";
shapes = (
{
closed = 1;
nodes = (
(78,251,l),
(524,251,l),
(525.83,265.39,o),
(526.73,279.35,o),
(526.73,292.83,cs),
(526.73,426.37,o),
(438.33,513,o),
(293,513,cs),
(150,513,o),
(30,420,o),
(30,256,cs),
(30,72,o),
(156,-14,o),
(300,-14,cs),
(403,-14,o),
(477,19,o),
(525,78,c),
(484,107,l),
(450,58,o),
(402,14,o),
(300,14,cs),
(186,14,o),
(81,93,o),
(83,260,cs),
(85,393,o),
(164,488,o),
(293,488,cs),
(419,488,o),
(478.87,411.92,o),
(478.87,327.49,cs),
(478.87,308.77,o),
(477,296,o),
(473,279,c),
(78,279,l)
);
}
);
width = 567;
},
{
anchors = (
{
name = bottom;
pos = (302,0);
},
{
name = ogonek;
pos = (326,0);
},
{
name = top;
pos = (308,500);
}
);
layerId = "6DD95C5A-998B-41AB-BDFB-84A73C209871";
shapes = (
{
closed = 1;
nodes = (
(161,215,l),
(538,215,l),
(544,242,o),
(547,267,o),
(547,291,cs),
(547,426,o),
(450,511,o),
(293,511,cs),
(138,511,o),
(30,413,o),
(30,255,cs),
(30,78,o),
(142,-12,o),
(303,-12,cs),
(415,-12,o),
(518,35,o),
(553,128,c),
(430,186,l),
(412,132,o),
(376,93,o),
(313,93,cs),
(217,93,o),
(176,150,o),
(176,254,cs),
(176,365,o),
(238,406,o),
(297,406,cs),
(358,406,o),
(395,376,o),
(395,326,cs),
(395,320,o),
(394,314,o),
(393,308,c),
(166,308,l)
);
}
);
width = 593;
},
{
anchors = (
{
name = bottom;
pos = (302,0);
},
{
name = ogonek;
pos = (326,0);
},
{
name = top;
pos = (308,500);
}
);
layerId = "1FDC7037-1F88-4969-8535-0F79C1EF19DB";
shapes = (
{
closed = 1;
nodes = (
(65,257,l),
(522,257,l),
(523,269,o),
(523,281,o),
(523,293,cs),
(523,426,o),
(436,513,o),
(293,513,cs),
(152,513,o),
(30,421,o),
(30,256,cs),
(30,71,o),
(158,-14,o),
(300,-14,cs),
(401,-14,o),
(470,16,o),
(521,70,c),
(493,94,l),
(456,46,o),
(406,1,o),
(298,1,cs),
(181,1,o),
(66,84,o),
(68,261,cs),
(70,397,o),
(152,501,o),
(292,501,cs),
(429,501,o),
(492,418,o),
(492,328,cs),
(492,307,o),
(490,293,o),
(486,274,c),
(64,274,l)
);
}
);
width = 562.84;
},
{
anchors = (
{
name = bottom;
pos = (302,0);
},
{
name = ogonek;
pos = (326,0);
},
{
name = top;
pos = (308,500);
}
);
layerId = "3ED9E848-BE83-4CAC-8EFF-D71BD2B4F667";
shapes = (
{
closed = 1;
nodes = (
(181,206,l),
(541,206,l),
(548,236,o),
(552,264,o),
(552,291,cs),
(552,426,o),
(453,511,o),
(293,511,cs),
(135,511,o),
(30,411,o),
(30,255,cs),
(30,79,o),
(139,-12,o),
(304,-12,cs),
(418,-12,o),
(528,39,o),
(560,140,c),
(417,205,l),
(403,150,o),
(370,112,o),
(316,112,cs),
(225,112,o),
(199,164,o),
(199,253,cs),
(198,358,o),
(256,386,o),
(298,386,cs),
(343,386,o),
(374,367,o),
(374,326,cs),
(374,323,o),
(374,318,o),
(373,315,c),
(188,315,l)
);
}
);
width = 599.39167;
}
);
note = e;
unicode = 101;
},
{
glyphname = f;
kernLeft = f;
kernRight = f;
lastChange = "2023-09-13 03:40:42 +0000";
layers = (
{
layerId = "F5467FAD-1970-4982-B3D3-939C01050498";
shapes = (
{
closed = 1;
nodes = (
(158,1,l),
(158,466,l),
(346,466,l),
(346,501,l),
(228,501,l),
(123,523,o),
(94,575,o),
(94,621,cs),
(94,690,o),
(151,728,o),
(214,728,cs),
(271,728,o),
(311,695,o),
(331,663,c),
(375,691,l),
(345,719,o),
(282,746,o),
(214,746,cs),
(98,746,o),
(58,674,o),
(58,625,cs),
(58,570,o),
(94,514,o),
(176,501,c),
(9,501,l),
(9,466,l),
(115,466,l),
(114,1,l)
);
}
);
width = 367;
},
{
layerId = "6DD95C5A-998B-41AB-BDFB-84A73C209871";
shapes = (
{
closed = 1;
nodes = (
(246,0,l),
(246,385,l),
(402,385,l),
(402,501,l),
(274,501,ls),
(218,501,o),
(188,538,o),
(188,572,cs),
(188,616,o),
(215,644,o),
(267,644,cs),
(325,644,o),
(343,593,o),
(352,577,c),
(482,632,l),
(466,657,o),
(396,738,o),
(267,738,cs),
(126,738,o),
(48,674,o),
(48,586,cs),
(48,533,o),
(79,509,o),
(93,501,c),
(7,501,l),
(7,385,l),
(95,385,l),
(94,0,l)
);
}
);
width = 397;
},
{
layerId = "1FDC7037-1F88-4969-8535-0F79C1EF19DB";
shapes = (
{
closed = 1;
nodes = (
(144,1,l),
(144,479,l),
(337,479,l),
(337,501,l),
(221,501,l),
(108,527,o),
(79,581,o),
(79,629,cs),
(79,702,o),
(141,741,o),
(206,741,cs),
(262,741,o),
(306,711,o),
(328,677,c),
(358,700,l),
(326,729,o),
(264,747,o),
(206,747,cs),
(94,747,o),
(60,674,o),
(60,631,cs),
(60,576,o),
(96,515,o),
(189,501,c),
(9,501,l),
(9,479,l),
(118,479,l),
(117,1,l)
);
}
);
width = 362.2;
},
{
layerId = "3ED9E848-BE83-4CAC-8EFF-D71BD2B4F667";
shapes = (
{
closed = 1;
nodes = (
(268,0,l),
(268,365,l),
(416,365,l),
(416,501,l),
(285,501,l),
(241,496,o),
(211,529,o),
(211,560,cs),
(211,598,o),
(231,623,o),
(280,623,cs),
(338,623,o),
(351,568,o),
(357,556,c),
(508,618,l),
(496,642,o),
(424,736,o),
(280,736,cs),
(133,736,o),
(46,674,o),
(46,576,cs),
(46,524,o),
(75,508,o),
(73,501,c),
(7,501,l),
(7,365,l),
(90,365,l),
(89,0,l)
);
}
);
width = 404.375;
}
);
note = f;
unicode = 102;
},
{
glyphname = g;
kernLeft = a;
kernRight = a;
lastChange = "2023-09-13 03:40:42 +0000";
layers = (
{
anchors = (
{
name = top;
pos = (308,500);
}
);
layerId = "F5467FAD-1970-4982-B3D3-939C01050498";
shapes = (
{
closed = 1;
nodes = (
(425,-259,o),
(533,-175,o),
(533,-1,c),
(488,-1,l),
(488,-153,o),
(396,-230,o),
(282,-230,cs),
(174,-230,o),
(126,-177,o),
(101,-128,c),
(57,-138,l),
(88,-207,o),
(154,-259,o),
(282,-259,cs)
);
},
{
closed = 1;
nodes = (
(488,500,l),
(488,382,l),
(504,248,l),
(488,116,l),
(488,-1,l),
(533,-1,l),
(532,500,l)
);
},
{
closed = 1;
nodes = (
(127,512,o),
(30,400,o),
(30,248,cs),
(30,97,o),
(127,-13,o),
(279,-13,cs),
(434,-13,o),
(505,130,o),
(505,248,cs),
(505,365,o),
(439,512,o),
(279,512,cs)
);
},
{
closed = 1;
nodes = (
(400,482,o),
(500,393,o),
(500,248,cs),
(500,106,o),
(399,16,o),
(278,16,cs),
(155,16,o),
(75,121,o),
(75,248,cs),
(75,377,o),
(157,482,o),
(279,482,cs)
);
}
);
width = 583;
},
{
anchors = (
{
name = top;
pos = (328,500);
}
);
layerId = "6DD95C5A-998B-41AB-BDFB-84A73C209871";
shapes = (
{
closed = 1;
nodes = (
(485,-260,o),
(603,-159,o),
(603,8,c),
(450,8,l),
(450,-95,o),
(398,-149,o),
(317,-149,cs),
(241,-149,o),
(215,-112,o),
(196,-58,c),
(51,-86,l),
(70,-170,o),
(151,-260,o),
(317,-260,cs)
);
},
{
closed = 1;
nodes = (
(450,500,l),
(450,474,l),
(470,248,l),
(450,43,l),
(450,8,l),
(603,8,l),
(602,500,l)
);
},
{
closed = 1;
nodes = (
(125,509,o),
(20,389,o),
(20,248,cs),
(20,106,o),
(125,-12,o),
(284,-12,cs),
(437,-12,o),
(477,75,o),
(477,248,cs),
(477,422,o),
(446,509,o),
(284,509,cs)
);
},
{
closed = 1;
nodes = (
(401,398,o),
(458,347,o),
(458,248,cs),
(458,150,o),
(401,98,o),
(312,98,cs),
(229,98,o),
(181,159,o),
(181,248,cs),
(181,338,o),
(229,398,o),
(312,398,cs)
);
}
);
width = 638;
},
{
anchors = (
{
name = top;
pos = (308,500);
}
);
associatedMasterId = "F5467FAD-1970-4982-B3D3-939C01050498";
layerId = "1A3D1C02-0D7E-4115-85FD-4E4657FDD924";
name = "24 juil. 23 à 14:37";
shapes = (
{
closed = 1;
nodes = (
(427.99,-259,o),
(535.99,-175,o),
(535.99,-1,c),
(535,500,l),
(491,500,l),
(491,382,l),
(497.28,321.14,l),
(474.02,418.8,o),
(403.64,512,o),
(279,512,cs),
(127,512,o),
(30,400,o),
(30,248,cs),
(30,97,o),
(127,-14,o),
(279,-14,cs),
(403.42,-14,o),
(473.77,78.24,o),
(497.15,174.95,c),
(490.99,102,l),
(490.99,-1,ls),
(490.99,-153,o),
(398.99,-230,o),
(284.99,-230,cs),
(176.99,-230,o),
(128.99,-177,o),
(103.99,-128,c),
(59.99,-138,l),
(90.99,-207,o),
(156.99,-259,o),
(284.99,-259,cs)
);
},
{
closed = 1;
nodes = (
(155.99,16,o),
(74.99,121,o),
(74.99,248,cs),
(74.99,377,o),
(157,482,o),
(279,482,cs),
(400,482,o),
(500.99,393,o),
(500.99,248,cs),
(500.99,105,o),
(399.99,16,o),
(278.99,16,cs)
);
}
);
width = 586;
},
{
anchors = (
{
name = top;
pos = (328,500);
}
);
associatedMasterId = "6DD95C5A-998B-41AB-BDFB-84A73C209871";
layerId = "EF031D6A-BAE9-4606-BB20-E753BE158385";
name = "24 juil. 23 à 14:37";
shapes = (
{
closed = 1;
nodes = (
(485,-260,o),
(603,-159,o),
(603,8,c),
(602,500,l),
(450,500,l),
(450,477,l),
(450,453.53,l),
(412.85,486.81,o),
(361.89,509,o),
(294,509,cs),
(134,509,o),
(30,389,o),
(30,248,cs),
(30,106,o),
(135,-12,o),
(294,-12,cs),
(361.89,-12,o),
(412.85,10.05,o),
(450,43.15,c),
(450,26,l),
(450,8,ls),
(450,-95,o),
(398,-149,o),
(317,-149,cs),
(241,-149,o),
(215,-112,o),
(196,-58,c),
(51,-86,l),
(70,-170,o),
(151,-260,o),
(317,-260,cs)
);
},
{
closed = 1;
nodes = (
(231,98,o),
(183,159,o),
(183,248,cs),
(183,338,o),
(231,398,o),
(314,398,cs),
(403,398,o),
(460,347,o),
(460,248,cs),
(460,150,o),
(403,98,o),
(314,98,cs)
);
}
);
width = 653;
},
{
anchors = (
{
name = top;
pos = (305,500);
}
);
layerId = "1FDC7037-1F88-4969-8535-0F79C1EF19DB";
shapes = (
{
closed = 1;
nodes = (
(415,-259,o),
(522,-178,o),
(522,-2,c),
(494,-2,l),
(494,-162,o),
(396,-243,o),
(276,-243,cs),
(163,-243,o),
(112,-187,o),
(86,-139,c),
(58,-146,l),
(91,-213,o),
(154,-259,o),
(276,-259,cs)
);
},
{
closed = 1;
nodes = (
(494,500,l),
(494,367,l),
(509,248,l),
(494,128,l),
(494,-2,l),
(522,-2,l),
(521,500,l)
);
},
{
closed = 1;
nodes = (
(127,512,o),
(32,402,o),
(32,248,cs),
(32,96,o),
(127,-13,o),
(278,-13,cs),
(434,-13,o),
(509,139,o),
(509,248,cs),
(509,356,o),
(438,512,o),
(278,512,cs)
);
},
{
closed = 1;
nodes = (
(400,495,o),
(507,400,o),
(507,248,cs),
(507,99,o),
(399,3,o),
(273,3,cs),
(143,3,o),
(58,115,o),
(58,248,cs),
(58,383,o),
(145,495,o),
(274,495,cs)
);
}
);
width = 574.2;
},
{
anchors = (
{
name = top;
pos = (333,500);
}
);
layerId = "3ED9E848-BE83-4CAC-8EFF-D71BD2B4F667";
shapes = (
{
closed = 1;
nodes = (
(500,-260,o),
(620,-155,o),
(620,10,c),
(441,10,l),
(441,-81,o),
(398,-129,o),
(326,-129,cs),
(258,-129,o),
(237,-96,o),
(219,-41,c),
(50,-73,l),
(66,-161,o),
(150,-260,o),
(326,-260,cs)
);
},
{
closed = 1;
nodes = (
(441,500,l),
(441,497,l),
(462,248,l),
(441,25,l),
(441,10,l),
(620,10,l),
(619,500,l)
);
},
{
closed = 1;
nodes = (
(125,508,o),
(18,386,o),
(18,248,cs),
(18,108,o),
(125,-12,o),
(285,-12,cs),
(438,-12,o),
(470,61,o),
(470,248,cs),
(470,436,o),
(448,508,o),
(285,508,cs)
);
},
{
closed = 1;
nodes = (
(401,377,o),
(448,336,o),
(448,248,cs),
(448,161,o),
(401,118,o),
(320,118,cs),
(247,118,o),
(207,168,o),
(207,248,cs),
(207,328,o),
(247,377,o),
(320,377,cs)
);
}
);
width = 651.52083;
}
);
note = g;
unicode = 103;
},
{
glyphname = h;
kernLeft = b;
kernRight = a;
lastChange = "2023-09-13 03:40:42 +0000";
layers = (
{
anchors = (
{
name = bottom;
pos = (285,0);
},
{
name = top;
pos = (285,700);
}
);
layerId = "F5467FAD-1970-4982-B3D3-939C01050498";
shapes = (
{
closed = 1;
nodes = (
(94,0,l),
(94,277,l),
(111,420,o),
(218,481.29,o),
(307,481.29,cs),
(432,481.29,o),
(477,398,o),
(477,304,cs),
(477,1,l),
(521,1,l),
(521,304,ls),
(521,409,o),
(482,506.29,o),
(320,506.29,cs),
(224.49,506.29,o),
(124.31,435.46,o),
(94,342.52,c),
(94,700,l),
(50,700,l),
(50,0,l)
);
}
);
width = 572;
},
{
anchors = (
{
name = bottom;
pos = (310,0);
},
{
name = top;
pos = (310,700);
}
);
layerId = "6DD95C5A-998B-41AB-BDFB-84A73C209871";
shapes = (
{
closed = 1;
nodes = (
(197,0,l),
(197.02,239.38,l),
(197.24,354.65,o),
(267.31,399,o),
(330.03,399,cs),
(393.27,399,o),
(414.69,361,o),
(414.69,294,cs),
(414.69,0,l),
(569.75,0,l),
(569.75,294,ls),
(569.75,391,o),
(526.9,507,o),
(341.24,507,cs),
(276.59,507,o),
(229.59,484.17,o),
(197,447.23,c),
(197,700,l),
(45,700,l),
(45,0,l)
);
}
);
width = 620;
},
{
anchors = (
{
name = bottom;
pos = (281,0);
},
{
name = top;
pos = (281,700);
}
);
layerId = "1FDC7037-1F88-4969-8535-0F79C1EF19DB";
shapes = (
{
closed = 1;
nodes = (
(78,0,l),
(78,283,l),
(97,430,o),
(210,494,o),
(303,494,cs),
(438,494,o),
(487,404,o),
(487,306,cs),
(487,1,l),
(513,1,l),
(513,306,ls),
(513,412,o),
(475,506,o),
(317,506,cs),
(216,506,o),
(107,428,o),
(78,326,c),
(78,700,l),
(51,700,l),
(51,0,l)
);
}
);
width = 564.32;
},
{
anchors = (
{
name = bottom;
pos = (316,0);
},
{
name = top;
pos = (316,700);
}
);
layerId = "3ED9E848-BE83-4CAC-8EFF-D71BD2B4F667";
shapes = (
{
closed = 1;
nodes = (
(222,0,l),
(222,230,l),
(218,339,o),
(279,379,o),
(336,379,cs),
(384,379,o),
(399,352,o),
(399,292,cs),
(399,0,l),
(582,0,l),
(582,292,ls),
(582,387,o),
(538,507,o),
(346,507,cs),
(289,507,o),
(256,496,o),
(222,473,c),
(222,700,l),
(44,700,l),
(44,0,l)
);
}
);
width = 631.8;
}
);
note = h;
unicode = 104;
},
{
glyphname = hbar;
lastChange = "2023-09-13 03:40:42 +0000";
layers = (
{
layerId = "F5467FAD-1970-4982-B3D3-939C01050498";
shapes = (
{
closed = 1;
nodes = (
(189,631,l),
(9,631,l),
(9,589,l),
(189,589,l)
);
},
{
ref = h;
}
);
width = 572;
},
{
layerId = "6DD95C5A-998B-41AB-BDFB-84A73C209871";
shapes = (
{
closed = 1;
nodes = (
(342,648,l),
(9,648,l),
(9,553,l),
(342,553,l)
);
},
{
ref = h;
}
);
width = 620;
},
{
layerId = "1FDC7037-1F88-4969-8535-0F79C1EF19DB";
shapes = (
{
closed = 1;
nodes = (
(165,628,l),
(9,628,l),
(9,595,l),
(165,595,l)
);
},
{
alignment = -1;
ref = h;
}
);
width = 564.32;
},
{
layerId = "3ED9E848-BE83-4CAC-8EFF-D71BD2B4F667";
shapes = (
{
closed = 1;
nodes = (
(380,652,l),
(9,652,l),
(9,544,l),
(380,544,l)
);
},
{
alignment = -1;
ref = h;
}
);
width = 631.8;
}
);
unicode = 295;
},
{
glyphname = dotlessi;
kernLeft = i;
kernRight = i;
lastChange = "2023-09-13 03:40:42 +0000";
layers = (
{
anchors = (
{
name = bottom;
pos = (102,0);
},
{
name = ogonek;
pos = (80,0);
},
{
name = top;
pos = (102,500);
}
);
layerId = "F5467FAD-1970-4982-B3D3-939C01050498";
shapes = (
{
closed = 1;
nodes = (
(124,0,l),
(124,500,l),
(80,500,l),
(80,0,l)
);
}
);
width = 204;
},
{
anchors = (
{
name = bottom;
pos = (156,0);
},
{
name = ogonek;
pos = (80,0);
},
{
name = top;
pos = (156,500);
}
);
layerId = "6DD95C5A-998B-41AB-BDFB-84A73C209871";
shapes = (
{
closed = 1;
nodes = (
(232,0,l),
(232,500,l),
(80,500,l),
(80,0,l)
);
}
);
width = 312;
},
{
anchors = (
{
name = bottom;
pos = (93,0);
},
{
name = ogonek;
pos = (80,0);
},
{
name = top;
pos = (93,500);
}
);
layerId = "1FDC7037-1F88-4969-8535-0F79C1EF19DB";
shapes = (
{
closed = 1;
nodes = (
(107,0,l),
(107,500,l),
(80,500,l),
(80,0,l)
);
}
);
width = 186.72;
},
{
anchors = (
{
name = bottom;
pos = (169,0);
},
{
name = ogonek;
pos = (80,0);
},
{
name = top;
pos = (169,500);
}
);
layerId = "3ED9E848-BE83-4CAC-8EFF-D71BD2B4F667";
shapes = (
{
closed = 1;
nodes = (
(259,0,l),
(259,500,l),
(80,500,l),
(80,0,l)
);
}
);
width = 338.55;
}
);
note = dotlessi;
unicode = 305;
},
{
glyphname = jdotless;
lastChange = "2023-09-13 03:40:42 +0000";
layers = (
{
anchors = (
{
name = top;
pos = (102,500);
}
);
layerId = "F5467FAD-1970-4982-B3D3-939C01050498";
shapes = (
{
closed = 1;
nodes = (
(100,-260,o),
(124,-135,o),
(124,-70,cs),
(124,500,l),
(80,500,l),
(80,-70,ls),
(80,-187,o),
(34,-232,o),
(-59,-232,cs),
(-111,-232,o),
(-145,-205,o),
(-171,-176,c),
(-209,-203,l),
(-180,-232,o),
(-136,-260,o),
(-59,-260,cs)
);
}
);
width = 204;
},
{
anchors = (
{
name = top;
pos = (156,500);
}
);
layerId = "6DD95C5A-998B-41AB-BDFB-84A73C209871";
shapes = (
{
closed = 1;
nodes = (
(186,-260,o),
(232,-144,o),
(232,-62,cs),
(232,500,l),
(80,500,l),
(80,-62,ls),
(80,-105,o),
(60,-143,o),
(2,-143,cs),
(-46,-143,o),
(-58,-96,o),
(-64,-72,c),
(-175,-156,l),
(-156,-183,o),
(-95,-260,o),
(22,-260,cs)
);
}
);
width = 312;
},
{
anchors = (
{
name = top;
pos = (93,500);
}
);
layerId = "1FDC7037-1F88-4969-8535-0F79C1EF19DB";
shapes = (
{
closed = 1;
nodes = (
(86,-260,o),
(107,-134,o),
(107,-71,cs),
(107,500,l),
(80,500,l),
(80,-71,ls),
(80,-200,o),
(30,-246,o),
(-69,-246,cs),
(-121,-246,o),
(-159,-222,o),
(-188,-193,c),
(-214,-211,l),
(-184,-240,o),
(-143,-260,o),
(-72,-260,cs)
);
}
);
width = 186.72;
},
{
anchors = (
{
name = top;
pos = (169,500);
}
);
layerId = "3ED9E848-BE83-4CAC-8EFF-D71BD2B4F667";
shapes = (
{
closed = 1;
nodes = (
(207,-260,o),
(259,-146,o),
(259,-60,cs),
(259,500,l),
(80,500,l),
(80,-60,ls),
(80,-85,o),
(66,-121,o),
(17,-121,cs),
(-30,-121,o),
(-37,-69,o),
(-38,-46,c),
(-167,-144,l),
(-150,-171,o),
(-85,-260,o),
(42,-260,cs)
);
}
);
width = 338.55;
}
);
unicode = 567;
},
{
glyphname = k;
kernLeft = b;
kernRight = k;
lastChange = "2023-09-13 03:40:42 +0000";
layers = (
{
anchors = (
{
name = bottom;
pos = (214,0);
},
{
name = top;
pos = (214,500);
}
);
layerId = "F5467FAD-1970-4982-B3D3-939C01050498";
shapes = (
{
closed = 1;
nodes = (
(94,0,l),
(94,204,l),
(83,168,l),
(217,307,l),
(191,305,l),
(395,0,l),
(447,0,l),
(223,338,l),
(217,307,l),
(403,500,l),
(350,500,l),
(81,221,l),
(94,221,l),
(94,700,l),
(50,700,l),
(50,0,l)
);
}
);
width = 467;
},
{
anchors = (
{
name = bottom;
pos = (298,0);
},
{
name = top;
pos = (298,500);
}
);
layerId = "6DD95C5A-998B-41AB-BDFB-84A73C209871";
shapes = (
{
closed = 1;
nodes = (
(202,0,l),
(202,150,l),
(175,96,l),
(325,254,l),
(219,260,l),
(391,0,l),
(561,0,l),
(321,365,l),
(325,254,l),
(554,500,l),
(384,500,l),
(186,292,l),
(202,292,l),
(202,700,l),
(50,700,l),
(50,0,l)
);
}
);
width = 581;
},
{
anchors = (
{
name = bottom;
pos = (201,0);
},
{
name = top;
pos = (201,500);
}
);
layerId = "1FDC7037-1F88-4969-8535-0F79C1EF19DB";
shapes = (
{
closed = 1;
nodes = (
(77,0,l),
(77,213,l),
(68,180,l),
(200,315,l),
(187,312,l),
(396,0,l),
(429,0,l),
(207,334,l),
(200,315,l),
(379,500,l),
(345,500,l),
(64,210,l),
(77,210,l),
(77,700,l),
(50,700,l),
(50,0,l)
);
}
);
width = 448.76;
},
{
anchors = (
{
name = bottom;
pos = (319,0);
},
{
name = top;
pos = (319,500);
}
);
layerId = "3ED9E848-BE83-4CAC-8EFF-D71BD2B4F667";
shapes = (
{
closed = 1;
nodes = (
(229,0,l),
(229,137,l),
(198,78,l),
(352,241,l),
(226,249,l),
(390,0,l),
(589,0,l),
(345,372,l),
(352,241,l),
(591,500,l),
(392,500,l),
(212,309,l),
(229,309,l),
(229,700,l),
(50,700,l),
(50,0,l)
);
}
);
width = 609.025;
}
);
note = k;
unicode = 107;
},
{
glyphname = kgreenlandic;
lastChange = "2023-09-13 03:40:42 +0000";
layers = (
{
layerId = "F5467FAD-1970-4982-B3D3-939C01050498";
shapes = (
{
closed = 1;
nodes = (
(94,0,l),
(94,204,l),
(83,168,l),
(217,307,l),
(191,305,l),
(395,0,l),
(447,0,l),
(223,338,l),
(217,307,l),
(403,500,l),
(350,500,l),
(81,221,l),
(94,221,l),
(94,500,l),
(50,500,l),
(50,0,l)
);
}
);
width = 467;
},
{
layerId = "6DD95C5A-998B-41AB-BDFB-84A73C209871";
shapes = (
{
closed = 1;
nodes = (
(202,0,l),
(202,150,l),
(175,96,l),
(325,254,l),
(219,260,l),
(391,0,l),
(561,0,l),
(321,365,l),
(325,254,l),
(554,500,l),
(384,500,l),
(186,292,l),
(202,292,l),
(202,500,l),
(50,500,l),
(50,0,l)
);
}
);
width = 581;
},
{
layerId = "1FDC7037-1F88-4969-8535-0F79C1EF19DB";
shapes = (
{
closed = 1;
nodes = (
(77,0,l),
(77,213,l),
(68,180,l),
(200,315,l),
(187,312,l),
(396,0,l),
(429,0,l),
(207,334,l),
(200,315,l),
(379,500,l),
(345,500,l),
(64,210,l),
(77,210,l),
(77,500,l),
(50,500,l),
(50,0,l)
);
}
);
width = 448.76;
},
{
layerId = "3ED9E848-BE83-4CAC-8EFF-D71BD2B4F667";
shapes = (
{
closed = 1;
nodes = (
(229,0,l),
(229,137,l),
(198,78,l),
(352,241,l),
(226,249,l),
(390,0,l),
(589,0,l),
(345,372,l),
(352,241,l),
(591,500,l),
(392,500,l),
(212,309,l),
(229,309,l),
(229,500,l),
(50,500,l),
(50,0,l)
);
}
);
width = 609.025;
}
);
metricLeft = k;
metricRight = k;
unicode = 312;
},
{
glyphname = l;
kernLeft = b;
kernRight = l;
lastChange = "2023-09-13 03:40:42 +0000";
layers = (
{
anchors = (
{
name = bottom;
pos = (102,0);
},
{
name = top;
pos = (102,700);
}
);
layerId = "F5467FAD-1970-4982-B3D3-939C01050498";
shapes = (
{
closed = 1;
nodes = (
(124,0,l),
(124,700,l),
(80,700,l),
(80,0,l)
);
}
);
width = 204;
},
{
anchors = (
{
name = bottom;
pos = (156,0);
},
{
name = top;
pos = (156,700);
}
);
layerId = "6DD95C5A-998B-41AB-BDFB-84A73C209871";
shapes = (
{
closed = 1;
nodes = (
(232,0,l),
(232,700,l),
(80,700,l),
(80,0,l)
);
}
);
width = 312;
},
{
anchors = (
{
name = bottom;
pos = (93,0);
},
{
name = top;
pos = (93,700);
}
);
layerId = "1FDC7037-1F88-4969-8535-0F79C1EF19DB";
shapes = (
{
closed = 1;
nodes = (
(107,0,l),
(107,700,l),
(80,700,l),
(80,0,l)
);
}
);
width = 186.72;
},
{
anchors = (
{
name = bottom;
pos = (169,0);
},
{
name = top;
pos = (169,700);
}
);
layerId = "3ED9E848-BE83-4CAC-8EFF-D71BD2B4F667";
shapes = (
{
closed = 1;
nodes = (
(259,0,l),
(259,700,l),
(80,700,l),
(80,0,l)
);
}
);
width = 338.55;
}
);
note = l;
unicode = 108;
},
{
glyphname = lslash;
lastChange = "2023-09-13 03:40:42 +0000";
layers = (
{
layerId = "F5467FAD-1970-4982-B3D3-939C01050498";
shapes = (
{
closed = 1;
nodes = (
(207,0,l),
(207,381.2,l),
(388,433,l),
(388,470,l),
(207,418.2,l),
(207,700,l),
(163,700,l),
(163,405.61,l),
(84,383,l),
(84,346,l),
(163,368.61,l),
(163,0,l)
);
}
);
width = 472;
},
{
layerId = "6DD95C5A-998B-41AB-BDFB-84A73C209871";
shapes = (
{
closed = 1;
nodes = (
(333,0,l),
(333,364.11,l),
(420,389,l),
(419,512,l),
(333,487.39,l),
(333,700,l),
(181,700,l),
(181,443.9,l),
(52,407,l),
(53,284,l),
(181,320.62,l),
(181,0,l)
);
}
);
width = 472;
},
{
layerId = "1FDC7037-1F88-4969-8535-0F79C1EF19DB";
shapes = (
{
closed = 1;
nodes = (
(187,0,l),
(187,384,l),
(383,440,l),
(383,463,l),
(187,407,l),
(187,700,l),
(160,700,l),
(160,399,l),
(89,379,l),
(89,356,l),
(160,376,l),
(160,0,l)
);
}
);
width = 472;
},
{
layerId = "3ED9E848-BE83-4CAC-8EFF-D71BD2B4F667";
shapes = (
{
closed = 1;
nodes = (
(364,0,l),
(364,360,l),
(428,378,l),
(427,522,l),
(364,504,l),
(364,700,l),
(185,700,l),
(185,453,l),
(44,413,l),
(45,269,l),
(185,309,l),
(185,0,l)
);
}
);
width = 472;
}
);
note = lslash;
unicode = 322;
},
{
glyphname = m;
kernLeft = m;
kernRight = a;
lastChange = "2023-09-13 03:40:42 +0000";
layers = (
{
anchors = (
{
name = bottom;
pos = (488,0);
},
{
name = top;
pos = (488,700);
}
);
background = {
shapes = (
{
closed = 1;
nodes = (
(94,0,l),
(94,285,l),
(114,422,o),
(217,481,o),
(302,481,cs),
(427,481,o),
(470,397,o),
(470,304,cs),
(470,0,l),
(514,0,l),
(514,285,l),
(534,422,o),
(639,481,o),
(726,481,cs),
(851,481,o),
(895,398,o),
(895,304,cs),
(895,0,l),
(939,0,l),
(939,304,ls),
(939,409,o),
(900,510,o),
(738,510,cs),
(631,510,o),
(538,433,o),
(513,335,c),
(505,428,o),
(458,510,o),
(315,510,cs),
(220,510,o),
(128,445,o),
(94,358,c),
(94,500,l),
(50,500,l),
(50,0,l)
);
}
);
};
layerId = "F5467FAD-1970-4982-B3D3-939C01050498";
shapes = (
{
closed = 1;
nodes = (
(224,507,o),
(124,456,o),
(94,343,c),
(94,500,l),
(50,500,l),
(50,1,l),
(94,1,l),
(94,233,ls),
(94,422,o),
(223,472,o),
(312,472,cs),
(427,472,o),
(467,398,o),
(467,304,cs),
(467,1,l),
(511,1,l),
(511,304,ls),
(511,409,o),
(482,507,o),
(320,507,cs)
);
},
{
closed = 1;
nodes = (
(642,507,o),
(509,456,o),
(495,282,c),
(511,233,l),
(511,422,o),
(641,472,o),
(730,472,cs),
(855,472,o),
(895,398,o),
(895,304,cs),
(895,1,l),
(939,1,l),
(939,304,ls),
(939,409,o),
(900,507,o),
(738,507,cs)
);
}
);
width = 976;
},
{
anchors = (
{
name = bottom;
pos = (480,0);
},
{
name = top;
pos = (480,700);
}
);
background = {
shapes = (
{
closed = 1;
nodes = (
(197,0,l),
(197,239,l),
(197,355,o),
(267,399,o),
(330,399,cs),
(393,399,o),
(415,361,o),
(415,294,cs),
(415,0,l),
(570,0,l),
(570,286,l),
(586,367,o),
(645,401,o),
(700,401,cs),
(764,401,o),
(786,361,o),
(786,294,cs),
(786,0,l),
(944,0,l),
(944,294,ls),
(944,391,o),
(900,509,o),
(711,509,cs),
(631,509,o),
(574,472,o),
(539,418,c),
(507,469,o),
(448,507,o),
(341,507,cs),
(277,507,o),
(230,484,o),
(197,447,c),
(197,500,l),
(45,500,l),
(45,0,l)
);
}
);
};
layerId = "6DD95C5A-998B-41AB-BDFB-84A73C209871";
shapes = (
{
closed = 1;
nodes = (
(277,507,o),
(213,474,o),
(197,422,c),
(197,500,l),
(45,500,l),
(45,0,l),
(197,0,l),
(197,269,ls),
(197,360,o),
(260,399,o),
(323,399,cs),
(376,399,o),
(405,361,o),
(405,294,cs),
(405,0,l),
(560,0,l),
(560,294,ls),
(560,391,o),
(517,507,o),
(341,507,cs)
);
},
{
closed = 1;
nodes = (
(566,507,o),
(518,395,o),
(503,318,c),
(560,269,l),
(560,360,o),
(623,399,o),
(686,399,cs),
(749,399,o),
(778,361,o),
(778,294,cs),
(778,0,l),
(933,0,l),
(933,294,ls),
(933,391,o),
(890,507,o),
(704,507,cs)
);
}
);
width = 994;
},
{
associatedMasterId = "F5467FAD-1970-4982-B3D3-939C01050498";
layerId = "64CD0211-15FE-4936-BA61-E1070913194B";
name = "23 juil. 23 à 22:09";
shapes = (
{
closed = 1;
nodes = (
(94,0,l),
(94,284.62,l),
(113.76,422.17,o),
(216.56,481,o),
(302,481,cs),
(427,481,o),
(470,397,o),
(470,304,cs),
(470,0,l),
(514,0,l),
(514,284.61,l),
(533.83,422.17,o),
(638.6,481,o),
(726,481,cs),
(851,481,o),
(895,398,o),
(895,304,cs),
(895,0,l),
(939,0,l),
(939,304,ls),
(939,409,o),
(900,510,o),
(738,510,cs),
(630.62,510,o),
(538.02,432.58,o),
(512.74,335.02,c),
(504.89,428.04,o),
(458.23,510,o),
(315,510,cs),
(219.77,510,o),
(127.55,444.67,o),
(94,357.63,c),
(94,500,l),
(50,500,l),
(50,0,l)
);
}
);
width = 976;
},
{
associatedMasterId = "6DD95C5A-998B-41AB-BDFB-84A73C209871";
layerId = "1D003824-EE15-49CD-8401-78CCFECE2030";
name = "23 juil. 23 à 22:09";
shapes = (
{
closed = 1;
nodes = (
(197,0,l),
(197,239.38,l),
(197.24,354.65,o),
(267.31,399,o),
(330.03,399,cs),
(393.27,399,o),
(414.69,361,o),
(414.69,294,cs),
(414.69,0,l),
(569.75,0,l),
(569.75,286.49,l),
(586.25,367.46,o),
(645.11,401,o),
(699.53,401,cs),
(764.05,401,o),
(785.9,361,o),
(785.9,294,cs),
(785.9,0,l),
(944.07,0,l),
(944.07,294,ls),
(944.07,391,o),
(900.37,509,o),
(710.98,509,cs),
(630.66,509,o),
(574.25,472.41,o),
(538.72,417.83,c),
(507.36,468.76,o),
(447.84,507,o),
(341.24,507,cs),
(276.59,507,o),
(229.59,484.17,o),
(197,447.23,c),
(197,500,l),
(45,500,l),
(45,0,l)
);
}
);
width = 994;
},
{
anchors = (
{
name = bottom;
pos = (489,0);
},
{
name = top;
pos = (489,700);
}
);
layerId = "1FDC7037-1F88-4969-8535-0F79C1EF19DB";
shapes = (
{
closed = 1;
nodes = (
(216,507,o),
(110,453,o),
(78,330,c),
(78,500,l),
(51,500,l),
(51,1,l),
(78,1,l),
(78,227,ls),
(78,432,o),
(217,484,o),
(310,484,cs),
(435,484,o),
(477,404,o),
(477,306,cs),
(477,1,l),
(503,1,l),
(503,306,ls),
(503,412,o),
(476,507,o),
(317,507,cs)
);
},
{
closed = 1;
nodes = (
(654,507,o),
(508,466,o),
(494,276,c),
(503,227,l),
(503,432,o),
(644,484,o),
(737,484,cs),
(872,484,o),
(914,404,o),
(914,306,cs),
(914,1,l),
(940,1,l),
(940,306,ls),
(940,412,o),
(902,507,o),
(743,507,cs)
);
}
);
width = 973.12;
},
{
anchors = (
{
name = bottom;
pos = (478,0);
},
{
name = top;
pos = (478,700);
}
);
layerId = "3ED9E848-BE83-4CAC-8EFF-D71BD2B4F667";
shapes = (
{
closed = 1;
nodes = (
(290,507,o),
(235,478,o),
(222,441,c),
(222,500,l),
(44,500,l),
(44,0,l),
(222,0,l),
(222,278,ls),
(222,345,o),
(269,381,o),
(326,381,cs),
(363,381,o),
(390,352,o),
(390,292,cs),
(390,0,l),
(572,0,l),
(572,292,ls),
(572,387,o),
(526,507,o),
(346,507,cs)
);
},
{
closed = 1;
nodes = (
(547,507,o),
(520,380,o),
(505,327,c),
(572,278,l),
(572,345,o),
(619,381,o),
(675,381,cs),
(723,381,o),
(749,352,o),
(749,292,cs),
(749,0,l),
(932,0,l),
(932,292,ls),
(932,387,o),
(888,507,o),
(696,507,cs)
);
}
);
width = 998.425;
}
);
note = m;
unicode = 109;
},
{
glyphname = n;
kernLeft = m;
kernRight = a;
lastChange = "2023-09-13 03:40:42 +0000";
layers = (
{
anchors = (
{
name = bottom;
pos = (290,0);
},
{
name = top;
pos = (280,500);
}
);
layerId = "F5467FAD-1970-4982-B3D3-939C01050498";
shapes = (
{
closed = 1;
nodes = (
(224,507,o),
(124,456,o),
(94,343,c),
(94,500,l),
(50,500,l),
(50,0,l),
(94,0,l),
(94,233,ls),
(94,422,o),
(223,472,o),
(312,472,cs),
(437,472,o),
(477,398,o),
(477,304,cs),
(477,0,l),
(521,0,l),
(521,304,ls),
(521,409,o),
(482,507,o),
(320,507,cs)
);
}
);
width = 571;
},
{
anchors = (
{
name = bottom;
pos = (300,0);
},
{
name = top;
pos = (290,500);
}
);
layerId = "6DD95C5A-998B-41AB-BDFB-84A73C209871";
shapes = (
{
closed = 1;
nodes = (
(277,507,o),
(213,474,o),
(197,422,c),
(197,500,l),
(45,500,l),
(45,0,l),
(197,0,l),
(197,269,ls),
(197,360,o),
(260,399,o),
(323,399,cs),
(386,399,o),
(415,361,o),
(415,294,cs),
(414.69,0,l),
(569.74,0,l),
(569.74,294,ls),
(569.74,391,o),
(527,507,o),
(341,507,cs)
);
}
);
width = 600;
},
{
associatedMasterId = "F5467FAD-1970-4982-B3D3-939C01050498";
layerId = "3C353789-449F-4092-BEE0-4CA981632AB3";
name = "23 juil. 23 à 22:05";
shapes = (
{
closed = 1;
nodes = (
(224,507,o),
(124,436,o),
(94,343,c),
(94,500,l),
(50,500,l),
(50,1,l),
(94,1,l),
(94,277,l),
(111,420,o),
(218,482,o),
(307,482,cs),
(432,482,o),
(477,398,o),
(477,304,cs),
(477,1,l),
(521,1,l),
(521,304,ls),
(521,409,o),
(482,507,o),
(320,507,cs)
);
}
);
width = 571;
},
{
associatedMasterId = "6DD95C5A-998B-41AB-BDFB-84A73C209871";
layerId = "7BB64EC5-02E9-450E-915E-662FFD7665C3";
name = "23 juil. 23 à 22:05";
shapes = (
{
closed = 1;
nodes = (
(276.59,507,o),
(229.58,484.17,o),
(197,447.23,c),
(197,500,l),
(45,500,l),
(45,0,l),
(197,0,l),
(197,239.38,l),
(197.24,354.65,o),
(267.31,399,o),
(330.02,399,cs),
(393.27,399,o),
(414.69,361,o),
(414.69,294,cs),
(414.69,0,l),
(569.74,0,l),
(569.74,294,ls),
(569.74,391,o),
(526.9,507,o),
(341.24,507,cs)
);
}
);
width = 600;
},
{
anchors = (
{
name = bottom;
pos = (288,0);
},
{
name = top;
pos = (278,500);
}
);
layerId = "1FDC7037-1F88-4969-8535-0F79C1EF19DB";
shapes = (
{
closed = 1;
nodes = (
(216,507,o),
(110,453,o),
(78,330,c),
(78,500,l),
(51,500,l),
(51,0,l),
(78,0,l),
(78,227,ls),
(78,432,o),
(217,484,o),
(310,484,cs),
(445,484,o),
(487,404,o),
(487,306,cs),
(487,0,l),
(513,0,l),
(513,306,ls),
(513,412,o),
(475,507,o),
(317,507,cs)
);
}
);
width = 566.36;
},
{
anchors = (
{
name = bottom;
pos = (303,0);
},
{
name = top;
pos = (293,500);
}
);
layerId = "3ED9E848-BE83-4CAC-8EFF-D71BD2B4F667";
shapes = (
{
closed = 1;
nodes = (
(290,507,o),
(235,478,o),
(222,441,c),
(222,500,l),
(44,500,l),
(44,0,l),
(222,0,l),
(222,278,ls),
(222,345,o),
(269,381,o),
(326,381,cs),
(373,381,o),
(400,352,o),
(400,292,cs),
(399,0,l),
(582,0,l),
(582,292,ls),
(582,387,o),
(538,507,o),
(346,507,cs)
);
}
);
width = 607.12917;
}
);
note = n;
unicode = 110;
},
{
glyphname = nhookleft;
lastChange = "2023-09-13 03:40:42 +0000";
layers = (
{
layerId = "F5467FAD-1970-4982-B3D3-939C01050498";
shapes = (
{
closed = 1;
nodes = (
(50,0,l),
(50,-125,ls),
(50,-159,o),
(36,-166,o),
(20,-166,cs),
(-2,-166,o),
(-30,-157,o),
(-56,-135,c),
(-60,-169,l),
(-45,-185,o),
(-13,-203,o),
(20,-203,cs),
(79,-203,o),
(94,-159,o),
(94,-125,cs),
(94,0,l)
);
},
{
ref = n;
}
);
width = 571;
},
{
layerId = "6DD95C5A-998B-41AB-BDFB-84A73C209871";
shapes = (
{
closed = 1;
nodes = (
(45,0,l),
(45,-65,ls),
(45,-99,o),
(31,-106,o),
(15,-106,cs),
(-7,-106,o),
(-35,-97,o),
(-61,-75,c),
(-61,-169,l),
(-36,-185,o),
(-1,-203,o),
(53,-203,cs),
(126,-203,o),
(197,-159,o),
(197,-65,cs),
(197,0,l)
);
},
{
ref = n;
}
);
width = 600;
},
{
layerId = "1FDC7037-1F88-4969-8535-0F79C1EF19DB";
shapes = (
{
closed = 1;
nodes = (
(51,0,l),
(51,-135,ls),
(51,-169,o),
(37,-176,o),
(21,-176,cs),
(-1,-176,o),
(-29,-167,o),
(-55,-145,c),
(-60,-169,l),
(-46,-185,o),
(-15,-203,o),
(15,-203,cs),
(71,-203,o),
(78,-159,o),
(78,-135,cs),
(78,0,l)
);
},
{
alignment = -1;
ref = n;
}
);
width = 566.36;
},
{
layerId = "3ED9E848-BE83-4CAC-8EFF-D71BD2B4F667";
shapes = (
{
closed = 1;
nodes = (
(44,0,l),
(44,-50,ls),
(44,-84,o),
(30,-91,o),
(14,-91,cs),
(-8,-91,o),
(-36,-82,o),
(-62,-60,c),
(-61,-169,l),
(-34,-185,o),
(2,-203,o),
(61,-203,cs),
(138,-203,o),
(222,-159,o),
(222,-50,cs),
(222,0,l)
);
},
{
alignment = -1;
ref = n;
}
);
width = 607.12917;
}
);
unicode = 626;
},
{
glyphname = eng;
lastChange = "2023-09-13 03:40:42 +0000";
layers = (
{
layerId = "F5467FAD-1970-4982-B3D3-939C01050498";
shapes = (
{
closed = 1;
nodes = (
(477,0,l),
(477,-125,ls),
(477,-152,o),
(466,-166,o),
(431,-166,cs),
(409,-166,o),
(388,-157,o),
(362,-135,c),
(358,-169,l),
(377,-185,o),
(405,-203,o),
(438,-203,cs),
(497,-203,o),
(521,-169,o),
(521,-125,cs),
(521,0,l)
);
},
{
ref = n;
}
);
width = 571;
},
{
layerId = "6DD95C5A-998B-41AB-BDFB-84A73C209871";
shapes = (
{
closed = 1;
nodes = (
(415,0,l),
(415,-65,ls),
(415,-99,o),
(399,-106,o),
(383,-106,cs),
(361,-106,o),
(333,-97,o),
(307,-75,c),
(307,-169,l),
(332,-185,o),
(367,-203,o),
(421,-203,cs),
(494,-203,o),
(570,-159,o),
(570,-65,cs),
(570,0,l)
);
},
{
ref = n;
}
);
width = 600;
},
{
layerId = "1FDC7037-1F88-4969-8535-0F79C1EF19DB";
shapes = (
{
closed = 1;
nodes = (
(487,0,l),
(487,-135,ls),
(487,-160,o),
(477,-176,o),
(439,-176,cs),
(417,-176,o),
(397,-167,o),
(371,-145,c),
(366,-169,l),
(384,-185,o),
(411,-203,o),
(441,-203,cs),
(497,-203,o),
(513,-171,o),
(513,-135,cs),
(513,0,l)
);
},
{
alignment = -1;
ref = n;
}
);
width = 566.36;
},
{
layerId = "3ED9E848-BE83-4CAC-8EFF-D71BD2B4F667";
shapes = (
{
closed = 1;
nodes = (
(400,0,l),
(400,-50,ls),
(400,-86,o),
(383,-91,o),
(371,-91,cs),
(349,-91,o),
(319,-82,o),
(293,-60,c),
(294,-169,l),
(321,-185,o),
(358,-203,o),
(417,-203,cs),
(493,-203,o),
(582,-156,o),
(582,-50,cs),
(582,0,l)
);
},
{
alignment = -1;
ref = n;
}
);
width = 607.12917;
}
);
unicode = 331;
},
{
glyphname = o;
kernLeft = a;
kernRight = o;
lastChange = "2023-09-13 03:40:42 +0000";
layers = (
{
anchors = (
{
name = bottom;
pos = (289,0);
},
{
name = ogonek;
pos = (319,0);
},
{
name = top;
pos = (289,500);
}
);
layerId = "F5467FAD-1970-4982-B3D3-939C01050498";
shapes = (
{
closed = 1;
nodes = (
(443,-14,o),
(547,98,o),
(547,247,cs),
(547,397,o),
(442,512,o),
(289,512,cs),
(135,512,o),
(30,397,o),
(30,247,cs),
(30,98,o),
(134,-14,o),
(289,-14,cs)
);
},
{
closed = 1;
nodes = (
(160,14,o),
(80,113,o),
(80,247,cs),
(80,382,o),
(160,484,o),
(288,484,cs),
(416,484,o),
(496,382,o),
(496,247,cs),
(496,113,o),
(416,14,o),
(288,14,cs)
);
}
);
width = 577;
},
{
anchors = (
{
name = bottom;
pos = (302,0);
},
{
name = ogonek;
pos = (319,0);
},
{
name = top;
pos = (302,500);
}
);
layerId = "6DD95C5A-998B-41AB-BDFB-84A73C209871";
shapes = (
{
closed = 1;
nodes = (
(462.72,-12,o),
(571.93,108,o),
(571.93,247,cs),
(571.93,387,o),
(462.72,510,o),
(302,510,cs),
(141.27,510,o),
(32.06,387,o),
(32.06,247,cs),
(32.06,108,o),
(141.27,-12,o),
(302,-12,cs)
);
},
{
closed = 1;
nodes = (
(230.3,93,o),
(174.53,143,o),
(174.53,247,cs),
(174.53,352,o),
(230.3,402,o),
(302,402,cs),
(373.7,402,o),
(429.46,352,o),
(429.46,247,cs),
(429.46,143,o),
(373.7,93,o),
(302,93,cs)
);
}
);
width = 584;
},
{
anchors = (
{
name = bottom;
pos = (287,0);
},
{
name = ogonek;
pos = (319,0);
},
{
name = top;
pos = (287,500);
}
);
layerId = "1FDC7037-1F88-4969-8535-0F79C1EF19DB";
shapes = (
{
closed = 1;
nodes = (
(440,-14,o),
(543,96,o),
(543,247,cs),
(543,399,o),
(439,512,o),
(287,512,cs),
(134,512,o),
(30,399,o),
(30,247,cs),
(30,96,o),
(133,-14,o),
(287,-14,cs)
);
},
{
closed = 1;
nodes = (
(149,1,o),
(65,108,o),
(65,247,cs),
(65,387,o),
(149,497,o),
(286,497,cs),
(423,497,o),
(507,387,o),
(507,247,cs),
(507,108,o),
(423,1,o),
(286,1,cs)
);
}
);
width = 575.88;
},
{
anchors = (
{
name = bottom;
pos = (305,0);
},
{
name = ogonek;
pos = (319,0);
},
{
name = top;
pos = (305,500);
}
);
layerId = "3ED9E848-BE83-4CAC-8EFF-D71BD2B4F667";
shapes = (
{
closed = 1;
nodes = (
(468,-12,o),
(578,111,o),
(578,247,cs),
(578,385,o),
(468,510,o),
(305,510,cs),
(143,510,o),
(33,385,o),
(33,247,cs),
(33,111,o),
(143,-12,o),
(305,-12,cs)
);
},
{
closed = 1;
nodes = (
(248,112,o),
(198,150,o),
(198,247,cs),
(198,345,o),
(248,382,o),
(305,382,cs),
(363,382,o),
(413,345,o),
(413,247,cs),
(413,150,o),
(363,112,o),
(305,112,cs)
);
}
);
width = 585.72083;
}
);
note = o;
unicode = 111;
},
{
glyphname = oslash;
lastChange = "2023-09-13 03:40:42 +0000";
layers = (
{
anchors = (
{
name = top;
pos = (164,500);
}
);
layerId = "F5467FAD-1970-4982-B3D3-939C01050498";
shapes = (
{
closed = 1;
nodes = (
(144,-164,l),
(179,-164,l),
(433,695,l),
(398,695,l)
);
},
{
ref = o;
}
);
width = 577;
},
{
anchors = (
{
name = top;
pos = (109,500);
}
);
layerId = "6DD95C5A-998B-41AB-BDFB-84A73C209871";
shapes = (
{
closed = 1;
nodes = (
(118,-154,l),
(238,-154,l),
(487,685,l),
(367,685,l)
);
},
{
ref = o;
}
);
width = 584;
},
{
anchors = (
{
name = top;
pos = (173,500);
}
);
layerId = "1FDC7037-1F88-4969-8535-0F79C1EF19DB";
shapes = (
{
closed = 1;
nodes = (
(148,-166,l),
(170,-166,l),
(424,697,l),
(403,697,l)
);
},
{
alignment = -1;
ref = o;
}
);
width = 575.88;
},
{
anchors = (
{
name = top;
pos = (95,500);
}
);
layerId = "3ED9E848-BE83-4CAC-8EFF-D71BD2B4F667";
shapes = (
{
closed = 1;
nodes = (
(112,-151,l),
(252,-151,l),
(500,683,l),
(359,683,l)
);
},
{
alignment = -1;
ref = o;
}
);
width = 585.72083;
}
);
note = oslash;
unicode = 248;
},
{
glyphname = oe;
kernLeft = a;
kernRight = ae;
lastChange = "2023-09-13 03:40:42 +0000";
layers = (
{
background = {
shapes = (
{
closed = 1;
nodes = (
(396.92,-14,o),
(480.47,41.1,o),
(520.7,125.43,c),
(565.17,30.96,o),
(659.88,-14,o),
(764,-14,cs),
(867,-14,o),
(941,19,o),
(989,78,c),
(948,97,l),
(914,48,o),
(866,4,o),
(764,4,cs),
(652.99,4,o),
(550.66,87.96,o),
(547.09,247.34,c),
(547.09,248.56,o),
(547.08,249.78,o),
(547.06,251,c),
(987.99,251,l),
(989.83,265.39,o),
(990.73,279.35,o),
(990.73,292.83,cs),
(990.73,426.37,o),
(902.32,513,o),
(756.99,513,cs),
(652.89,513,o),
(560.98,463.71,o),
(518.68,373.63,c),
(477.55,457.07,o),
(394.59,512,o),
(288.54,512,cs),
(135.1,512,o),
(30,397,o),
(30,247,cs),
(30,98,o),
(134.05,-14,o),
(288.55,-14,cs)
);
},
{
closed = 1;
nodes = (
(160.32,-2,o),
(80.6,113,o),
(80.6,247,cs),
(80.6,382,o),
(160.32,498,o),
(288.55,498,cs),
(406.19,498,o),
(483,400.36,o),
(494.88,279.99,c),
(494.3,272.17,o),
(494,264.17,o),
(494,256,cs),
(494,244.16,o),
(494.52,232.72,o),
(495.53,221.69,c),
(486.16,98.84,o),
(408.62,-2.01,o),
(288.54,-2.01,cs)
);
},
{
closed = 1;
nodes = (
(553.68,399.63,o),
(632.36,497.99,o),
(757,497.99,cs),
(883.06,497.99,o),
(942.87,411.92,o),
(942.87,327.48,cs),
(942.87,308.77,o),
(939.93,290.13,o),
(934.12,272.53,c),
(547.4,272.53,l)
);
}
);
};
layerId = "F5467FAD-1970-4982-B3D3-939C01050498";
shapes = (
{
ref = o;
},
{
alignment = -1;
pos = (471,0);
ref = e;
}
);
width = 1038;
},
{
background = {
shapes = (
{
closed = 1;
nodes = (
(381.12,-12.01,o),
(447.75,17.07,o),
(495.02,63.18,c),
(543.49,13.24,o),
(614.97,-11.94,o),
(700,-11.94,cs),
(811.9,-11.94,o),
(915.13,35.48,o),
(950.32,127.58,c),
(827,186,l),
(809,132,o),
(772.95,95,o),
(710,95,cs),
(621.28,95,o),
(583.49,142.03,o),
(574.47,215.45,c),
(935,215.45,l),
(941.07,241.94,o),
(944,267.07,o),
(944,290.66,cs),
(944,426.4,o),
(846.76,510.99,o),
(690,510.99,cs),
(608.39,510.99,o),
(539.82,483.83,o),
(493.17,435.04,c),
(446.02,480.95,o),
(380.09,509.99,o),
(302,509.99,cs),
(141.27,509.99,o),
(32.06,386.99,o),
(32.06,246.99,cs),
(32.06,107.99,o),
(141.27,-12.01,o),
(302,-12.01,cs)
);
},
{
closed = 1;
nodes = (
(230.3,92.99,o),
(174.53,142.99,o),
(174.53,246.99,cs),
(174.53,351.99,o),
(230.3,401.99,o),
(302,401.99,cs),
(366.36,401.99,o),
(417.88,361.71,o),
(427.75,277.52,c),
(427.25,270.16,o),
(427,262.65,o),
(427,255,cs),
(427,243.75,o),
(427.45,232.86,o),
(428.34,222.31,c),
(420.14,135.07,o),
(367.77,93,o),
(302,93,cs)
);
},
{
closed = 1;
nodes = (
(596.14,374.93,o),
(646.8,405.99,o),
(694,405.99,cs),
(754.8,405.99,o),
(791.56,375.6,o),
(791.56,326.06,cs),
(791.56,320.19,o),
(791.05,314.06,o),
(790,307.67,c),
(578.63,307.67,l)
);
}
);
};
layerId = "6DD95C5A-998B-41AB-BDFB-84A73C209871";
shapes = (
{
ref = o;
},
{
alignment = -1;
pos = (401,0);
ref = e;
}
);
width = 994;
},
{
layerId = "1FDC7037-1F88-4969-8535-0F79C1EF19DB";
shapes = (
{
alignment = -1;
ref = o;
},
{
alignment = -1;
pos = (482,0);
ref = e;
}
);
width = 1045.04;
},
{
layerId = "3ED9E848-BE83-4CAC-8EFF-D71BD2B4F667";
shapes = (
{
alignment = -1;
ref = o;
},
{
alignment = -1;
pos = (384,0);
ref = e;
}
);
width = 983.18333;
}
);
metricLeft = o;
metricRight = e;
note = oe;
unicode = 339;
},
{
glyphname = p;
kernLeft = p;
kernRight = p;
lastChange = "2023-09-13 03:40:42 +0000";
layers = (
{
layerId = "F5467FAD-1970-4982-B3D3-939C01050498";
shapes = (
{
closed = 1;
nodes = (
(50,-200,l),
(95,-200,l),
(95,102,l),
(79,248,l),
(95,382,l),
(95,500,l),
(51,500,l)
);
},
{
closed = 1;
nodes = (
(144,512,o),
(78,365,o),
(78,248,cs),
(78,130,o),
(149,-13,o),
(304,-13,cs),
(456,-13,o),
(553,97,o),
(553,248,cs),
(553,400,o),
(456,512,o),
(304,512,cs)
);
},
{
closed = 1;
nodes = (
(426,482,o),
(508,377,o),
(508,248,cs),
(508,121,o),
(428,16,o),
(305,16,cs),
(184,16,o),
(83,106,o),
(83,248,cs),
(83,393,o),
(183,482,o),
(304,482,cs)
);
}
);
width = 583;
},
{
layerId = "6DD95C5A-998B-41AB-BDFB-84A73C209871";
shapes = (
{
closed = 1;
nodes = (
(35,-200,l),
(188,-200,l),
(188,10,l),
(168,248,l),
(188,474,l),
(188,500,l),
(36,500,l)
);
},
{
closed = 1;
nodes = (
(192,509,o),
(161,422,o),
(161,248,cs),
(161,75,o),
(201,-12,o),
(354,-12,cs),
(513,-12,o),
(618,106,o),
(618,248,cs),
(618,389,o),
(513,509,o),
(354,509,cs)
);
},
{
closed = 1;
nodes = (
(409,398,o),
(457,338,o),
(457,248,cs),
(457,159,o),
(409,98,o),
(326,98,cs),
(237,98,o),
(180,150,o),
(180,248,cs),
(180,347,o),
(237,398,o),
(326,398,cs)
);
}
);
width = 638;
},
{
associatedMasterId = "6DD95C5A-998B-41AB-BDFB-84A73C209871";
layerId = "98FC4237-0C9A-470F-B714-1BBC7CCDE98A";
name = "24 juil. 23 à 14:33";
shapes = (
{
closed = 1;
nodes = (
(188,-200,l),
(188,13,l),
(188,47.4,l),
(218.67,4.73,o),
(277.55,-14.99,o),
(344,-14.99,cs),
(503,-14.99,o),
(608,103.01,o),
(608,245.01,cs),
(608,386.01,o),
(504,506.01,o),
(344,506.01,cs),
(276.81,506,o),
(207.98,477.44,o),
(188,434.14,c),
(188,464,l),
(188,500,l),
(36,500,l),
(35,-200,l)
);
},
{
closed = 1;
nodes = (
(235,95.01,o),
(178,147.01,o),
(178,245.01,cs),
(178,344.01,o),
(235,395.01,o),
(324,395.01,cs),
(407,395.01,o),
(455,335.01,o),
(455,245.01,cs),
(455,156.01,o),
(407,95.01,o),
(324,95.01,cs)
);
}
);
width = 638;
},
{
associatedMasterId = "F5467FAD-1970-4982-B3D3-939C01050498";
layerId = "DACE8C0B-C6A5-45B8-B8AC-06B9D7DDFF7F";
name = "24 juil. 23 à 14:33";
shapes = (
{
closed = 1;
nodes = (
(95,-200,l),
(95,102,l),
(88.2,182.56,l),
(109.79,83.85,o),
(180.51,-12.99,o),
(308,-12.99,cs),
(460,-12.99,o),
(557,97.01,o),
(557,248.01,cs),
(557,400.01,o),
(460,512.01,o),
(308,512.01,cs),
(179.85,512,o),
(109.06,413.48,o),
(87.87,312.89,c),
(95,382,l),
(95,500,l),
(51,500,l),
(50,-200,l)
);
},
{
closed = 1;
nodes = (
(187,16.01,o),
(86,106.01,o),
(86,248.01,cs),
(86,393.01,o),
(187,482.01,o),
(308,482.01,cs),
(430,482.01,o),
(512,377.01,o),
(512,248.01,cs),
(512,121.01,o),
(431,16.01,o),
(308,16.01,cs)
);
}
);
width = 587;
},
{
layerId = "1FDC7037-1F88-4969-8535-0F79C1EF19DB";
shapes = (
{
closed = 1;
nodes = (
(52,-200,l),
(80,-200,l),
(80,117,l),
(65,248,l),
(80,367,l),
(80,500,l),
(53,500,l)
);
},
{
closed = 1;
nodes = (
(136,512,o),
(65,356,o),
(65,248,cs),
(65,139,o),
(141,-13,o),
(296,-13,cs),
(447,-13,o),
(543,96,o),
(543,248,cs),
(543,402,o),
(447,512,o),
(296,512,cs)
);
},
{
closed = 1;
nodes = (
(429,495,o),
(516,383,o),
(516,248,cs),
(516,115,o),
(431,3,o),
(302,3,cs),
(176,3,o),
(67,99,o),
(67,248,cs),
(67,400,o),
(174,495,o),
(300,495,cs)
);
}
);
width = 574.2;
},
{
layerId = "3ED9E848-BE83-4CAC-8EFF-D71BD2B4F667";
shapes = (
{
closed = 1;
nodes = (
(31,-200,l),
(211,-200,l),
(211,-13,l),
(190,248,l),
(211,497,l),
(211,500,l),
(32,500,l)
);
},
{
closed = 1;
nodes = (
(204,508,o),
(181,436,o),
(181,248,cs),
(181,61,o),
(214,-12,o),
(366,-12,cs),
(527,-12,o),
(634,108,o),
(634,248,cs),
(634,386,o),
(527,508,o),
(366,508,cs)
);
},
{
closed = 1;
nodes = (
(405,377,o),
(444,328,o),
(444,248,cs),
(444,168,o),
(404,118,o),
(331,118,cs),
(250,118,o),
(204,161,o),
(204,248,cs),
(204,336,o),
(250,377,o),
(331,377,cs)
);
}
);
width = 651.52083;
}
);
note = p;
unicode = 112;
},
{
glyphname = thorn;
lastChange = "2023-09-13 03:40:42 +0000";
layers = (
{
layerId = "F5467FAD-1970-4982-B3D3-939C01050498";
shapes = (
{
closed = 1;
nodes = (
(81,-238,l),
(81,96,l),
(74.2,176.56,l),
(95.79,77.85,o),
(166.51,-18.99,o),
(294,-18.99,cs),
(446,-18.99,o),
(543,91.01,o),
(543,242.01,cs),
(543,394.01,o),
(446,506.01,o),
(294,506.01,cs),
(165.85,506,o),
(95.06,407.48,o),
(73.87,306.89,c),
(81,376,l),
(81,808,l),
(37,808,l),
(36,-238,l)
);
},
{
closed = 1;
nodes = (
(173,10.01,o),
(72,100.01,o),
(72,242.01,cs),
(72,387.01,o),
(173,476.01,o),
(294,476.01,cs),
(416,476.01,o),
(498,371.01,o),
(498,242.01,cs),
(498,115.01,o),
(417,10.01,o),
(294,10.01,cs)
);
}
);
width = 563;
},
{
layerId = "6DD95C5A-998B-41AB-BDFB-84A73C209871";
shapes = (
{
closed = 1;
nodes = (
(178,-191,l),
(178,-4,l),
(178,19.04,l),
(208.06,0.97,o),
(246.11,-10,o),
(294,-10,cs),
(453,-10,o),
(558,108,o),
(558,249,cs),
(558,391,o),
(454,511,o),
(294,511,cs),
(246.11,511,o),
(208.06,499.96,o),
(178,481.75,c),
(178,519,l),
(178,761,l),
(26,761,l),
(25,-191,l)
);
},
{
closed = 1;
nodes = (
(225,100,o),
(168,152,o),
(168,249,cs),
(168,348,o),
(225,400,o),
(294,400,cs),
(357,400,o),
(405,339,o),
(405,249,cs),
(405,161,o),
(357,100,o),
(294,100,cs)
);
}
);
width = 563;
},
{
layerId = "1FDC7037-1F88-4969-8535-0F79C1EF19DB";
shapes = (
{
closed = 1;
nodes = (
(65,-246,l),
(65,112,l),
(58,202,l),
(78,90,o),
(154,-20,o),
(294,-20,cs),
(445,-20,o),
(541,88,o),
(541,241,cs),
(541,394,o),
(445,505,o),
(294,505,cs),
(153,505,o),
(77,393,o),
(57,279,c),
(65,353,l),
(65,816,l),
(39,816,l),
(38,-246,l)
);
},
{
closed = 1;
nodes = (
(165,-4,o),
(57,92,o),
(57,241,cs),
(57,393,o),
(165,488,o),
(294,488,cs),
(425,488,o),
(513,376,o),
(513,241,cs),
(513,108,o),
(427,-4,o),
(294,-4,cs)
);
}
);
width = 563;
},
{
layerId = "3ED9E848-BE83-4CAC-8EFF-D71BD2B4F667";
shapes = (
{
closed = 1;
nodes = (
(202,-179,l),
(202,-29,l),
(203,-20,l),
(236,-18,o),
(266,-8,o),
(294,-8,cs),
(455,-8,o),
(562,112,o),
(562,251,cs),
(562,390,o),
(456,512,o),
(294,512,cs),
(266,512,o),
(236,523,o),
(204,525,c),
(202,554,l),
(202,749,l),
(23,749,l),
(22,-179,l)
);
},
{
closed = 1;
nodes = (
(238,122,o),
(192,165,o),
(192,251,cs),
(192,338,o),
(238,381,o),
(294,381,cs),
(343,381,o),
(382,331,o),
(382,251,cs),
(382,172,o),
(342,122,o),
(294,122,cs)
);
}
);
width = 563;
}
);
note = thorn;
unicode = 254;
},
{
glyphname = q;
kernLeft = a;
kernRight = aacute;
lastChange = "2023-09-13 03:40:42 +0000";
layers = (
{
layerId = "F5467FAD-1970-4982-B3D3-939C01050498";
shapes = (
{
closed = 1;
nodes = (
(488,500,l),
(488,382,l),
(504,248,l),
(488,102,l),
(488,-200,l),
(533,-200,l),
(532,500,l)
);
},
{
closed = 1;
nodes = (
(127,512,o),
(30,400,o),
(30,248,cs),
(30,97,o),
(127,-13,o),
(279,-13,cs),
(434,-13,o),
(505,130,o),
(505,248,cs),
(505,365,o),
(439,512,o),
(279,512,cs)
);
},
{
closed = 1;
nodes = (
(400,482,o),
(500,393,o),
(500,248,cs),
(500,106,o),
(399,16,o),
(278,16,cs),
(155,16,o),
(75,121,o),
(75,248,cs),
(75,377,o),
(157,482,o),
(279,482,cs)
);
}
);
width = 583;
},
{
layerId = "6DD95C5A-998B-41AB-BDFB-84A73C209871";
shapes = (
{
closed = 1;
nodes = (
(450,500,l),
(450,474,l),
(470,248,l),
(450,10,l),
(450,-200,l),
(603,-200,l),
(602,500,l)
);
},
{
closed = 1;
nodes = (
(125,509,o),
(20,389,o),
(20,248,cs),
(20,106,o),
(125,-12,o),
(284,-12,cs),
(437,-12,o),
(477,75,o),
(477,248,cs),
(477,422,o),
(446,509,o),
(284,509,cs)
);
},
{
closed = 1;
nodes = (
(401,398,o),
(458,347,o),
(458,248,cs),
(458,150,o),
(401,98,o),
(312,98,cs),
(229,98,o),
(181,159,o),
(181,248,cs),
(181,338,o),
(229,398,o),
(312,398,cs)
);
}
);
width = 638;
},
{
associatedMasterId = "6DD95C5A-998B-41AB-BDFB-84A73C209871";
layerId = "0C2631EF-B1CC-4266-849D-97E34A750FC9";
name = "24 juil. 23 à 14:33";
shapes = (
{
closed = 1;
nodes = (
(602.99,-200,l),
(601.99,500,l),
(449.99,500,l),
(450,463,l),
(449.99,434.14,l),
(430.02,477.44,o),
(361.19,506,o),
(293.99,506,cs),
(134,506,o),
(30,386,o),
(30,245,cs),
(30,103,o),
(135,-15,o),
(294,-15,cs),
(360.45,-15,o),
(419.32,4.72,o),
(449.99,47.4,c),
(450,15,l),
(449.99,-200,l)
);
},
{
closed = 1;
nodes = (
(230.99,95,o),
(182.99,156,o),
(182.99,245,cs),
(182.99,335,o),
(230.99,395,o),
(313.99,395,cs),
(402.99,395,o),
(459.99,344,o),
(459.99,245,cs),
(459.99,147,o),
(402.99,95,o),
(313.99,95,cs)
);
}
);
width = 638;
},
{
associatedMasterId = "F5467FAD-1970-4982-B3D3-939C01050498";
layerId = "90652EA9-EDFC-4C18-BA74-0C2524A4B062";
name = "24 juil. 23 à 14:33";
shapes = (
{
closed = 1;
nodes = (
(537,-200,l),
(536,500,l),
(492,500,l),
(492,382,l),
(499.13,312.89,l),
(477.93,413.48,o),
(407.14,512,o),
(278.99,512,cs),
(126.99,512,o),
(29.99,400,o),
(29.99,248,cs),
(29.99,97,o),
(126.99,-13,o),
(278.99,-13,cs),
(406.48,-13,o),
(477.2,83.84,o),
(498.79,182.56,c),
(492,102,l),
(492,-200,l)
);
},
{
closed = 1;
nodes = (
(155.99,16,o),
(74.99,121,o),
(74.99,248,cs),
(74.99,377,o),
(156.99,482,o),
(278.99,482,cs),
(399.99,482,o),
(500.99,393,o),
(500.99,248,cs),
(500.99,106,o),
(399.99,16,o),
(278.99,16,cs)
);
}
);
width = 587;
},
{
layerId = "1FDC7037-1F88-4969-8535-0F79C1EF19DB";
shapes = (
{
closed = 1;
nodes = (
(494,500,l),
(494,367,l),
(509,248,l),
(494,117,l),
(494,-200,l),
(522,-200,l),
(521,500,l)
);
},
{
closed = 1;
nodes = (
(127,512,o),
(32,402,o),
(32,248,cs),
(32,96,o),
(127,-13,o),
(278,-13,cs),
(434,-13,o),
(509,139,o),
(509,248,cs),
(509,356,o),
(438,512,o),
(278,512,cs)
);
},
{
closed = 1;
nodes = (
(400,495,o),
(507,400,o),
(507,248,cs),
(507,99,o),
(399,3,o),
(273,3,cs),
(143,3,o),
(58,115,o),
(58,248,cs),
(58,383,o),
(145,495,o),
(274,495,cs)
);
}
);
width = 574.2;
},
{
layerId = "3ED9E848-BE83-4CAC-8EFF-D71BD2B4F667";
shapes = (
{
closed = 1;
nodes = (
(441,500,l),
(441,497,l),
(462,248,l),
(441,-13,l),
(441,-200,l),
(620,-200,l),
(619,500,l)
);
},
{
closed = 1;
nodes = (
(125,508,o),
(18,386,o),
(18,248,cs),
(18,108,o),
(125,-12,o),
(285,-12,cs),
(438,-12,o),
(470,61,o),
(470,248,cs),
(470,436,o),
(448,508,o),
(285,508,cs)
);
},
{
closed = 1;
nodes = (
(401,377,o),
(448,336,o),
(448,248,cs),
(448,161,o),
(401,118,o),
(320,118,cs),
(247,118,o),
(207,168,o),
(207,248,cs),
(207,328,o),
(247,377,o),
(320,377,cs)
);
}
);
width = 651.52083;
}
);
note = q;
unicode = 113;
},
{
glyphname = r;
kernLeft = m;
kernRight = r;
lastChange = "2023-09-13 03:40:42 +0000";
layers = (
{
anchors = (
{
name = bottom;
pos = (248,0);
},
{
name = top;
pos = (275,500);
}
);
layerId = "F5467FAD-1970-4982-B3D3-939C01050498";
shapes = (
{
closed = 1;
nodes = (
(94,0,l),
(94,270.75,l),
(108.22,412.43,o),
(197,477,o),
(286,477,cs),
(357,477,o),
(391.15,439.29,o),
(404.14,387.29,c),
(453.95,387.29,l),
(453,391,o),
(453,394,o),
(452,398,cs),
(441,461,o),
(404,507,o),
(300.19,506.29,cs),
(204,506,o),
(115,443,o),
(94,331.26,c),
(94,500,l),
(50,500,l),
(50,0,l)
);
}
);
width = 460;
},
{
anchors = (
{
name = bottom;
pos = (292,0);
},
{
name = top;
pos = (319,500);
}
);
layerId = "6DD95C5A-998B-41AB-BDFB-84A73C209871";
shapes = (
{
closed = 1;
nodes = (
(197,0,l),
(197,258.57,ls),
(197,360,o),
(252,399,o),
(307,399,cs),
(348,399,o),
(376,374,o),
(371,325,c),
(521,325,l),
(522,331,o),
(522,336,o),
(522,342,cs),
(522,426,o),
(459,510,o),
(348,510,cs),
(290,510,o),
(225.18,479.29,o),
(197,432.61,c),
(197,500,l),
(45,500,l),
(45,0,l)
);
}
);
width = 532;
},
{
anchors = (
{
name = bottom;
pos = (241,0);
},
{
name = top;
pos = (268,500);
}
);
layerId = "1FDC7037-1F88-4969-8535-0F79C1EF19DB";
shapes = (
{
closed = 1;
nodes = (
(78,0,l),
(78,273,l),
(94,421,o),
(188,489,o),
(283,489,cs),
(358,489,o),
(394,450,o),
(409,397,c),
(443,397,l),
(442,401,o),
(442,403,o),
(441,407,cs),
(428,467,o),
(395,507,o),
(293,506,cs),
(190,505,o),
(97,437,o),
(78,315,c),
(78,500,l),
(51,500,l),
(51,0,l)
);
}
);
width = 448.48;
},
{
anchors = (
{
name = bottom;
pos = (303,0);
},
{
name = top;
pos = (330,500);
}
);
layerId = "3ED9E848-BE83-4CAC-8EFF-D71BD2B4F667";
shapes = (
{
closed = 1;
nodes = (
(222,0,l),
(222,256,l),
(219,347,o),
(266,380,o),
(312,380,cs),
(346,380,o),
(372,358,o),
(363,310,c),
(538,310,l),
(539,316,o),
(539,322,o),
(539,328,cs),
(542,417,o),
(473,511,o),
(360,511,cs),
(311,511,o),
(252,488,o),
(222,458,c),
(222,500,l),
(44,500,l),
(44,0,l)
);
}
);
width = 549.7;
}
);
note = r;
unicode = 114;
},
{
glyphname = s;
kernLeft = s;
kernRight = s;
lastChange = "2023-09-13 03:40:42 +0000";
layers = (
{
anchors = (
{
name = bottom;
pos = (243,0);
},
{
name = top;
pos = (228,500);
}
);
layerId = "F5467FAD-1970-4982-B3D3-939C01050498";
shapes = (
{
closed = 1;
nodes = (
(128,513,o),
(55,458,o),
(55,385,cs),
(55,200,o),
(383,306,o),
(383,125,cs),
(383,80,o),
(347,14,o),
(239,14,cs),
(158,14,o),
(90,52,o),
(60,128,c),
(20,112,l),
(52,35,o),
(121,-14,o),
(239,-14,cs),
(381,-14,o),
(433,55,o),
(433,121,cs),
(433,331,o),
(105,226,o),
(105,385,cs),
(105,446,o),
(148,485,o),
(227,485,cs),
(304,485,o),
(362,442,o),
(390,372,c),
(428,393,l),
(399,470,o),
(326,513,o),
(227,513,cs)
);
}
);
width = 453;
},
{
anchors = (
{
name = bottom;
pos = (267,0);
},
{
name = top;
pos = (252,500);
}
);
layerId = "6DD95C5A-998B-41AB-BDFB-84A73C209871";
shapes = (
{
closed = 1;
nodes = (
(152,511,o),
(55,460,o),
(55,370,cs),
(55,155,o),
(350,245,o),
(350,147,cs),
(350,117,o),
(315,93,o),
(264,93,cs),
(194,93,o),
(167,159,o),
(154,203,c),
(20,150,l),
(52,34,o),
(142,-12,o),
(264,-12,cs),
(406,-12,o),
(498,52,o),
(498,153,cs),
(498,346,o),
(199,250,o),
(199,360,cs),
(199,389,o),
(223,406,o),
(262,406,cs),
(319,406,o),
(356,367,o),
(356,303,c),
(489,365,l),
(461,452,o),
(372,511,o),
(252,511,cs)
);
}
);
width = 518;
},
{
anchors = (
{
name = bottom;
pos = (248,0);
},
{
name = top;
pos = (233,500);
}
);
associatedMasterId = "6DD95C5A-998B-41AB-BDFB-84A73C209871";
layerId = "D619BE00-27DC-4BA7-9494-58223F4FA2F3";
name = "24 juil. 23 à 14:52";
shapes = (
{
closed = 1;
nodes = (
(377,-12,o),
(449,52,o),
(449,153,cs),
(449,261,o),
(314,296,o),
(253,314,cs),
(206,328,o),
(180,344,o),
(180,370,cs),
(180,399,o),
(204,412,o),
(233,412,cs),
(278,412,o),
(288,382,o),
(289,360,c),
(418,401,l),
(401,471,o),
(323,511,o),
(233,511,cs),
(133,511,o),
(46,450,o),
(46,370,cs),
(46,281,o),
(128,245,o),
(211,221,cs),
(275,201,o),
(311,190,o),
(311,155,cs),
(311,115,o),
(276,93,o),
(235,93,cs),
(156,93,o),
(130,166,o),
(130,214,c),
(15,134,l),
(37,48,o),
(133,-12,o),
(235,-12,cs)
);
}
);
width = 474;
},
{
anchors = (
{
name = bottom;
pos = (238,0);
},
{
name = top;
pos = (223,500);
}
);
associatedMasterId = "F5467FAD-1970-4982-B3D3-939C01050498";
layerId = "6BCDE198-901C-4CEB-AD18-42D9A29F4FA8";
name = "24 juil. 23 à 14:52";
shapes = (
{
closed = 1;
nodes = (
(365.85,-14,o),
(428.13,57,o),
(428.13,133,cs),
(428.13,227,o),
(305.1,255,o),
(226.67,276,cs),
(132.78,301,o),
(87.49,342,o),
(87.49,395,cs),
(87.49,453,o),
(142.72,496,o),
(222.25,496,cs),
(268.65,496,o),
(331.61,491,o),
(350.39,401,c),
(403.41,413,l),
(373.59,490,o),
(290.74,513,o),
(222.26,513,cs),
(122.84,513,o),
(49.94,465,o),
(49.94,395,cs),
(49.94,320,o),
(117.32,283,o),
(214.52,257,cs),
(308.42,231,o),
(388.16,209,o),
(388.16,135,cs),
(388.16,60,o),
(331.55,4,o),
(224.47,4,cs),
(131.68,4,o),
(67.61,59,o),
(46.62,157,c),
(6.85,130,l),
(38.89,43,o),
(106.27,-14,o),
(224.46,-14,cs)
);
}
);
width = 441;
},
{
anchors = (
{
name = bottom;
pos = (239,0);
},
{
name = top;
pos = (224,500);
}
);
layerId = "1FDC7037-1F88-4969-8535-0F79C1EF19DB";
shapes = (
{
closed = 1;
nodes = (
(124,513,o),
(55,458,o),
(55,387,cs),
(55,207,o),
(388,316,o),
(388,121,cs),
(388,74,o),
(352,1,o),
(235,1,cs),
(152,1,o),
(78,35,o),
(45,116,c),
(20,106,l),
(52,35,o),
(118,-14,o),
(235,-14,cs),
(377,-14,o),
(423,55,o),
(423,116,cs),
(423,329,o),
(90,222,o),
(90,389,cs),
(90,455,o),
(136,498,o),
(221,498,cs),
(302,498,o),
(363,454,o),
(395,383,c),
(418,397,l),
(389,473,o),
(319,513,o),
(223,513,cs)
);
}
);
width = 442.6;
},
{
anchors = (
{
name = bottom;
pos = (273,0);
},
{
name = top;
pos = (258,500);
}
);
layerId = "3ED9E848-BE83-4CAC-8EFF-D71BD2B4F667";
shapes = (
{
closed = 1;
nodes = (
(158,511,o),
(55,460,o),
(55,366,cs),
(55,144,o),
(342,230,o),
(342,152,cs),
(342,126,o),
(307,112,o),
(270,112,cs),
(203,112,o),
(186,185,o),
(177,221,c),
(20,159,l),
(52,34,o),
(147,-12,o),
(270,-12,cs),
(412,-12,o),
(514,51,o),
(514,161,cs),
(514,350,o),
(222,256,o),
(222,354,cs),
(222,375,o),
(241,387,o),
(271,387,cs),
(323,387,o),
(355,349,o),
(348,286,c),
(504,358,l),
(476,448,o),
(383,511,o),
(258,511,cs)
);
}
);
width = 533.97917;
}
);
note = s;
unicode = 115;
},
{
glyphname = germandbls;
kernLeft = germandbls;
kernRight = germandbls;
lastChange = "2023-09-13 03:40:42 +0000";
layers = (
{
layerId = "F5467FAD-1970-4982-B3D3-939C01050498";
shapes = (
{
closed = 1;
nodes = (
(87,-16,l),
(87,531,ls),
(87,631,o),
(145,688,o),
(241,688,cs),
(342,688,o),
(401,631,o),
(401,551,cs),
(401,477,o),
(374,431,o),
(280,431,cs),
(263,431,l),
(263,405,l),
(303,405,ls),
(435,405,o),
(533,332,o),
(533,201,cs),
(533,72,o),
(436,17,o),
(297,17,cs),
(271,17,o),
(241,23,o),
(215,31,c),
(215,4,l),
(239,-6,o),
(276,-16,o),
(308,-16,cs),
(469,-16,o),
(578,53,o),
(578,201,cs),
(578,304,o),
(508,405,o),
(364,425,c),
(430,452,o),
(445,501,o),
(445,563,cs),
(445,650,o),
(356,716,o),
(241,716,cs),
(123,716,o),
(43,641,o),
(43,520,cs),
(43,-16,l)
);
}
);
width = 596;
},
{
layerId = "6DD95C5A-998B-41AB-BDFB-84A73C209871";
shapes = (
{
closed = 1;
nodes = (
(183,4,l),
(183,517,ls),
(183,562,o),
(206,583,o),
(253,583,cs),
(304,583,o),
(327,562,o),
(327,517,cs),
(327,471,o),
(304,447,o),
(250,447,cs),
(214,447,l),
(214,332,l),
(304,332,ls),
(385,332,o),
(437,302,o),
(437,227,cs),
(437,166,o),
(409,117,o),
(319,117,cs),
(289,117,o),
(229,132,o),
(211,144,c),
(211,26,l),
(227,17,o),
(274,4,o),
(318,4,cs),
(476,4,o),
(590,80,o),
(590,227,cs),
(590,324,o),
(538,393,o),
(447,426,c),
(469,455,o),
(479,486,o),
(479,526,cs),
(479,653,o),
(365,696,o),
(253,696,cs),
(137,696,o),
(31,633,o),
(31,504,cs),
(31,4,l)
);
}
);
width = 596;
},
{
layerId = "1FDC7037-1F88-4969-8535-0F79C1EF19DB";
shapes = (
{
closed = 1;
nodes = (
(72,-19,l),
(72,533,ls),
(72,642,o),
(135,705,o),
(239,705,cs),
(348,705,o),
(413,642,o),
(413,556,cs),
(413,478,o),
(385,428,o),
(285,428,cs),
(271,428,l),
(271,417,l),
(303,417,ls),
(443,417,o),
(548,337,o),
(548,197,cs),
(548,57,o),
(440,1,o),
(293,1,cs),
(268,1,o),
(243,6,o),
(216,13,c),
(216,0,l),
(241,-10,o),
(276,-19,o),
(306,-19,cs),
(468,-19,o),
(576,49,o),
(576,197,cs),
(576,301,o),
(503,407,o),
(351,425,c),
(424,452,o),
(440,503,o),
(440,569,cs),
(440,650,o),
(355,719,o),
(239,719,cs),
(121,719,o),
(45,642,o),
(45,523,cs),
(45,-19,l)
);
}
);
width = 596;
},
{
layerId = "3ED9E848-BE83-4CAC-8EFF-D71BD2B4F667";
shapes = (
{
closed = 1;
nodes = (
(207,9,l),
(207,514,ls),
(207,545,o),
(221,557,o),
(256,557,cs),
(295,557,o),
(309,545,o),
(309,509,cs),
(309,470,o),
(287,451,o),
(243,451,cs),
(202,451,l),
(202,314,l),
(304,314,ls),
(373,314,o),
(413,295,o),
(413,233,cs),
(413,189,o),
(402,142,o),
(324,142,cs),
(293,142,o),
(226,159,o),
(210,172,c),
(210,31,l),
(224,23,o),
(274,9,o),
(321,9,cs),
(478,9,o),
(593,87,o),
(593,233,cs),
(593,329,o),
(545,390,o),
(467,426,c),
(479,456,o),
(487,482,o),
(487,517,cs),
(487,654,o),
(367,691,o),
(256,691,cs),
(140,691,o),
(28,631,o),
(28,500,cs),
(28,9,l)
);
}
);
width = 596;
}
);
note = germandbls;
unicode = 223;
},
{
glyphname = t;
kernLeft = t;
kernRight = t;
lastChange = "2023-09-13 03:40:42 +0000";
layers = (
{
anchors = (
{
name = bottom;
pos = (264,0);
},
{
name = top;
pos = (143,700);
}
);
layerId = "F5467FAD-1970-4982-B3D3-939C01050498";
shapes = (
{
closed = 1;
nodes = (
(328,-12,o),
(379,16,o),
(409,59,c),
(374,76,l),
(353,35,o),
(308,16,o),
(262,16,cs),
(192,16,o),
(165,59,o),
(165,144,cs),
(165,467,l),
(342,467,l),
(342,502,l),
(165,502,l),
(165,700,l),
(121,700,l),
(121,502,l),
(16,502,l),
(16,467,l),
(121,467,l),
(121,141,ls),
(121,42,o),
(161,-12,o),
(262,-12,cs)
);
}
);
width = 459;
},
{
anchors = (
{
name = bottom;
pos = (278,0);
},
{
name = top;
pos = (178,700);
}
);
layerId = "6DD95C5A-998B-41AB-BDFB-84A73C209871";
shapes = (
{
closed = 1;
nodes = (
(404,-8,o),
(459,54,o),
(486,108,c),
(370,175,l),
(359,126,o),
(335,97,o),
(301,97,cs),
(273,97,o),
(254,119,o),
(254,164,cs),
(254,388,l),
(400,388,l),
(400,504,l),
(254,504,l),
(254,700,l),
(102,700,l),
(102,504,l),
(15,504,l),
(15,388,l),
(102,388,l),
(102,162,ls),
(102,73,o),
(150,-8,o),
(301,-8,cs)
);
}
);
width = 491;
},
{
anchors = (
{
name = bottom;
pos = (262,0);
},
{
name = top;
pos = (137,700);
}
);
layerId = "1FDC7037-1F88-4969-8535-0F79C1EF19DB";
shapes = (
{
closed = 1;
nodes = (
(316,-13,o),
(366,10,o),
(397,51,c),
(375,60,l),
(352,20,o),
(304,3,o),
(256,3,cs),
(179,3,o),
(151,49,o),
(151,141,cs),
(151,480,l),
(333,480,l),
(333,502,l),
(151,502,l),
(151,700,l),
(124,700,l),
(124,502,l),
(16,502,l),
(16,480,l),
(124,480,l),
(124,138,ls),
(124,37,o),
(163,-13,o),
(256,-13,cs)
);
}
);
width = 453.88;
},
{
anchors = (
{
name = bottom;
pos = (281,0);
},
{
name = top;
pos = (187,700);
}
);
layerId = "3ED9E848-BE83-4CAC-8EFF-D71BD2B4F667";
shapes = (
{
closed = 1;
nodes = (
(423,-7,o),
(479,63,o),
(505,120,c),
(369,199,l),
(360,148,o),
(342,117,o),
(311,117,cs),
(293,117,o),
(276,134,o),
(276,169,cs),
(276,369,l),
(414,369,l),
(414,504,l),
(276,504,l),
(276,700,l),
(97,700,l),
(97,504,l),
(15,504,l),
(15,369,l),
(97,369,l),
(97,167,ls),
(97,81,o),
(147,-7,o),
(311,-7,cs)
);
}
);
width = 498.86667;
}
);
note = t;
unicode = 116;
},
{
glyphname = tbar;
lastChange = "2023-09-13 03:40:42 +0000";
layers = (
{
layerId = "F5467FAD-1970-4982-B3D3-939C01050498";
shapes = (
{
closed = 1;
nodes = (
(325,362,l),
(26,362,l),
(26,320,l),
(325,320,l)
);
},
{
ref = t;
}
);
width = 459;
},
{
layerId = "6DD95C5A-998B-41AB-BDFB-84A73C209871";
shapes = (
{
closed = 1;
nodes = (
(373,343,l),
(40,343,l),
(40,248,l),
(373,248,l)
);
},
{
ref = t;
}
);
width = 491;
},
{
layerId = "1FDC7037-1F88-4969-8535-0F79C1EF19DB";
shapes = (
{
closed = 1;
nodes = (
(317,365,l),
(24,365,l),
(24,332,l),
(317,332,l)
);
},
{
alignment = -1;
ref = t;
}
);
width = 453.88;
},
{
layerId = "3ED9E848-BE83-4CAC-8EFF-D71BD2B4F667";
shapes = (
{
closed = 1;
nodes = (
(385,338,l),
(43,338,l),
(43,230,l),
(385,230,l)
);
},
{
alignment = -1;
ref = t;
}
);
width = 498.86667;
}
);
unicode = 359;
},
{
glyphname = u;
kernLeft = m;
kernRight = a;
lastChange = "2023-09-13 03:40:42 +0000";
layers = (
{
anchors = (
{
name = bottom;
pos = (293,0);
},
{
name = ogonek;
pos = (476,1);
},
{
name = top;
pos = (293,500);
}
);
layerId = "F5467FAD-1970-4982-B3D3-939C01050498";
shapes = (
{
closed = 1;
nodes = (
(351.58,-7,o),
(449.52,44.97,o),
(476,145.72,c),
(476,1,l),
(520,1,l),
(520,500,l),
(476,500,l),
(476,224,l),
(461,55,o),
(350,18,o),
(264,18,cs),
(139,18,o),
(94,103,o),
(94,197,cs),
(94,500,l),
(50,500,l),
(50,197,ls),
(50,92,o),
(89,-7,o),
(251,-7,cs)
);
}
);
width = 570;
},
{
anchors = (
{
name = bottom;
pos = (293,0);
},
{
name = ogonek;
pos = (399,0);
},
{
name = top;
pos = (293,500);
}
);
layerId = "6DD95C5A-998B-41AB-BDFB-84A73C209871";
shapes = (
{
closed = 1;
nodes = (
(328.64,-7,o),
(371.27,14.99,o),
(399,50.66,c),
(399,0,l),
(551,0,l),
(551,500,l),
(399,500,l),
(399,252.44,ls),
(399,126,o),
(334.44,101,o),
(280,101,cs),
(218,101,o),
(197,139,o),
(197,206,cs),
(197,500,l),
(45,500,l),
(45,206,ls),
(45,109,o),
(87,-7,o),
(269,-7,cs)
);
}
);
width = 601;
},
{
anchors = (
{
name = bottom;
pos = (293,0);
},
{
name = ogonek;
pos = (488,1);
},
{
name = top;
pos = (293,500);
}
);
layerId = "1FDC7037-1F88-4969-8535-0F79C1EF19DB";
shapes = (
{
closed = 1;
nodes = (
(355,-7,o),
(462,50,o),
(488,161,c),
(488,1,l),
(515,1,l),
(515,500,l),
(488,500,l),
(488,219,l),
(471,44,o),
(352,5,o),
(261,5,cs),
(126,5,o),
(78,97,o),
(78,196,cs),
(78,500,l),
(51,500,l),
(51,196,ls),
(51,89,o),
(89,-7,o),
(248,-7,cs)
);
}
);
width = 565.04;
},
{
anchors = (
{
name = bottom;
pos = (293,0);
},
{
name = ogonek;
pos = (380,0);
},
{
name = top;
pos = (293,500);
}
);
layerId = "3ED9E848-BE83-4CAC-8EFF-D71BD2B4F667";
shapes = (
{
closed = 1;
nodes = (
(323,-7,o),
(352,8,o),
(380,27,c),
(380,0,l),
(559,0,l),
(559,500,l),
(380,500,l),
(380,259,l),
(384,143,o),
(331,121,o),
(284,121,cs),
(237,121,o),
(222,148,o),
(222,208,cs),
(222,500,l),
(44,500,l),
(44,208,ls),
(44,113,o),
(87,-7,o),
(273,-7,cs)
);
}
);
width = 608.62083;
}
);
note = u;
unicode = 117;
},
{
glyphname = v;
kernLeft = v;
kernRight = v;
lastChange = "2023-09-13 03:40:42 +0000";
layers = (
{
layerId = "F5467FAD-1970-4982-B3D3-939C01050498";
shapes = (
{
closed = 1;
nodes = (
(258,0,l),
(469,500,l),
(429,500,l),
(233,35,l),
(247,35,l),
(51,500,l),
(11,500,l),
(222,0,l)
);
}
);
width = 500;
},
{
layerId = "6DD95C5A-998B-41AB-BDFB-84A73C209871";
shapes = (
{
closed = 1;
nodes = (
(356,0,l),
(557,500,l),
(406,500,l),
(260,127,l),
(313,127,l),
(166,500,l),
(15,500,l),
(215.97,0,l)
);
}
);
width = 572;
},
{
layerId = "1FDC7037-1F88-4969-8535-0F79C1EF19DB";
shapes = (
{
closed = 1;
nodes = (
(242,0,l),
(455,500,l),
(433,500,l),
(229,20,l),
(236,20,l),
(33,500,l),
(10,500,l),
(223,0,l)
);
}
);
width = 488.48;
},
{
layerId = "3ED9E848-BE83-4CAC-8EFF-D71BD2B4F667";
shapes = (
{
closed = 1;
nodes = (
(380,0,l),
(579,500,l),
(400,500,l),
(267,150,l),
(329,150,l),
(194,500,l),
(16,500,l),
(214,0,l)
);
}
);
width = 589.7;
}
);
note = v;
unicode = 118;
},
{
glyphname = w;
kernLeft = w;
kernRight = w;
lastChange = "2023-09-13 03:40:42 +0000";
layers = (
{
anchors = (
{
name = bottom;
pos = (323,0);
},
{
name = top;
pos = (316,500);
}
);
layerId = "F5467FAD-1970-4982-B3D3-939C01050498";
shapes = (
{
closed = 1;
nodes = (
(196,0,l),
(323,469,l),
(309,469,l),
(436,0,l),
(479,0,l),
(622,500,l),
(582,500,l),
(454,37,l),
(460,37,l),
(332,500,l),
(300,500,l),
(172,37,l),
(178,37,l),
(50,500,l),
(10,500,l),
(153,0,l)
);
}
);
width = 646;
},
{
anchors = (
{
name = bottom;
pos = (382,0);
},
{
name = top;
pos = (382,500);
}
);
layerId = "6DD95C5A-998B-41AB-BDFB-84A73C209871";
shapes = (
{
closed = 1;
nodes = (
(325,0,l),
(392,347,l),
(372,347,l),
(439,0,l),
(606,0,l),
(749,500,l),
(597,500,l),
(511,128,l),
(535,128,l),
(449,500,l),
(315,500,l),
(229,129,l),
(253,129,l),
(167,500,l),
(15,500,l),
(157,0,l)
);
}
);
width = 764;
},
{
anchors = (
{
name = bottom;
pos = (314,0);
},
{
name = top;
pos = (305,500);
}
);
layerId = "1FDC7037-1F88-4969-8535-0F79C1EF19DB";
shapes = (
{
closed = 1;
nodes = (
(175,0,l),
(312,489,l),
(299,489,l),
(436,0,l),
(459,0,l),
(602,500,l),
(580,500,l),
(445,22,l),
(448,22,l),
(313,500,l),
(298,500,l),
(163,22,l),
(166,22,l),
(31,500,l),
(9,500,l),
(152,0,l)
);
}
);
width = 627.12;
},
{
anchors = (
{
name = bottom;
pos = (396,0);
},
{
name = top;
pos = (398,500);
}
);
layerId = "3ED9E848-BE83-4CAC-8EFF-D71BD2B4F667";
shapes = (
{
closed = 1;
nodes = (
(357,0,l),
(409,317,l),
(387,317,l),
(440,0,l),
(637,0,l),
(780,500,l),
(601,500,l),
(525,150,l),
(553,150,l),
(478,500,l),
(319,500,l),
(243,152,l),
(271,152,l),
(196,500,l),
(16,500,l),
(158,0,l)
);
}
);
width = 793.00833;
}
);
note = w;
unicode = 119;
},
{
glyphname = x;
kernLeft = x;
kernRight = x;
lastChange = "2023-09-13 03:40:42 +0000";
layers = (
{
layerId = "F5467FAD-1970-4982-B3D3-939C01050498";
shapes = (
{
closed = 1;
nodes = (
(72,500,l),
(16,500,l),
(460,0,l),
(516,0,l)
);
},
{
closed = 1;
nodes = (
(285,233,l),
(522,500,l),
(466,500,l),
(258,266,l)
);
},
{
closed = 1;
nodes = (
(246,266,l),
(10,0,l),
(66,0,l),
(273,233,l)
);
}
);
width = 532;
},
{
layerId = "6DD95C5A-998B-41AB-BDFB-84A73C209871";
shapes = (
{
closed = 1;
nodes = (
(210,500,l),
(30,500,l),
(415,0,l),
(595,0,l)
);
},
{
closed = 1;
nodes = (
(374,187,l),
(615,500,l),
(435,500,l),
(284,304,l)
);
},
{
closed = 1;
nodes = (
(244,304,l),
(10,0,l),
(190,0,l),
(334,187,l)
);
}
);
width = 625;
},
{
layerId = "1FDC7037-1F88-4969-8535-0F79C1EF19DB";
shapes = (
{
closed = 1;
nodes = (
(50,500,l),
(14,500,l),
(467,0,l),
(503,0,l)
);
},
{
closed = 1;
nodes = (
(271,240,l),
(507,500,l),
(471,500,l),
(254,260,l)
);
},
{
closed = 1;
nodes = (
(246,260,l),
(10,0,l),
(46,0,l),
(263,240,l)
);
}
);
width = 517.12;
},
{
layerId = "3ED9E848-BE83-4CAC-8EFF-D71BD2B4F667";
shapes = (
{
closed = 1;
nodes = (
(244,500,l),
(33,500,l),
(404,0,l),
(614,0,l)
);
},
{
closed = 1;
nodes = (
(396,176,l),
(638,500,l),
(427,500,l),
(290,313,l)
);
},
{
closed = 1;
nodes = (
(244,313,l),
(10,0,l),
(221,0,l),
(349,176,l)
);
}
);
width = 647.8625;
}
);
note = x;
unicode = 120;
},
{
glyphname = y;
kernLeft = y;
kernRight = y;
lastChange = "2023-09-13 03:40:42 +0000";
layers = (
{
anchors = (
{
name = top;
pos = (232,500);
}
);
layerId = "F5467FAD-1970-4982-B3D3-939C01050498";
shapes = (
{
closed = 1;
nodes = (
(177,-200,l),
(462,500,l),
(415,500,l),
(251,98,l),
(264,98,l),
(61,501,l),
(10,500,l),
(251,23,l),
(251,98,l),
(129,-200,l)
);
}
);
width = 472;
},
{
anchors = (
{
name = top;
pos = (324,500);
}
);
layerId = "6DD95C5A-998B-41AB-BDFB-84A73C209871";
shapes = (
{
closed = 1;
nodes = (
(303,-200,l),
(588,500,l),
(432,500,l),
(312,205,l),
(319,206,l),
(177,500,l),
(10,500,l),
(271,-33,l),
(271,107,l),
(146,-200,l)
);
}
);
width = 598;
},
{
anchors = (
{
name = top;
pos = (217,500);
}
);
layerId = "1FDC7037-1F88-4969-8535-0F79C1EF19DB";
shapes = (
{
closed = 1;
nodes = (
(157,-200,l),
(442,500,l),
(412,500,l),
(241,81,l),
(255,81,l),
(42,501,l),
(10,500,l),
(248,32,l),
(248,97,l),
(126,-200,l)
);
}
);
width = 451.84;
},
{
anchors = (
{
name = top;
pos = (347,500);
}
);
layerId = "3ED9E848-BE83-4CAC-8EFF-D71BD2B4F667";
shapes = (
{
closed = 1;
nodes = (
(334,-200,l),
(619,500,l),
(436,500,l),
(327,231,l),
(333,233,l),
(206,500,l),
(10,500,l),
(276,-47,l),
(276,109,l),
(150,-200,l)
);
}
);
width = 628.975;
}
);
note = y;
unicode = 121;
},
{
glyphname = z;
kernLeft = z;
kernRight = z;
lastChange = "2023-09-13 03:40:42 +0000";
layers = (
{
anchors = (
{
name = bottom;
pos = (250,0);
},
{
name = top;
pos = (250,500);
}
);
layerId = "F5467FAD-1970-4982-B3D3-939C01050498";
shapes = (
{
closed = 1;
nodes = (
(473,0,l),
(473,35,l),
(71,35,l),
(490,465,l),
(490,500,l),
(50,500,l),
(50,465,l),
(427,465,l),
(10,35,l),
(10,0,l)
);
}
);
width = 500;
},
{
anchors = (
{
name = bottom;
pos = (261,0);
},
{
name = top;
pos = (261,500);
}
);
layerId = "6DD95C5A-998B-41AB-BDFB-84A73C209871";
shapes = (
{
closed = 1;
nodes = (
(501,0,l),
(501,115,l),
(222,115,l),
(493,395,l),
(493,500,l),
(35,500,l),
(35,385,l),
(281,385,l),
(20,105,l),
(20,0,l)
);
}
);
width = 521;
},
{
anchors = (
{
name = bottom;
pos = (248,0);
},
{
name = top;
pos = (248,500);
}
);
layerId = "1FDC7037-1F88-4969-8535-0F79C1EF19DB";
shapes = (
{
closed = 1;
nodes = (
(469,0,l),
(469,22,l),
(47,22,l),
(490,476,l),
(490,500,l),
(52,500,l),
(52,478,l),
(450,478,l),
(8,24,l),
(8,0,l)
);
}
);
width = 496.64;
},
{
anchors = (
{
name = bottom;
pos = (264,0);
},
{
name = top;
pos = (264,500);
}
);
layerId = "3ED9E848-BE83-4CAC-8EFF-D71BD2B4F667";
shapes = (
{
closed = 1;
nodes = (
(508,0,l),
(508,135,l),
(259,135,l),
(494,378,l),
(494,500,l),
(31,500,l),
(31,365,l),
(245,365,l),
(23,122,l),
(23,0,l)
);
}
);
width = 526.1625;
}
);
note = z;
unicode = 122;
},
{
glyphname = a.ss01;
lastChange = "2023-09-13 03:40:42 +0000";
layers = (
{
anchors = (
{
name = bottom;
pos = (301,0);
},
{
name = ogonek;
pos = (491,0);
},
{
name = top;
pos = (274,500);
}
);
layerId = "F5467FAD-1970-4982-B3D3-939C01050498";
shapes = (
{
closed = 1;
nodes = (
(533,500,l),
(488,500,l),
(488,398,l),
(504,252,l),
(488,118,l),
(488,0,l),
(532,0,l)
);
},
{
closed = 1;
nodes = (
(439,-12,o),
(505,135,o),
(505,252,cs),
(505,370,o),
(434,513,o),
(279,513,cs),
(127,513,o),
(30,403,o),
(30,252,cs),
(30,100,o),
(127,-12,o),
(279,-12,cs)
);
},
{
closed = 1;
nodes = (
(157,18,o),
(75,123,o),
(75,252,cs),
(75,379,o),
(155,484,o),
(278,484,cs),
(399,484,o),
(500,394,o),
(500,252,cs),
(500,107,o),
(400,18,o),
(279,18,cs)
);
}
);
width = 583;
},
{
anchors = (
{
name = bottom;
pos = (326,0);
},
{
name = ogonek;
pos = (450,0);
},
{
name = top;
pos = (314,500);
}
);
layerId = "6DD95C5A-998B-41AB-BDFB-84A73C209871";
shapes = (
{
closed = 1;
nodes = (
(603,500,l),
(450,500,l),
(450,473,l),
(470,252,l),
(450,26,l),
(450,0,l),
(602,0,l)
);
},
{
closed = 1;
nodes = (
(446,-9,o),
(477,78,o),
(477,252,cs),
(477,425,o),
(437,512,o),
(284,512,cs),
(125,512,o),
(20,394,o),
(20,252,cs),
(20,111,o),
(125,-9,o),
(284,-9,cs)
);
},
{
closed = 1;
nodes = (
(232,102,o),
(183,162,o),
(183,252,cs),
(183,341,o),
(231,402,o),
(314,402,cs),
(407,402,o),
(460,345,o),
(460,252,cs),
(460,153,o),
(403,102,o),
(314,102,cs)
);
}
);
width = 638;
},
{
anchors = (
{
name = bottom;
pos = (297,0);
},
{
name = ogonek;
pos = (498,0);
},
{
name = top;
pos = (268,500);
}
);
layerId = "1FDC7037-1F88-4969-8535-0F79C1EF19DB";
shapes = (
{
closed = 1;
nodes = (
(522,500,l),
(494,500,l),
(494,386,l),
(509,252,l),
(494,133,l),
(494,0,l),
(521,0,l)
);
},
{
closed = 1;
nodes = (
(438,-12,o),
(509,144,o),
(509,252,cs),
(509,361,o),
(434,513,o),
(278,513,cs),
(127,513,o),
(32,404,o),
(32,252,cs),
(32,98,o),
(127,-12,o),
(278,-12,cs)
);
},
{
closed = 1;
nodes = (
(145,5,o),
(58,117,o),
(58,252,cs),
(58,385,o),
(143,497,o),
(272,497,cs),
(398,497,o),
(506,402,o),
(506,252,cs),
(506,100,o),
(400,5,o),
(273,5,cs)
);
}
);
width = 574.2;
},
{
anchors = (
{
name = bottom;
pos = (332,0);
},
{
name = ogonek;
pos = (440,0);
},
{
name = top;
pos = (324,500);
}
);
layerId = "3ED9E848-BE83-4CAC-8EFF-D71BD2B4F667";
shapes = (
{
closed = 1;
nodes = (
(620,500,l),
(441,500,l),
(441,491,l),
(462,252,l),
(441,3,l),
(441,0,l),
(619,0,l)
);
},
{
closed = 1;
nodes = (
(448,-8,o),
(470,64,o),
(470,252,cs),
(470,439,o),
(438,512,o),
(285,512,cs),
(125,512,o),
(18,392,o),
(18,252,cs),
(18,114,o),
(125,-8,o),
(285,-8,cs)
);
},
{
closed = 1;
nodes = (
(250,123,o),
(210,172,o),
(210,252,cs),
(210,332,o),
(250,382,o),
(323,382,cs),
(409,382,o),
(450,333,o),
(450,252,cs),
(450,164,o),
(404,123,o),
(323,123,cs)
);
}
);
width = 651.52083;
}
);
},
{
glyphname = f.ss02;
lastChange = "2023-09-13 03:40:42 +0000";
layers = (
{
layerId = "F5467FAD-1970-4982-B3D3-939C01050498";
shapes = (
{
closed = 1;
nodes = (
(346,466,l),
(346,501,l),
(9,501,l),
(9,466,l)
);
},
{
closed = 1;
nodes = (
(148,760,o),
(124,635,o),
(124,570,cs),
(124,0,l),
(168,0,l),
(168,570,ls),
(168,687,o),
(214,732,o),
(307,732,cs),
(359,732,o),
(393,705,o),
(419,676,c),
(457,703,l),
(428,732,o),
(384,760,o),
(307,760,cs)
);
}
);
width = 423;
},
{
layerId = "6DD95C5A-998B-41AB-BDFB-84A73C209871";
shapes = (
{
closed = 1;
nodes = (
(402,385,l),
(402,501,l),
(7,501,l),
(7,385,l)
);
},
{
closed = 1;
nodes = (
(154,760,o),
(108,644,o),
(108,562,cs),
(108,0,l),
(260,0,l),
(260,562,ls),
(260,605,o),
(280,643,o),
(338,643,cs),
(386,643,o),
(398,596,o),
(404,572,c),
(515,656,l),
(496,683,o),
(435,760,o),
(318,760,cs)
);
}
);
width = 397;
},
{
layerId = "1FDC7037-1F88-4969-8535-0F79C1EF19DB";
shapes = (
{
closed = 1;
nodes = (
(337,479,l),
(337,501,l),
(9,501,l),
(9,479,l)
);
},
{
closed = 1;
nodes = (
(147,760,o),
(127,634,o),
(127,571,cs),
(127,0,l),
(153,0,l),
(153,571,ls),
(153,700,o),
(203,746,o),
(302,746,cs),
(355,746,o),
(392,722,o),
(421,693,c),
(448,711,l),
(417,740,o),
(376,760,o),
(305,760,cs)
);
}
);
width = 427.16;
},
{
layerId = "3ED9E848-BE83-4CAC-8EFF-D71BD2B4F667";
shapes = (
{
closed = 1;
nodes = (
(416,365,l),
(416,501,l),
(7,501,l),
(7,365,l)
);
},
{
closed = 1;
nodes = (
(155,760,o),
(104,646,o),
(104,560,cs),
(104,0,l),
(283,0,l),
(283,560,ls),
(283,585,o),
(296,621,o),
(346,621,cs),
(393,621,o),
(399,569,o),
(400,546,c),
(529,644,l),
(513,671,o),
(448,760,o),
(321,760,cs)
);
}
);
width = 390.60833;
}
);
},
{
glyphname = f_f_ij;
lastChange = "2023-09-13 03:43:03 +0000";
layers = (
{
anchors = (
{
name = bottom_1;
pos = (172,0);
},
{
name = bottom_2;
pos = (516,0);
},
{
name = bottom_3;
pos = (860,0);
},
{
name = caret_1;
pos = (344,0);
},
{
name = caret_2;
pos = (688,0);
},
{
name = top_1;
pos = (172,1000);
},
{
name = top_2;
pos = (516,1000);
},
{
name = top_3;
pos = (860,1000);
}
);
layerId = "F5467FAD-1970-4982-B3D3-939C01050498";
shapes = (
{
closed = 1;
nodes = (
(737,0,l),
(737,500,l),
(442,501,l),
(361,529,o),
(350,573,o),
(350,611,cs),
(350,687,o),
(414,727,o),
(513,727,cs),
(600,727,o),
(655,673,o),
(678,649,c),
(737,648,l),
(737,704,l),
(688,704,l),
(653,727,o),
(599,755,o),
(513,755,cs),
(361,755,o),
(314,667,o),
(314,615,cs),
(314,568,o),
(341,521,o),
(392,501,c),
(261,501,l),
(261,466,l),
(367,466,l),
(366,1,l),
(410,1,l),
(410,466,l),
(693,466,l),
(693,0,l)
);
},
{
ref = f;
},
{
pos = (828,0);
ref = j;
}
);
width = 1032;
},
{
anchors = (
{
name = bottom_1;
pos = (209,0);
},
{
name = bottom_2;
pos = (628,0);
},
{
name = bottom_3;
pos = (1047,0);
},
{
name = caret_1;
pos = (418.667,0);
},
{
name = caret_2;
pos = (837.333,0);
},
{
name = top_1;
pos = (209,1000);
},
{
name = top_2;
pos = (628,1000);
},
{
name = top_3;
pos = (1047,1000);
}
);
layerId = "6DD95C5A-998B-41AB-BDFB-84A73C209871";
shapes = (
{
closed = 1;
nodes = (
(850,0,l),
(850,501,l),
(529,501,l),
(496,518,o),
(486,546,o),
(486,572,cs),
(486,616,o),
(523,634,o),
(555,634,cs),
(607,634,o),
(628,622,o),
(681,561,c),
(850,561,l),
(850,693,l),
(695,693,l),
(679,706,o),
(624,738,o),
(555,738,cs),
(410,738,o),
(353,644,o),
(353,575,cs),
(353,554,o),
(355,528,o),
(372,501,c),
(295,501,l),
(295,385,l),
(383,385,l),
(382,0,l),
(534,0,l),
(534,385,l),
(698,385,l),
(698,0,l)
);
},
{
ref = f;
},
{
pos = (944,0);
ref = j;
}
);
width = 1256;
},
{
anchors = (
{
name = bottom_1;
pos = (166,0);
},
{
name = bottom_2;
pos = (498,0);
},
{
name = bottom_3;
pos = (830,0);
},
{
name = caret_1;
pos = (332.053,0);
},
{
name = caret_2;
pos = (664.107,0);
},
{
name = top_1;
pos = (166,1000);
},
{
name = top_2;
pos = (498,1000);
},
{
name = top_3;
pos = (830,1000);
}
);
layerId = "1FDC7037-1F88-4969-8535-0F79C1EF19DB";
shapes = (
{
closed = 1;
nodes = (
(719,0,l),
(719,500,l),
(428,501,l),
(339,531,o),
(328,577,o),
(328,617,cs),
(328,698,o),
(397,742,o),
(506,742,cs),
(599,742,o),
(659,681,o),
(678,663,c),
(719,662,l),
(719,706,l),
(687,706,l),
(649,730,o),
(595,758,o),
(506,758,cs),
(353,758,o),
(308,671,o),
(308,621,cs),
(308,570,o),
(339,520,o),
(395,501,c),
(256,501,l),
(256,479,l),
(364,479,l),
(363,1,l),
(390,1,l),
(390,479,l),
(692,479,l),
(692,0,l)
);
},
{
alignment = -1;
ref = f;
},
{
alignment = -1;
pos = (809,0);
ref = j;
}
);
width = 996.16;
},
{
anchors = (
{
name = bottom_1;
pos = (219,0);
},
{
name = bottom_2;
pos = (656,0);
},
{
name = bottom_3;
pos = (1093,0);
},
{
name = caret_1;
pos = (437.333,0);
},
{
name = caret_2;
pos = (874.667,0);
},
{
name = top_1;
pos = (219,1000);
},
{
name = top_2;
pos = (656,1000);
},
{
name = top_3;
pos = (1093,1000);
}
);
layerId = "3ED9E848-BE83-4CAC-8EFF-D71BD2B4F667";
shapes = (
{
closed = 1;
nodes = (
(878,0,l),
(878,501,l),
(550,501,l),
(529,515,o),
(519,539,o),
(519,562,cs),
(519,599,o),
(550,611,o),
(565,611,cs),
(609,611,o),
(621,609,o),
(682,539,c),
(878,540,l),
(878,690,l),
(697,690,l),
(685,701,o),
(630,734,o),
(565,734,cs),
(422,734,o),
(363,638,o),
(363,565,cs),
(363,551,o),
(358,530,o),
(367,501,c),
(303,501,l),
(303,365,l),
(387,365,l),
(386,0,l),
(565,0,l),
(565,365,l),
(699,365,l),
(699,0,l)
);
},
{
alignment = -1;
ref = f;
},
{
alignment = -1;
pos = (973,0);
ref = j;
}
);
width = 1312;
}
);
metricLeft = f;
metricRight = ij;
},
{
glyphname = f_i;
lastChange = "2023-09-13 03:43:03 +0000";
layers = (
{
anchors = (
{
name = bottom_1;
pos = (141,0);
},
{
name = bottom_2;
pos = (424,0);
},
{
name = caret_1;
pos = (282.5,0);
},
{
name = top_1;
pos = (141,1000);
},
{
name = top_2;
pos = (424,1000);
}
);
layerId = "F5467FAD-1970-4982-B3D3-939C01050498";
shapes = (
{
closed = 1;
nodes = (
(485,0,l),
(485,500,l),
(190,501,l),
(109,529,o),
(98,573,o),
(98,611,cs),
(98,687,o),
(162,727,o),
(261,727,cs),
(348,727,o),
(403,673,o),
(426,649,c),
(485,648,l),
(485,704,l),
(436,704,l),
(401,727,o),
(347,755,o),
(261,755,cs),
(109,755,o),
(62,667,o),
(62,615,cs),
(62,568,o),
(89,521,o),
(140,501,c),
(9,501,l),
(9,466,l),
(115,466,l),
(114,1,l),
(158,1,l),
(158,466,l),
(441,466,l),
(441,0,l)
);
}
);
width = 565;
},
{
anchors = (
{
name = bottom_1;
pos = (161,0);
},
{
name = bottom_2;
pos = (482,0);
},
{
name = caret_1;
pos = (321,0);
},
{
name = top_1;
pos = (161,1000);
},
{
name = top_2;
pos = (482,1000);
}
);
layerId = "6DD95C5A-998B-41AB-BDFB-84A73C209871";
shapes = (
{
closed = 1;
nodes = (
(562,0,l),
(562,501,l),
(241,501,l),
(208,518,o),
(198,546,o),
(198,572,cs),
(198,616,o),
(235,634,o),
(267,634,cs),
(319,634,o),
(340,622,o),
(393,561,c),
(562,561,l),
(562,693,l),
(407,693,l),
(391,706,o),
(336,738,o),
(267,738,cs),
(122,738,o),
(65,644,o),
(65,575,cs),
(65,554,o),
(67,528,o),
(84,501,c),
(7,501,l),
(7,385,l),
(95,385,l),
(94,0,l),
(246,0,l),
(246,385,l),
(410,385,l),
(410,0,l)
);
}
);
width = 642;
},
{
anchors = (
{
name = bottom_1;
pos = (138,0);
},
{
name = bottom_2;
pos = (415,0);
},
{
name = caret_1;
pos = (276.34,0);
},
{
name = top_1;
pos = (138,1000);
},
{
name = top_2;
pos = (415,1000);
}
);
layerId = "1FDC7037-1F88-4969-8535-0F79C1EF19DB";
shapes = (
{
closed = 1;
nodes = (
(473,0,l),
(473,500,l),
(182,501,l),
(93,531,o),
(82,577,o),
(82,617,cs),
(82,698,o),
(150,742,o),
(260,742,cs),
(353,742,o),
(413,681,o),
(431,663,c),
(473,662,l),
(473,706,l),
(441,706,l),
(403,730,o),
(349,758,o),
(260,758,cs),
(107,758,o),
(62,671,o),
(62,621,cs),
(62,570,o),
(93,520,o),
(149,501,c),
(9,501,l),
(9,479,l),
(118,479,l),
(117,1,l),
(144,1,l),
(144,479,l),
(446,479,l),
(446,0,l)
);
}
);
width = 552.68;
},
{
anchors = (
{
name = bottom_1;
pos = (165,0);
},
{
name = bottom_2;
pos = (496,0);
},
{
name = caret_1;
pos = (330.465,0);
},
{
name = top_1;
pos = (165,1000);
},
{
name = top_2;
pos = (496,1000);
}
);
layerId = "3ED9E848-BE83-4CAC-8EFF-D71BD2B4F667";
shapes = (
{
closed = 1;
nodes = (
(581,0,l),
(581,501,l),
(254,501,l),
(232,515,o),
(223,539,o),
(223,562,cs),
(223,599,o),
(253,611,o),
(268,611,cs),
(312,611,o),
(325,609,o),
(385,539,c),
(581,540,l),
(581,690,l),
(400,690,l),
(389,701,o),
(333,734,o),
(268,734,cs),
(125,734,o),
(66,638,o),
(66,565,cs),
(66,551,o),
(62,530,o),
(70,501,c),
(7,501,l),
(7,365,l),
(90,365,l),
(89,0,l),
(268,0,l),
(268,365,l),
(402,365,l),
(402,0,l)
);
}
);
width = 660.92917;
}
);
metricLeft = f;
metricRight = i;
},
{
glyphname = fi;
lastChange = "2023-09-13 03:43:03 +0000";
layers = (
{
anchors = (
{
name = caret_1;
pos = (282.5,0);
}
);
layerId = "F5467FAD-1970-4982-B3D3-939C01050498";
shapes = (
{
closed = 1;
nodes = (
(485,0,l),
(485,500,l),
(190,501,l),
(109,529,o),
(98,573,o),
(98,611,cs),
(98,687,o),
(162,727,o),
(261,727,cs),
(348,727,o),
(403,673,o),
(426,649,c),
(485,648,l),
(485,704,l),
(436,704,l),
(401,727,o),
(347,755,o),
(261,755,cs),
(109,755,o),
(62,667,o),
(62,615,cs),
(62,568,o),
(89,521,o),
(140,501,c),
(9,501,l),
(9,466,l),
(115,466,l),
(114,1,l),
(158,1,l),
(158,466,l),
(441,466,l),
(441,0,l)
);
}
);
width = 565;
},
{
anchors = (
{
name = caret_1;
pos = (321,0);
}
);
layerId = "6DD95C5A-998B-41AB-BDFB-84A73C209871";
shapes = (
{
closed = 1;
nodes = (
(562,0,l),
(562,501,l),
(241,501,l),
(208,518,o),
(198,546,o),
(198,572,cs),
(198,616,o),
(235,634,o),
(267,634,cs),
(319,634,o),
(340,622,o),
(393,561,c),
(562,561,l),
(562,693,l),
(407,693,l),
(391,706,o),
(336,738,o),
(267,738,cs),
(122,738,o),
(65,644,o),
(65,575,cs),
(65,538,o),
(82,508,o),
(108,499,c),
(7,501,l),
(7,385,l),
(95,385,l),
(94,0,l),
(246,0,l),
(246,385,l),
(410,385,l),
(410,0,l)
);
}
);
width = 642;
},
{
anchors = (
{
name = caret_1;
pos = (276.34,0);
}
);
layerId = "1FDC7037-1F88-4969-8535-0F79C1EF19DB";
shapes = (
{
closed = 1;
nodes = (
(473,0,l),
(473,500,l),
(182,501,l),
(93,531,o),
(82,577,o),
(82,617,cs),
(82,698,o),
(150,742,o),
(260,742,cs),
(353,742,o),
(413,681,o),
(431,663,c),
(473,662,l),
(473,706,l),
(441,706,l),
(403,730,o),
(349,758,o),
(260,758,cs),
(107,758,o),
(62,671,o),
(62,621,cs),
(62,573,o),
(90,523,o),
(145,501,c),
(9,501,l),
(9,479,l),
(118,479,l),
(117,1,l),
(144,1,l),
(144,479,l),
(446,479,l),
(446,0,l)
);
}
);
width = 552.68;
},
{
anchors = (
{
name = caret_1;
pos = (330.465,0);
}
);
layerId = "3ED9E848-BE83-4CAC-8EFF-D71BD2B4F667";
shapes = (
{
closed = 1;
nodes = (
(581,0,l),
(581,501,l),
(254,501,l),
(232,515,o),
(223,539,o),
(223,562,cs),
(223,599,o),
(253,611,o),
(268,611,cs),
(312,611,o),
(325,609,o),
(385,539,c),
(581,540,l),
(581,690,l),
(400,690,l),
(389,701,o),
(333,734,o),
(268,734,cs),
(125,734,o),
(66,638,o),
(66,565,cs),
(66,531,o),
(80,505,o),
(100,499,c),
(7,501,l),
(7,365,l),
(90,365,l),
(89,0,l),
(268,0,l),
(268,365,l),
(402,365,l),
(402,0,l)
);
}
);
width = 660.92917;
}
);
metricLeft = f;
metricRight = i;
unicode = 64257;
},
{
glyphname = ordfeminine;
lastChange = "2023-09-13 03:40:42 +0000";
layers = (
{
layerId = "F5467FAD-1970-4982-B3D3-939C01050498";
shapes = (
{
closed = 1;
nodes = (
(228,371,o),
(278,414,o),
(297,469,c),
(297,381,l),
(328,381,l),
(328,595,ls),
(328,657,o),
(315,734,o),
(188,734,cs),
(123,734,o),
(69,702,o),
(54,664,cs),
(53,660,o),
(52,657,o),
(51,652,c),
(95,652,l),
(96,654,o),
(97,657,o),
(98,660,cs),
(108,689,o),
(134,722,o),
(188,722,cs),
(268,722,o),
(292,673,o),
(292,635,cs),
(292,589,o),
(238,572,o),
(174,564,cs),
(64,551,o),
(25,518,o),
(25,466,cs),
(25,410,o),
(77,371,o),
(160,371,cs)
);
},
{
closed = 1;
nodes = (
(80,382,o),
(60,435,o),
(60,470,cs),
(60,515,o),
(92,542,o),
(172,552,cs),
(229,559,o),
(275,574,o),
(297,601,c),
(297,518,ls),
(297,455,o),
(247,382,o),
(160,382,cs)
);
}
);
width = 373;
},
{
layerId = "6DD95C5A-998B-41AB-BDFB-84A73C209871";
shapes = (
{
closed = 1;
nodes = (
(206,372,o),
(237,392,o),
(256,421,c),
(256,381,l),
(361,381,l),
(361,588,ls),
(361,642,o),
(348,732,o),
(205,732,cs),
(123,732,o),
(52,685,o),
(52,629,cs),
(52,622,o),
(54,615,o),
(55,608,c),
(157,608,l),
(157,608,o),
(156,611,o),
(156,614,cs),
(156,628,o),
(163,662,o),
(212,662,cs),
(241,662,o),
(255,649,o),
(255,625,cs),
(255,598,o),
(225,590,o),
(179,586,cs),
(66,575,o),
(25,536,o),
(25,479,cs),
(25,419,o),
(66,372,o),
(156,372,cs)
);
},
{
closed = 1;
nodes = (
(143,437,o),
(127,461,o),
(127,483,cs),
(127,511,o),
(153,524,o),
(185,528,cs),
(211,531,o),
(234,537,o),
(256,546,c),
(256,539,ls),
(256,464,o),
(217,437,o),
(176,437,cs)
);
}
);
width = 406;
},
{
layerId = "1FDC7037-1F88-4969-8535-0F79C1EF19DB";
shapes = (
{
closed = 1;
nodes = (
(232,371,o),
(285,418,o),
(304,477,c),
(304,381,l),
(323,381,l),
(323,596,ls),
(323,659,o),
(310,734,o),
(185,734,cs),
(123,734,o),
(72,705,o),
(54,670,cs),
(53,666,o),
(52,664,o),
(50,659,c),
(85,659,l),
(86,661,o),
(88,664,o),
(89,667,cs),
(100,699,o),
(129,732,o),
(184,732,cs),
(272,732,o),
(298,677,o),
(298,637,cs),
(298,588,o),
(240,569,o),
(173,560,cs),
(64,547,o),
(25,515,o),
(25,464,cs),
(25,409,o),
(79,371,o),
(161,371,cs)
);
},
{
closed = 1;
nodes = (
(70,373,o),
(49,431,o),
(49,468,cs),
(49,516,o),
(82,545,o),
(170,556,cs),
(232,563,o),
(282,580,o),
(304,610,c),
(304,515,ls),
(304,454,o),
(252,373,o),
(157,373,cs)
);
}
);
width = 367.72;
},
{
layerId = "3ED9E848-BE83-4CAC-8EFF-D71BD2B4F667";
shapes = (
{
closed = 1;
nodes = (
(201,372,o),
(227,387,o),
(246,409,c),
(246,381,l),
(369,381,l),
(369,586,ls),
(369,638,o),
(356,732,o),
(209,732,cs),
(123,732,o),
(48,681,o),
(52,620,cs),
(52,613,o),
(54,605,o),
(56,597,c),
(172,597,l),
(172,597,o),
(170,600,o),
(170,603,cs),
(168,613,o),
(170,647,o),
(218,647,cs),
(234,647,o),
(246,643,o),
(246,623,cs),
(246,600,o),
(222,594,o),
(180,591,cs),
(66,581,o),
(25,540,o),
(25,482,cs),
(25,421,o),
(63,372,o),
(155,372,cs)
);
},
{
closed = 1;
nodes = (
(158,451,o),
(144,467,o),
(144,486,cs),
(144,510,o),
(168,520,o),
(188,522,cs),
(207,524,o),
(224,528,o),
(246,532,c),
(246,544,ls),
(246,466,o),
(210,451,o),
(180,451,cs)
);
}
);
width = 414.1125;
}
);
note = ordfeminine;
unicode = 170;
},
{
glyphname = ordmasculine;
lastChange = "2023-09-13 03:40:42 +0000";
layers = (
{
layerId = "F5467FAD-1970-4982-B3D3-939C01050498";
shapes = (
{
closed = 1;
nodes = (
(311.7,367.34,o),
(383.5,444.62,o),
(383.5,547.43,cs),
(383.5,650.93,o),
(310.98,730.28,o),
(205.1,730.28,cs),
(99.22,730.28,o),
(26.7,650.93,o),
(26.7,547.43,cs),
(26.7,444.62,o),
(98.49,367.34,o),
(205.1,367.34,cs)
);
},
{
closed = 1;
nodes = (
(116.62,375.62,o),
(61.61,454.97,o),
(61.61,547.43,cs),
(61.61,640.58,o),
(116.62,720.62,o),
(205.1,720.62,cs),
(293.57,720.62,o),
(348.58,640.58,o),
(348.58,547.43,cs),
(348.58,454.97,o),
(293.57,375.62,o),
(205.1,375.62,cs)
);
}
);
width = 380;
},
{
layerId = "6DD95C5A-998B-41AB-BDFB-84A73C209871";
shapes = (
{
closed = 1;
nodes = (
(325.28,368.72,o),
(400.63,451.52,o),
(400.63,547.43,cs),
(400.63,644.03,o),
(325.28,728.9,o),
(214.38,728.9,cs),
(103.48,728.9,o),
(28.12,644.03,o),
(28.12,547.43,cs),
(28.12,451.52,o),
(103.48,368.72,o),
(214.38,368.72,cs)
);
},
{
closed = 1;
nodes = (
(164.9,441.17,o),
(126.42,475.67,o),
(126.42,547.43,cs),
(126.42,619.88,o),
(164.9,654.38,o),
(214.38,654.38,cs),
(263.85,654.38,o),
(302.33,619.88,o),
(302.33,547.43,cs),
(302.33,475.67,o),
(263.85,441.17,o),
(214.38,441.17,cs)
);
}
);
width = 380;
},
{
layerId = "1FDC7037-1F88-4969-8535-0F79C1EF19DB";
shapes = (
{
closed = 1;
nodes = (
(310,367,o),
(381,444,o),
(381,547,cs),
(381,652,o),
(309,731,o),
(204,731,cs),
(99,731,o),
(26,652,o),
(26,547,cs),
(26,444,o),
(98,367,o),
(204,367,cs)
);
},
{
closed = 1;
nodes = (
(109,365,o),
(51,452,o),
(51,547,cs),
(51,644,o),
(109,731,o),
(204,731,cs),
(298,731,o),
(356,644,o),
(356,547,cs),
(356,452,o),
(298,365,o),
(204,365,cs)
);
}
);
width = 380;
},
{
layerId = "3ED9E848-BE83-4CAC-8EFF-D71BD2B4F667";
shapes = (
{
closed = 1;
nodes = (
(329,369,o),
(405,453,o),
(405,547,cs),
(405,642,o),
(329,729,o),
(217,729,cs),
(104,729,o),
(29,642,o),
(29,547,cs),
(29,453,o),
(105,369,o),
(217,369,cs)
);
},
{
closed = 1;
nodes = (
(177,457,o),
(142,481,o),
(142,547,cs),
(142,615,o),
(177,638,o),
(217,638,cs),
(257,638,o),
(291,615,o),
(291,547,cs),
(291,481,o),
(257,457,o),
(217,457,cs)
);
}
);
width = 380;
}
);
note = ordmasculine;
unicode = 186;
},
{
glyphname = Delta;
lastChange = "2023-09-13 03:40:42 +0000";
layers = (
{
layerId = "F5467FAD-1970-4982-B3D3-939C01050498";
shapes = (
{
closed = 1;
nodes = (
(611,0,l),
(611,38,l),
(354,700,l),
(298,700,l),
(41,38,l),
(41,0,l)
);
},
{
closed = 1;
nodes = (
(326,661.36,l),
(568,38,l),
(84,38,l)
);
}
);
width = 652;
},
{
layerId = "6DD95C5A-998B-41AB-BDFB-84A73C209871";
shapes = (
{
closed = 1;
nodes = (
(652,0,l),
(652,131,l),
(411,700,l),
(241,700,l),
(0,131,l),
(0,0,l)
);
},
{
closed = 1;
nodes = (
(326,560,l),
(487.76,131,l),
(164.24,131,l)
);
}
);
width = 652;
},
{
layerId = "1FDC7037-1F88-4969-8535-0F79C1EF19DB";
shapes = (
{
closed = 1;
nodes = (
(604,0,l),
(604,23,l),
(345,700,l),
(307,700,l),
(48,23,l),
(48,0,l)
);
},
{
closed = 1;
nodes = (
(326,678,l),
(581,23,l),
(71,23,l)
);
}
);
width = 652;
},
{
layerId = "3ED9E848-BE83-4CAC-8EFF-D71BD2B4F667";
shapes = (
{
closed = 1;
nodes = (
(662,0,l),
(662,154,l),
(425,700,l),
(227,700,l),
(-10,154,l),
(-10,0,l)
);
},
{
closed = 1;
nodes = (
(326,535,l),
(468,154,l),
(184,154,l)
);
}
);
width = 652;
}
);
note = Delta;
unicode = 916;
},
{
glyphname = Omega;
lastChange = "2023-09-13 03:40:42 +0000";
layers = (
{
layerId = "F5467FAD-1970-4982-B3D3-939C01050498";
shapes = (
{
closed = 1;
nodes = (
(268,0,l),
(268,54,l),
(146,96,o),
(73,215,o),
(73,359,cs),
(73,533,o),
(196,674,o),
(379,674,cs),
(563,674,o),
(685,533,o),
(685,359,cs),
(685,215,o),
(611,95,o),
(489,54,c),
(489,0,l),
(742,0,l),
(742,44,l),
(550,44,l),
(666,74,o),
(728,240,o),
(728,359,cs),
(728,546,o),
(590,705,o),
(379,705,cs),
(168,705,o),
(31,546,o),
(31,359,cs),
(31,273,o),
(71,84,o),
(213,44,c),
(15,44,l),
(15,0,l)
);
}
);
width = 758;
},
{
layerId = "6DD95C5A-998B-41AB-BDFB-84A73C209871";
shapes = (
{
closed = 1;
nodes = (
(314,0,l),
(314,110,l),
(205,135,o),
(138,233,o),
(138,358,cs),
(138,498,o),
(234,607,o),
(379,607,cs),
(525,607,o),
(620,498,o),
(620,358,cs),
(620,233,o),
(552,134,o),
(443,110,c),
(443,0,l),
(741,0,l),
(741,110,l),
(626,110,l),
(697,174,o),
(748,266,o),
(748,358,cs),
(748,544,o),
(589,705,o),
(379,705,cs),
(169,705,o),
(10,544,o),
(10,358,cs),
(10,266,o),
(61,173,o),
(135,110,c),
(16,110,l),
(16,0,l)
);
}
);
width = 758;
},
{
layerId = "1FDC7037-1F88-4969-8535-0F79C1EF19DB";
shapes = (
{
closed = 1;
nodes = (
(261,0,l),
(261,45,l),
(137,90,o),
(63,212,o),
(63,359,cs),
(63,539,o),
(190,685,o),
(379,685,cs),
(569,685,o),
(695,539,o),
(695,359,cs),
(695,212,o),
(620,89,o),
(496,45,c),
(496,0,l),
(742,0,l),
(742,33,l),
(538,33,l),
(661,58,o),
(725,236,o),
(725,359,cs),
(725,546,o),
(590,705,o),
(379,705,cs),
(168,705,o),
(34,546,o),
(34,359,cs),
(34,274,o),
(73,70,o),
(225,33,c),
(15,33,l),
(15,0,l)
);
}
);
width = 758;
},
{
layerId = "3ED9E848-BE83-4CAC-8EFF-D71BD2B4F667";
shapes = (
{
closed = 1;
nodes = (
(325,0,l),
(325,124,l),
(219,145,o),
(154,237,o),
(154,358,cs),
(154,489,o),
(243,591,o),
(379,591,cs),
(516,591,o),
(604,489,o),
(604,358,cs),
(604,237,o),
(538,144,o),
(432,124,c),
(432,0,l),
(741,0,l),
(741,126,l),
(645,126,l),
(705,199,o),
(753,272,o),
(753,358,cs),
(753,544,o),
(589,705,o),
(379,705,cs),
(169,705,o),
(5,544,o),
(5,358,cs),
(5,264,o),
(59,195,o),
(116,126,c),
(16,126,l),
(16,0,l)
);
}
);
width = 758;
}
);
note = Omega;
unicode = 937;
},
{
glyphname = mu;
lastChange = "2023-09-13 03:40:42 +0000";
layers = (
{
layerId = "F5467FAD-1970-4982-B3D3-939C01050498";
shapes = (
{
closed = 1;
nodes = (
(95,-200,l),
(95,80,l),
(127,22,o),
(183,-7,o),
(257,-7,cs),
(345,-7,o),
(421,23,o),
(459,105,c),
(459,0,l),
(501,0,l),
(501,500,l),
(459,500,l),
(459,213,ls),
(459,72,o),
(339,21,o),
(257,21,cs),
(147,21,o),
(95,118,o),
(95,188,cs),
(95,500,l),
(53,500,l),
(53,-200,l)
);
}
);
width = 556;
},
{
layerId = "6DD95C5A-998B-41AB-BDFB-84A73C209871";
shapes = (
{
closed = 1;
nodes = (
(176,-200,l),
(176,-5,l),
(197,-9,o),
(221.66,-12,o),
(249,-12,cs),
(300.22,-12,o),
(344.74,-0.42,o),
(380,21.79,c),
(380,-6,l),
(534,-6,l),
(534,500,l),
(380,500,l),
(380,250.45,ls),
(377,122,o),
(314.48,96,o),
(260,96,cs),
(197,96,o),
(176,136,o),
(176,203,cs),
(176,500,l),
(22,500,l),
(22,-200,l)
);
}
);
width = 556;
},
{
layerId = "1FDC7037-1F88-4969-8535-0F79C1EF19DB";
shapes = (
{
closed = 1;
nodes = (
(82,-200,l),
(82,94,l),
(116,27,o),
(177,-6,o),
(258,-6,cs),
(352,-6,o),
(433,27,o),
(472,118,c),
(472,1,l),
(496,1,l),
(496,500,l),
(472,500,l),
(472,207,ls),
(472,64,o),
(343,9,o),
(257,9,cs),
(139,9,o),
(82,115,o),
(82,186,cs),
(82,500,l),
(58,500,l),
(58,-200,l)
);
}
);
width = 556;
},
{
layerId = "3ED9E848-BE83-4CAC-8EFF-D71BD2B4F667";
shapes = (
{
closed = 1;
nodes = (
(196,-200,l),
(196,-26,l),
(214,-17,o),
(231,-13,o),
(247,-13,cs),
(289,-13,o),
(326,-6,o),
(361,1,c),
(361,-7,l),
(542,-7,l),
(542,500,l),
(361,500,l),
(361,260,ls),
(357,134,o),
(308,114,o),
(261,114,cs),
(209,114,o),
(196,140,o),
(196,207,cs),
(196,500,l),
(14,500,l),
(14,-200,l)
);
}
);
width = 556;
}
);
note = mu;
unicode = 956;
},
{
glyphname = pi;
lastChange = "2023-09-13 03:40:42 +0000";
layers = (
{
layerId = "F5467FAD-1970-4982-B3D3-939C01050498";
shapes = (
{
closed = 1;
nodes = (
(174,0,l),
(174,463,l),
(426,463,l),
(426,0,l),
(476,0,l),
(476,463,l),
(580,463,l),
(580,500,l),
(23,500,l),
(23,463,l),
(124,463,l),
(124,0,l)
);
}
);
width = 600;
},
{
layerId = "6DD95C5A-998B-41AB-BDFB-84A73C209871";
shapes = (
{
closed = 1;
nodes = (
(248,-3,l),
(248,374,l),
(353,374,l),
(353,-3,l),
(513,-3,l),
(513,374,l),
(604,374,l),
(604,505,l),
(-1,505,l),
(-1,374,l),
(88,374,l),
(88,-3,l)
);
}
);
width = 600;
},
{
layerId = "1FDC7037-1F88-4969-8535-0F79C1EF19DB";
shapes = (
{
closed = 1;
nodes = (
(162,0,l),
(162,477,l),
(438,477,l),
(438,0,l),
(470,0,l),
(470,477,l),
(576,477,l),
(576,499,l),
(27,499,l),
(27,477,l),
(130,477,l),
(130,0,l)
);
}
);
width = 600;
},
{
layerId = "3ED9E848-BE83-4CAC-8EFF-D71BD2B4F667";
shapes = (
{
closed = 1;
nodes = (
(266,-4,l),
(266,352,l),
(335,352,l),
(335,-4,l),
(522,-4,l),
(522,352,l),
(610,352,l),
(610,506,l),
(-7,506,l),
(-7,352,l),
(79,352,l),
(79,-4,l)
);
}
);
width = 600;
}
);
note = pi;
unicode = 960;
},
{
glyphname = zero;
kernRight = zero;
lastChange = "2023-09-13 03:40:42 +0000";
layers = (
{
layerId = "F5467FAD-1970-4982-B3D3-939C01050498";
shapes = (
{
closed = 1;
nodes = (
(512,-13,o),
(616,129,o),
(616,348,cs),
(616,567,o),
(512,709,o),
(325,709,cs),
(139,709,o),
(36,567,o),
(36,348,cs),
(36,129,o),
(139,-13,o),
(325,-13,cs)
);
},
{
closed = 1;
nodes = (
(173,14,o),
(81,141,o),
(81,348,cs),
(81,555,o),
(173,682,o),
(325,682,cs),
(476,682,o),
(571,555,o),
(571,348,cs),
(571,141,o),
(476,14,o),
(325,14,cs)
);
}
);
width = 652;
},
{
layerId = "6DD95C5A-998B-41AB-BDFB-84A73C209871";
shapes = (
{
closed = 1;
nodes = (
(550,-12,o),
(659,140,o),
(659,348,cs),
(659,556,o),
(550,708,o),
(346,708,cs),
(143,708,o),
(35,556,o),
(35,348,cs),
(35,140,o),
(143,-12,o),
(346,-12,cs)
);
},
{
closed = 1;
nodes = (
(255,99,o),
(190,185,o),
(190,348,cs),
(190,511,o),
(255,597,o),
(346,597,cs),
(438,597,o),
(504,511,o),
(504,348,cs),
(504,185,o),
(438,99,o),
(346,99,cs)
);
}
);
width = 694;
},
{
layerId = "1FDC7037-1F88-4969-8535-0F79C1EF19DB";
shapes = (
{
closed = 1;
nodes = (
(506,-13,o),
(609,127,o),
(609,348,cs),
(609,569,o),
(506,709,o),
(322,709,cs),
(138,709,o),
(36,569,o),
(36,348,cs),
(36,127,o),
(138,-13,o),
(322,-13,cs)
);
},
{
closed = 1;
nodes = (
(160,0,o),
(64,134,o),
(64,348,cs),
(64,562,o),
(160,696,o),
(322,696,cs),
(482,696,o),
(582,562,o),
(582,348,cs),
(582,134,o),
(482,0,o),
(322,0,cs)
);
}
);
width = 645.28;
},
{
layerId = "3ED9E848-BE83-4CAC-8EFF-D71BD2B4F667";
shapes = (
{
closed = 1;
nodes = (
(559,-12,o),
(670,143,o),
(670,348,cs),
(670,553,o),
(559,708,o),
(351,708,cs),
(144,708,o),
(35,553,o),
(35,348,cs),
(35,143,o),
(144,-12,o),
(351,-12,cs)
);
},
{
closed = 1;
nodes = (
(275,120,o),
(217,196,o),
(217,348,cs),
(217,500,o),
(275,576,o),
(351,576,cs),
(429,576,o),
(488,500,o),
(488,348,cs),
(488,196,o),
(429,120,o),
(351,120,cs)
);
}
);
width = 704.325;
}
);
note = zero;
unicode = 48;
},
{
glyphname = one;
kernRight = one;
lastChange = "2023-09-13 03:40:42 +0000";
layers = (
{
layerId = "F5467FAD-1970-4982-B3D3-939C01050498";
shapes = (
{
closed = 1;
nodes = (
(282,0,l),
(282,700,l),
(234,700,l),
(234,687,ls),
(234,666,o),
(210,654,o),
(180,647,cs),
(144,639,o),
(99,638,o),
(75,639,c),
(75,620,l),
(240,620,l),
(240,0,l)
);
}
);
width = 377;
},
{
layerId = "6DD95C5A-998B-41AB-BDFB-84A73C209871";
shapes = (
{
closed = 1;
nodes = (
(328,0,l),
(328,700,l),
(174,700,l),
(174,682.17,ls),
(174,647,o),
(142.04,628.84,o),
(93.52,628.84,cs),
(74.94,628.84,o),
(53.36,631.53,o),
(29,637,c),
(29,537,l),
(174,537,l),
(174,0,l)
);
}
);
width = 377;
},
{
layerId = "1FDC7037-1F88-4969-8535-0F79C1EF19DB";
shapes = (
{
closed = 1;
nodes = (
(275,0,l),
(275,700,l),
(244,700,l),
(244,688,ls),
(244,669,o),
(221,658,o),
(194,650,cs),
(155,641,o),
(106,639,o),
(82,639,c),
(82,633,l),
(251,633,l),
(251,0,l)
);
}
);
width = 377;
},
{
layerId = "3ED9E848-BE83-4CAC-8EFF-D71BD2B4F667";
shapes = (
{
closed = 1;
nodes = (
(339,0,l),
(339,700,l),
(159,700,l),
(159,681,ls),
(159,642,o),
(125,623,o),
(72,624,cs),
(58,626,o),
(42,630,o),
(18,637,c),
(18,517,l),
(158,517,l),
(158,0,l)
);
}
);
width = 377;
}
);
note = one;
unicode = 49;
},
{
glyphname = two;
lastChange = "2023-09-13 03:40:42 +0000";
layers = (
{
layerId = "F5467FAD-1970-4982-B3D3-939C01050498";
shapes = (
{
closed = 1;
nodes = (
(494,0,l),
(494,40,l),
(94,40,l),
(243,243,o),
(483.01,316.42,o),
(483.01,525.5,cs),
(483.01,647.02,o),
(407.03,713,o),
(268,713,cs),
(173,713,o),
(83,668,o),
(60,556,c),
(107,561,l),
(121,634,o),
(186,685,o),
(268,685,cs),
(369,685,o),
(441,633,o),
(441.04,519.24,cs),
(441,331,o),
(190,246,o),
(43,34,c),
(43,0,l)
);
}
);
width = 537;
},
{
layerId = "6DD95C5A-998B-41AB-BDFB-84A73C209871";
shapes = (
{
closed = 1;
nodes = (
(535,0,l),
(535,123,l),
(223,123,l),
(283.74,201.66,o),
(516.01,274.38,o),
(516.01,493.19,cs),
(516.01,617.58,o),
(437.18,713,o),
(277.99,713,cs),
(140,713,o),
(24,629,o),
(44,485,c),
(197,500,l),
(185,560,o),
(215,604,o),
(278,604,cs),
(330,604,o),
(364,565,o),
(363,495,cs),
(360,303,o),
(83,209,o),
(23,100,c),
(22,0,l)
);
}
);
width = 557;
},
{
layerId = "1FDC7037-1F88-4969-8535-0F79C1EF19DB";
shapes = (
{
closed = 1;
nodes = (
(487,0,l),
(487,27,l),
(73,27,l),
(236,250,o),
(478,323,o),
(478,531,cs),
(478,652,o),
(402,713,o),
(266,713,cs),
(178,713,o),
(92,674,o),
(63,567,c),
(93,571,l),
(111,646,o),
(181,698,o),
(266,698,cs),
(375,698,o),
(453,644,o),
(454,523,cs),
(454,335,o),
(207,252,o),
(46,23,c),
(46,0,l)
);
}
);
width = 533.8;
},
{
layerId = "3ED9E848-BE83-4CAC-8EFF-D71BD2B4F667";
shapes = (
{
closed = 1;
nodes = (
(545,0,l),
(545,143,l),
(255,143,l),
(294,191,o),
(524,264,o),
(524,485,cs),
(524,610,o),
(445,713,o),
(280,713,cs),
(132,713,o),
(10,619,o),
(40,468,c),
(219,485,l),
(201,542,o),
(222,584,o),
(281,584,cs),
(320,584,o),
(345,548,o),
(344,489,cs),
(340,296,o),
(57,200,o),
(18,116,c),
(17,0,l)
);
}
);
width = 561.91667;
}
);
note = two;
unicode = 50;
},
{
glyphname = three;
kernRight = three;
lastChange = "2023-09-13 03:40:42 +0000";
layers = (
{
layerId = "F5467FAD-1970-4982-B3D3-939C01050498";
shapes = (
{
closed = 1;
nodes = (
(386,-10,o),
(495,58,o),
(495,192,cs),
(495,377,o),
(351,431,o),
(223,407,c),
(228,399,l),
(481,671,l),
(481,700,l),
(71,700,l),
(71,671,l),
(436,671,l),
(199,411,l),
(216,384,l),
(232,388,o),
(257,389,o),
(275,389,cs),
(377,389,o),
(454,319,o),
(454,202,cs),
(454,82,o),
(364,18,o),
(264,18,cs),
(164,18,o),
(90,59,o),
(76,163,c),
(34,163,l),
(51,45,o),
(142,-10,o),
(264,-10,cs)
);
}
);
width = 537;
},
{
layerId = "6DD95C5A-998B-41AB-BDFB-84A73C209871";
shapes = (
{
closed = 1;
nodes = (
(435.15,-10,o),
(563,80,o),
(563.15,220,cs),
(563,369,o),
(459,436,o),
(340,424,c),
(348,414,l),
(541,602,l),
(541,700,l),
(74.15,700,l),
(74.15,592,l),
(355.15,592,l),
(180,404,l),
(245.15,326,l),
(272,337,o),
(291,340,o),
(312,340,cs),
(368,340,o),
(410.15,301,o),
(410.15,220,cs),
(410.15,137,o),
(360.15,98,o),
(302.15,98,cs),
(231.15,98,o),
(190.15,130,o),
(193.15,229,c),
(40.15,229,l),
(35.15,71,o),
(154.15,-10,o),
(302.15,-10,cs)
);
}
);
width = 603;
},
{
layerId = "1FDC7037-1F88-4969-8535-0F79C1EF19DB";
shapes = (
{
closed = 1;
nodes = (
(378,-10,o),
(484,54,o),
(484,188,cs),
(484,378,o),
(334,430,o),
(204,404,c),
(209,397,l),
(471,682,l),
(471,700,l),
(70,700,l),
(70,684,l),
(449,684,l),
(202,412,l),
(211,393,l),
(226,396,o),
(252,397,o),
(269,397,cs),
(378,397,o),
(461,322,o),
(461,199,cs),
(461,73,o),
(365,5,o),
(258,5,cs),
(153,5,o),
(74,48,o),
(57,152,c),
(33,152,l),
(54,41,o),
(140,-10,o),
(258,-10,cs)
);
}
);
width = 526.44;
},
{
layerId = "3ED9E848-BE83-4CAC-8EFF-D71BD2B4F667";
shapes = (
{
closed = 1;
nodes = (
(447,-10,o),
(580,85,o),
(580,227,cs),
(580,367,o),
(486,437,o),
(369,428,c),
(377,418,l),
(556,585,l),
(556,700,l),
(75,700,l),
(75,573,l),
(335,573,l),
(175,402,l),
(252,312,l),
(282,324,o),
(299,328,o),
(321,328,cs),
(366,328,o),
(399,297,o),
(399,224,cs),
(399,151,o),
(359,118,o),
(312,118,cs),
(248,118,o),
(215,147,o),
(222,245,c),
(42,245,l),
(31,77,o),
(157,-10,o),
(312,-10,cs)
);
}
);
width = 619.225;
}
);
note = three;
unicode = 51;
},
{
glyphname = four;
kernRight = four;
lastChange = "2023-09-13 03:40:42 +0000";
layers = (
{
layerId = "F5467FAD-1970-4982-B3D3-939C01050498";
shapes = (
{
closed = 1;
nodes = (
(422,0,l),
(422,242.24,l),
(547,242,l),
(547,273,l),
(422,273,l),
(422,700,l),
(383,700,l),
(34,268,l),
(34,243,l),
(380,242.32,l),
(380,0,l)
);
},
{
closed = 1;
nodes = (
(380,651.5,l),
(380,273,l),
(80,273,l)
);
}
);
width = 577;
},
{
layerId = "6DD95C5A-998B-41AB-BDFB-84A73C209871";
shapes = (
{
closed = 1;
nodes = (
(487,0,l),
(487,186.19,l),
(597,186,l),
(597,301,l),
(487,301,l),
(487,700,l),
(353,700,l),
(31,290,l),
(30,187,l),
(333,186.46,l),
(333,0,l)
);
},
{
closed = 1;
nodes = (
(333,484,l),
(333,301,l),
(194,301,l)
);
}
);
width = 630;
},
{
layerId = "1FDC7037-1F88-4969-8535-0F79C1EF19DB";
shapes = (
{
closed = 1;
nodes = (
(412,0,l),
(412,251,l),
(539,251,l),
(539,269,l),
(412,269,l),
(412,700,l),
(388,700,l),
(34,264,l),
(35,252,l),
(388,251,l),
(388,0,l)
);
},
{
closed = 1;
nodes = (
(388,678,l),
(388,269,l),
(62,269,l)
);
}
);
width = 568.52;
},
{
layerId = "3ED9E848-BE83-4CAC-8EFF-D71BD2B4F667";
shapes = (
{
closed = 1;
nodes = (
(503,0,l),
(503,172,l),
(609,172,l),
(609,308,l),
(503,308,l),
(503,700,l),
(346,700,l),
(30,295,l),
(29,173,l),
(321,173,l),
(321,0,l)
);
},
{
closed = 1;
nodes = (
(321,443,l),
(321,308,l),
(222,308,l)
);
}
);
width = 643.02917;
}
);
note = four;
unicode = 52;
},
{
glyphname = five;
kernRight = five;
lastChange = "2023-09-13 03:40:42 +0000";
layers = (
{
layerId = "F5467FAD-1970-4982-B3D3-939C01050498";
shapes = (
{
closed = 1;
nodes = (
(425,-10,o),
(540,73,o),
(540,207,cs),
(540,351,o),
(431,430,o),
(308,430,cs),
(242,430,o),
(196.96,407.3,o),
(160,381.25,c),
(160,670,l),
(499,670,l),
(499,700,l),
(118,700,l),
(118,346,l),
(160,346,l),
(191,373,o),
(225,402,o),
(308,402,cs),
(406,402,o),
(499,341,o),
(499,207,cs),
(499,88,o),
(404,18,o),
(304,18,cs),
(215,18,o),
(144,67,o),
(127,163,c),
(76,163,l),
(95,53,o),
(194,-10,o),
(304,-10,cs)
);
}
);
width = 600;
},
{
layerId = "6DD95C5A-998B-41AB-BDFB-84A73C209871";
shapes = (
{
closed = 1;
nodes = (
(437,-10,o),
(570,85,o),
(570,224,cs),
(570,392,o),
(442,461,o),
(315,461,cs),
(285,461,o),
(261,457,o),
(237,447,c),
(237,576,l),
(534,576,l),
(534,700,l),
(103,700,l),
(103,308,l),
(228,308,l),
(248,340,o),
(278,351,o),
(304,351,cs),
(363,351,o),
(417,316,o),
(417,224,cs),
(417,142,o),
(362,98,o),
(304,98,cs),
(244,98,o),
(192,140,o),
(196,229,c),
(44,229,l),
(37,84,o),
(168,-10,o),
(304,-10,cs)
);
}
);
width = 600;
},
{
layerId = "1FDC7037-1F88-4969-8535-0F79C1EF19DB";
shapes = (
{
closed = 1;
nodes = (
(423,-10,o),
(535,71,o),
(535,204,cs),
(535,344,o),
(429,425,o),
(307,425,cs),
(235,425,o),
(187,399,o),
(148,371,c),
(148,685,l),
(493,685,l),
(493,700,l),
(120,700,l),
(120,352,l),
(149,352,l),
(182,378,o),
(217,410,o),
(309,410,cs),
(413,410,o),
(512,345,o),
(512,204,cs),
(512,79,o),
(411,5,o),
(304,5,cs),
(210,5,o),
(136,55,o),
(116,152,c),
(81,152,l),
(104,48,o),
(198,-10,o),
(304,-10,cs)
);
}
);
width = 600;
},
{
layerId = "3ED9E848-BE83-4CAC-8EFF-D71BD2B4F667";
shapes = (
{
closed = 1;
nodes = (
(440,-10,o),
(577,88,o),
(577,228,cs),
(577,402,o),
(445,469,o),
(317,469,cs),
(296,469,o),
(277,469,o),
(256,463,c),
(256,553,l),
(543,553,l),
(543,700,l),
(99,700,l),
(99,299,l),
(245,299,l),
(262,332,o),
(291,338,o),
(303,338,cs),
(352,338,o),
(397,310,o),
(397,228,cs),
(397,155,o),
(352,118,o),
(304,118,cs),
(251,118,o),
(204,158,o),
(213,245,c),
(36,245,l),
(23,92,o),
(162,-10,o),
(304,-10,cs)
);
}
);
width = 600;
}
);
note = five;
unicode = 53;
},
{
glyphname = six;
lastChange = "2023-09-13 03:40:42 +0000";
layers = (
{
layerId = "F5467FAD-1970-4982-B3D3-939C01050498";
shapes = (
{
closed = 1;
nodes = (
(394.99,-10,o),
(503.99,68,o),
(503.99,202,cs),
(503.99,336,o),
(393.99,415,o),
(271.99,415,cs),
(232.38,415,o),
(199,407,o),
(166,391,c),
(357,700,l),
(311.99,700,l),
(79,325,ls),
(57.35,290.17,o),
(40.99,251.47,o),
(40.99,203,cs),
(40.99,69,o),
(150.99,-10,o),
(272.99,-10,cs)
);
},
{
closed = 1;
nodes = (
(172,18,o),
(82.99,82,o),
(82.99,202,cs),
(82.99,322,o),
(173,386,o),
(273,386,cs),
(373,386,o),
(461.99,323,o),
(461.99,203,cs),
(461.99,83,o),
(372,18,o),
(272,18,cs)
);
}
);
width = 547;
},
{
layerId = "6DD95C5A-998B-41AB-BDFB-84A73C209871";
shapes = (
{
closed = 1;
nodes = (
(406,-10,o),
(534,80,o),
(534,220,cs),
(534,343,o),
(432,429,o),
(316,447,cs),
(308,448,o),
(300,449,o),
(292.18,449.3,c),
(448,700,l),
(272,700,l),
(66,368,ls),
(32,314,o),
(11,271,o),
(11,220,cs),
(11,81,o),
(140,-10,o),
(273,-10,cs)
);
},
{
closed = 1;
nodes = (
(214,99,o),
(165,137,o),
(165,220,cs),
(165,302,o),
(215,341,o),
(273,341,cs),
(331,341,o),
(380,303,o),
(380,220,cs),
(380,138,o),
(330,99,o),
(272,99,cs)
);
}
);
width = 547;
},
{
layerId = "1FDC7037-1F88-4969-8535-0F79C1EF19DB";
shapes = (
{
closed = 1;
nodes = (
(393,-10,o),
(499,66,o),
(499,199,cs),
(499,335,o),
(388,413,o),
(265,410,cs),
(220,410,o),
(183,400,o),
(146,382,c),
(342,700,l),
(318,700,l),
(81,318,ls),
(61,286,o),
(46,248,o),
(46,200,cs),
(46,67,o),
(153,-10,o),
(273,-10,cs)
);
},
{
closed = 1;
nodes = (
(165,5,o),
(70,73,o),
(70,199,cs),
(70,325,o),
(166,393,o),
(273,393,cs),
(380,393,o),
(475,326,o),
(475,200,cs),
(475,74,o),
(379,5,o),
(272,5,cs)
);
}
);
width = 547;
},
{
layerId = "3ED9E848-BE83-4CAC-8EFF-D71BD2B4F667";
shapes = (
{
closed = 1;
nodes = (
(409,-10,o),
(541,83,o),
(541,224,cs),
(541,345,o),
(441,432,o),
(327,455,cs),
(327,456,o),
(325,459,o),
(323,464,c),
(470,700,l),
(262,700,l),
(63,379,ls),
(26,320,o),
(4,276,o),
(4,224,cs),
(4,84,o),
(137,-10,o),
(273.001,-10,cs)
);
},
{
closed = 1;
nodes = (
(224,119,o),
(185,151,o),
(185,224,cs),
(185,297,o),
(225,330,o),
(273,330,cs),
(321,330,o),
(360,298,o),
(360,224,cs),
(360,152,o),
(320,119,o),
(272,119,cs)
);
}
);
width = 547;
}
);
note = six;
unicode = 54;
},
{
glyphname = seven;
kernRight = seven;
lastChange = "2023-09-13 03:40:42 +0000";
layers = (
{
layerId = "F5467FAD-1970-4982-B3D3-939C01050498";
shapes = (
{
closed = 1;
nodes = (
(119,0,l),
(448,700,l),
(61,700,l),
(61,670,l),
(398.43,670,l),
(73,0,l)
);
}
);
width = 504;
},
{
layerId = "6DD95C5A-998B-41AB-BDFB-84A73C209871";
shapes = (
{
closed = 1;
nodes = (
(186,0,l),
(517,700,l),
(28,700,l),
(28,576,l),
(293.77,576,l),
(14,0,l)
);
}
);
width = 504;
},
{
layerId = "1FDC7037-1F88-4969-8535-0F79C1EF19DB";
shapes = (
{
closed = 1;
nodes = (
(108,0,l),
(437,700,l),
(66,700,l),
(66,685,l),
(415,685,l),
(82,0,l)
);
}
);
width = 504;
},
{
layerId = "3ED9E848-BE83-4CAC-8EFF-D71BD2B4F667";
shapes = (
{
closed = 1;
nodes = (
(203,0,l),
(534,700,l),
(20,700,l),
(20,553,l),
(268,553,l),
(0,0,l)
);
}
);
width = 504;
}
);
note = seven;
unicode = 55;
},
